G04 #@! TF.GenerationSoftware,KiCad,Pcbnew,5.1.5+dfsg1-2build2*
G04 #@! TF.CreationDate,2023-08-26T17:55:10-03:00*
G04 #@! TF.ProjectId,TeCoLab_Board,5465436f-4c61-4625-9f42-6f6172642e6b,1.00*
G04 #@! TF.SameCoordinates,Original*
G04 #@! TF.FileFunction,Legend,Bot*
G04 #@! TF.FilePolarity,Positive*
%FSLAX46Y46*%
G04 Gerber Fmt 4.6, Leading zero omitted, Abs format (unit mm)*
G04 Created by KiCad (PCBNEW 5.1.5+dfsg1-2build2) date 2023-08-26 17:55:10*
%MOMM*%
%LPD*%
G04 APERTURE LIST*
%ADD10C,0.300000*%
%ADD11C,0.010000*%
G04 APERTURE END LIST*
D10*
X161659337Y-125407811D02*
X161659337Y-123907811D01*
X161016480Y-125407811D02*
X161016480Y-124622097D01*
X161087908Y-124479240D01*
X161230765Y-124407811D01*
X161445051Y-124407811D01*
X161587908Y-124479240D01*
X161659337Y-124550668D01*
X160516480Y-124407811D02*
X159945051Y-124407811D01*
X160302194Y-123907811D02*
X160302194Y-125193525D01*
X160230765Y-125336382D01*
X160087908Y-125407811D01*
X159945051Y-125407811D01*
X159659337Y-124407811D02*
X159087908Y-124407811D01*
X159445051Y-123907811D02*
X159445051Y-125193525D01*
X159373622Y-125336382D01*
X159230765Y-125407811D01*
X159087908Y-125407811D01*
X158587908Y-124407811D02*
X158587908Y-125907811D01*
X158587908Y-124479240D02*
X158445051Y-124407811D01*
X158159337Y-124407811D01*
X158016480Y-124479240D01*
X157945051Y-124550668D01*
X157873622Y-124693525D01*
X157873622Y-125122097D01*
X157945051Y-125264954D01*
X158016480Y-125336382D01*
X158159337Y-125407811D01*
X158445051Y-125407811D01*
X158587908Y-125336382D01*
X157302194Y-125336382D02*
X157159337Y-125407811D01*
X156873622Y-125407811D01*
X156730765Y-125336382D01*
X156659337Y-125193525D01*
X156659337Y-125122097D01*
X156730765Y-124979240D01*
X156873622Y-124907811D01*
X157087908Y-124907811D01*
X157230765Y-124836382D01*
X157302194Y-124693525D01*
X157302194Y-124622097D01*
X157230765Y-124479240D01*
X157087908Y-124407811D01*
X156873622Y-124407811D01*
X156730765Y-124479240D01*
X156016480Y-125264954D02*
X155945051Y-125336382D01*
X156016480Y-125407811D01*
X156087908Y-125336382D01*
X156016480Y-125264954D01*
X156016480Y-125407811D01*
X156016480Y-124479240D02*
X155945051Y-124550668D01*
X156016480Y-124622097D01*
X156087908Y-124550668D01*
X156016480Y-124479240D01*
X156016480Y-124622097D01*
X154230765Y-123836382D02*
X155516480Y-125764954D01*
X152659337Y-123836382D02*
X153945051Y-125764954D01*
X151516480Y-124407811D02*
X151516480Y-125622097D01*
X151587908Y-125764954D01*
X151659337Y-125836382D01*
X151802194Y-125907811D01*
X152016480Y-125907811D01*
X152159337Y-125836382D01*
X151516480Y-125336382D02*
X151659337Y-125407811D01*
X151945051Y-125407811D01*
X152087908Y-125336382D01*
X152159337Y-125264954D01*
X152230765Y-125122097D01*
X152230765Y-124693525D01*
X152159337Y-124550668D01*
X152087908Y-124479240D01*
X151945051Y-124407811D01*
X151659337Y-124407811D01*
X151516480Y-124479240D01*
X150802194Y-125407811D02*
X150802194Y-124407811D01*
X150802194Y-123907811D02*
X150873622Y-123979240D01*
X150802194Y-124050668D01*
X150730765Y-123979240D01*
X150802194Y-123907811D01*
X150802194Y-124050668D01*
X150302194Y-124407811D02*
X149730765Y-124407811D01*
X150087908Y-123907811D02*
X150087908Y-125193525D01*
X150016480Y-125336382D01*
X149873622Y-125407811D01*
X149730765Y-125407811D01*
X149230765Y-125407811D02*
X149230765Y-123907811D01*
X148587908Y-125407811D02*
X148587908Y-124622097D01*
X148659337Y-124479240D01*
X148802194Y-124407811D01*
X149016480Y-124407811D01*
X149159337Y-124479240D01*
X149230765Y-124550668D01*
X147230765Y-124407811D02*
X147230765Y-125407811D01*
X147873622Y-124407811D02*
X147873622Y-125193525D01*
X147802194Y-125336382D01*
X147659337Y-125407811D01*
X147445051Y-125407811D01*
X147302194Y-125336382D01*
X147230765Y-125264954D01*
X146516480Y-125407811D02*
X146516480Y-123907811D01*
X146516480Y-124479240D02*
X146373622Y-124407811D01*
X146087908Y-124407811D01*
X145945051Y-124479240D01*
X145873622Y-124550668D01*
X145802194Y-124693525D01*
X145802194Y-125122097D01*
X145873622Y-125264954D01*
X145945051Y-125336382D01*
X146087908Y-125407811D01*
X146373622Y-125407811D01*
X146516480Y-125336382D01*
X145159337Y-125264954D02*
X145087908Y-125336382D01*
X145159337Y-125407811D01*
X145230765Y-125336382D01*
X145159337Y-125264954D01*
X145159337Y-125407811D01*
X143802194Y-125336382D02*
X143945051Y-125407811D01*
X144230765Y-125407811D01*
X144373622Y-125336382D01*
X144445051Y-125264954D01*
X144516480Y-125122097D01*
X144516480Y-124693525D01*
X144445051Y-124550668D01*
X144373622Y-124479240D01*
X144230765Y-124407811D01*
X143945051Y-124407811D01*
X143802194Y-124479240D01*
X142945051Y-125407811D02*
X143087908Y-125336382D01*
X143159337Y-125264954D01*
X143230765Y-125122097D01*
X143230765Y-124693525D01*
X143159337Y-124550668D01*
X143087908Y-124479240D01*
X142945051Y-124407811D01*
X142730765Y-124407811D01*
X142587908Y-124479240D01*
X142516480Y-124550668D01*
X142445051Y-124693525D01*
X142445051Y-125122097D01*
X142516480Y-125264954D01*
X142587908Y-125336382D01*
X142730765Y-125407811D01*
X142945051Y-125407811D01*
X141802194Y-125407811D02*
X141802194Y-124407811D01*
X141802194Y-124550668D02*
X141730765Y-124479240D01*
X141587908Y-124407811D01*
X141373622Y-124407811D01*
X141230765Y-124479240D01*
X141159337Y-124622097D01*
X141159337Y-125407811D01*
X141159337Y-124622097D02*
X141087908Y-124479240D01*
X140945051Y-124407811D01*
X140730765Y-124407811D01*
X140587908Y-124479240D01*
X140516480Y-124622097D01*
X140516480Y-125407811D01*
X138730765Y-123836382D02*
X140016480Y-125764954D01*
X138373622Y-124407811D02*
X138016480Y-125407811D01*
X137659337Y-124407811D02*
X138016480Y-125407811D01*
X138159337Y-125764954D01*
X138230765Y-125836382D01*
X138373622Y-125907811D01*
X137302194Y-124407811D02*
X136730765Y-124407811D01*
X137087908Y-123907811D02*
X137087908Y-125193525D01*
X137016480Y-125336382D01*
X136873622Y-125407811D01*
X136730765Y-125407811D01*
X135587908Y-125336382D02*
X135730765Y-125407811D01*
X136016480Y-125407811D01*
X136159337Y-125336382D01*
X136230765Y-125264954D01*
X136302194Y-125122097D01*
X136302194Y-124693525D01*
X136230765Y-124550668D01*
X136159337Y-124479240D01*
X136016480Y-124407811D01*
X135730765Y-124407811D01*
X135587908Y-124479240D01*
X135016480Y-125336382D02*
X134873622Y-125407811D01*
X134587908Y-125407811D01*
X134445051Y-125336382D01*
X134373622Y-125193525D01*
X134373622Y-125122097D01*
X134445051Y-124979240D01*
X134587908Y-124907811D01*
X134802194Y-124907811D01*
X134945051Y-124836382D01*
X135016480Y-124693525D01*
X135016480Y-124622097D01*
X134945051Y-124479240D01*
X134802194Y-124407811D01*
X134587908Y-124407811D01*
X134445051Y-124479240D01*
X133087908Y-125336382D02*
X133230765Y-125407811D01*
X133516480Y-125407811D01*
X133659337Y-125336382D01*
X133730765Y-125264954D01*
X133802194Y-125122097D01*
X133802194Y-124693525D01*
X133730765Y-124550668D01*
X133659337Y-124479240D01*
X133516480Y-124407811D01*
X133230765Y-124407811D01*
X133087908Y-124479240D01*
X131373622Y-123836382D02*
X132659337Y-125764954D01*
X131087908Y-123907811D02*
X130230765Y-123907811D01*
X130659337Y-125407811D02*
X130659337Y-123907811D01*
X129159337Y-125336382D02*
X129302194Y-125407811D01*
X129587908Y-125407811D01*
X129730765Y-125336382D01*
X129802194Y-125193525D01*
X129802194Y-124622097D01*
X129730765Y-124479240D01*
X129587908Y-124407811D01*
X129302194Y-124407811D01*
X129159337Y-124479240D01*
X129087908Y-124622097D01*
X129087908Y-124764954D01*
X129802194Y-124907811D01*
X127587908Y-125264954D02*
X127659337Y-125336382D01*
X127873622Y-125407811D01*
X128016480Y-125407811D01*
X128230765Y-125336382D01*
X128373622Y-125193525D01*
X128445051Y-125050668D01*
X128516480Y-124764954D01*
X128516480Y-124550668D01*
X128445051Y-124264954D01*
X128373622Y-124122097D01*
X128230765Y-123979240D01*
X128016480Y-123907811D01*
X127873622Y-123907811D01*
X127659337Y-123979240D01*
X127587908Y-124050668D01*
X126730765Y-125407811D02*
X126873622Y-125336382D01*
X126945051Y-125264954D01*
X127016480Y-125122097D01*
X127016480Y-124693525D01*
X126945051Y-124550668D01*
X126873622Y-124479240D01*
X126730765Y-124407811D01*
X126516480Y-124407811D01*
X126373622Y-124479240D01*
X126302194Y-124550668D01*
X126230765Y-124693525D01*
X126230765Y-125122097D01*
X126302194Y-125264954D01*
X126373622Y-125336382D01*
X126516480Y-125407811D01*
X126730765Y-125407811D01*
X124873622Y-125407811D02*
X125587908Y-125407811D01*
X125587908Y-123907811D01*
X123730765Y-125407811D02*
X123730765Y-124622097D01*
X123802194Y-124479240D01*
X123945051Y-124407811D01*
X124230765Y-124407811D01*
X124373622Y-124479240D01*
X123730765Y-125336382D02*
X123873622Y-125407811D01*
X124230765Y-125407811D01*
X124373622Y-125336382D01*
X124445051Y-125193525D01*
X124445051Y-125050668D01*
X124373622Y-124907811D01*
X124230765Y-124836382D01*
X123873622Y-124836382D01*
X123730765Y-124764954D01*
X123016480Y-125407811D02*
X123016480Y-123907811D01*
X123016480Y-124479240D02*
X122873622Y-124407811D01*
X122587908Y-124407811D01*
X122445051Y-124479240D01*
X122373622Y-124550668D01*
X122302194Y-124693525D01*
X122302194Y-125122097D01*
X122373622Y-125264954D01*
X122445051Y-125336382D01*
X122587908Y-125407811D01*
X122873622Y-125407811D01*
X123016480Y-125336382D01*
D11*
G36*
X141314689Y-110842956D02*
G01*
X141192373Y-110954624D01*
X141144812Y-111120834D01*
X141195147Y-111310921D01*
X141325454Y-111437675D01*
X141504684Y-111482053D01*
X141669052Y-111442352D01*
X141802762Y-111321153D01*
X141844575Y-111149856D01*
X141786881Y-110963113D01*
X141777552Y-110948259D01*
X141642546Y-110830154D01*
X141476503Y-110798259D01*
X141314689Y-110842956D01*
G37*
X141314689Y-110842956D02*
X141192373Y-110954624D01*
X141144812Y-111120834D01*
X141195147Y-111310921D01*
X141325454Y-111437675D01*
X141504684Y-111482053D01*
X141669052Y-111442352D01*
X141802762Y-111321153D01*
X141844575Y-111149856D01*
X141786881Y-110963113D01*
X141777552Y-110948259D01*
X141642546Y-110830154D01*
X141476503Y-110798259D01*
X141314689Y-110842956D01*
G36*
X141130635Y-107586930D02*
G01*
X141114929Y-109693635D01*
X140892100Y-109802530D01*
X140661861Y-109958083D01*
X140436016Y-110182151D01*
X140249521Y-110434537D01*
X140139331Y-110668209D01*
X140073158Y-111074572D01*
X140112912Y-111463203D01*
X140247682Y-111817768D01*
X140466553Y-112121935D01*
X140758614Y-112359370D01*
X141112952Y-112513739D01*
X141406438Y-112564720D01*
X141633714Y-112565698D01*
X141850233Y-112542457D01*
X141921753Y-112526288D01*
X142277656Y-112363238D01*
X142577144Y-112104518D01*
X142770894Y-111822215D01*
X142904072Y-111456335D01*
X142926153Y-111226496D01*
X142294150Y-111226496D01*
X142221267Y-111476262D01*
X142052347Y-111709173D01*
X142008487Y-111750058D01*
X141756687Y-111896626D01*
X141470886Y-111940344D01*
X141181300Y-111879180D01*
X141053640Y-111814340D01*
X140837220Y-111619104D01*
X140714790Y-111375746D01*
X140685465Y-111108851D01*
X140748359Y-110843000D01*
X140902586Y-110602775D01*
X141103235Y-110438064D01*
X141373296Y-110328525D01*
X141629649Y-110321454D01*
X141860533Y-110399803D01*
X142054187Y-110546528D01*
X142198849Y-110744583D01*
X142282757Y-110976921D01*
X142294150Y-111226496D01*
X142926153Y-111226496D01*
X142940531Y-111076849D01*
X142886828Y-110705921D01*
X142749524Y-110365711D01*
X142535176Y-110078383D01*
X142250344Y-109866099D01*
X142182235Y-109833148D01*
X141921753Y-109717924D01*
X141921753Y-105480224D01*
X141146341Y-105480224D01*
X141130635Y-107586930D01*
G37*
X141130635Y-107586930D02*
X141114929Y-109693635D01*
X140892100Y-109802530D01*
X140661861Y-109958083D01*
X140436016Y-110182151D01*
X140249521Y-110434537D01*
X140139331Y-110668209D01*
X140073158Y-111074572D01*
X140112912Y-111463203D01*
X140247682Y-111817768D01*
X140466553Y-112121935D01*
X140758614Y-112359370D01*
X141112952Y-112513739D01*
X141406438Y-112564720D01*
X141633714Y-112565698D01*
X141850233Y-112542457D01*
X141921753Y-112526288D01*
X142277656Y-112363238D01*
X142577144Y-112104518D01*
X142770894Y-111822215D01*
X142904072Y-111456335D01*
X142926153Y-111226496D01*
X142294150Y-111226496D01*
X142221267Y-111476262D01*
X142052347Y-111709173D01*
X142008487Y-111750058D01*
X141756687Y-111896626D01*
X141470886Y-111940344D01*
X141181300Y-111879180D01*
X141053640Y-111814340D01*
X140837220Y-111619104D01*
X140714790Y-111375746D01*
X140685465Y-111108851D01*
X140748359Y-110843000D01*
X140902586Y-110602775D01*
X141103235Y-110438064D01*
X141373296Y-110328525D01*
X141629649Y-110321454D01*
X141860533Y-110399803D01*
X142054187Y-110546528D01*
X142198849Y-110744583D01*
X142282757Y-110976921D01*
X142294150Y-111226496D01*
X142926153Y-111226496D01*
X142940531Y-111076849D01*
X142886828Y-110705921D01*
X142749524Y-110365711D01*
X142535176Y-110078383D01*
X142250344Y-109866099D01*
X142182235Y-109833148D01*
X141921753Y-109717924D01*
X141921753Y-105480224D01*
X141146341Y-105480224D01*
X141130635Y-107586930D01*
G36*
X130072629Y-109786067D02*
G01*
X130006107Y-109946641D01*
X129980452Y-110138212D01*
X129964712Y-110318830D01*
X129938074Y-110403251D01*
X129890028Y-110414807D01*
X129860922Y-110403538D01*
X129660170Y-110359018D01*
X129421510Y-110372257D01*
X129208569Y-110437934D01*
X129167447Y-110461504D01*
X129023514Y-110587993D01*
X128895215Y-110749965D01*
X128890417Y-110757706D01*
X128789777Y-111018480D01*
X128791517Y-111274022D01*
X128878952Y-111508548D01*
X129035399Y-111706272D01*
X129244175Y-111851409D01*
X129488596Y-111928174D01*
X129751979Y-111920782D01*
X130010734Y-111817702D01*
X130155047Y-111712901D01*
X130258026Y-111588302D01*
X130326179Y-111422858D01*
X130366013Y-111195523D01*
X130366673Y-111184160D01*
X129958959Y-111184160D01*
X129910710Y-111295387D01*
X129847543Y-111368898D01*
X129674439Y-111487030D01*
X129497612Y-111488171D01*
X129331984Y-111373401D01*
X129295821Y-111329082D01*
X129220083Y-111205162D01*
X129219834Y-111101278D01*
X129260028Y-111006318D01*
X129390836Y-110847724D01*
X129558165Y-110784735D01*
X129729903Y-110815095D01*
X129873939Y-110936547D01*
X129934228Y-111053686D01*
X129958959Y-111184160D01*
X130366673Y-111184160D01*
X130384038Y-110885252D01*
X130387165Y-110600392D01*
X130384455Y-110276098D01*
X130374779Y-110051093D01*
X130355814Y-109905226D01*
X130325237Y-109818347D01*
X130292508Y-109779125D01*
X130170452Y-109727517D01*
X130072629Y-109786067D01*
G37*
X130072629Y-109786067D02*
X130006107Y-109946641D01*
X129980452Y-110138212D01*
X129964712Y-110318830D01*
X129938074Y-110403251D01*
X129890028Y-110414807D01*
X129860922Y-110403538D01*
X129660170Y-110359018D01*
X129421510Y-110372257D01*
X129208569Y-110437934D01*
X129167447Y-110461504D01*
X129023514Y-110587993D01*
X128895215Y-110749965D01*
X128890417Y-110757706D01*
X128789777Y-111018480D01*
X128791517Y-111274022D01*
X128878952Y-111508548D01*
X129035399Y-111706272D01*
X129244175Y-111851409D01*
X129488596Y-111928174D01*
X129751979Y-111920782D01*
X130010734Y-111817702D01*
X130155047Y-111712901D01*
X130258026Y-111588302D01*
X130326179Y-111422858D01*
X130366013Y-111195523D01*
X130366673Y-111184160D01*
X129958959Y-111184160D01*
X129910710Y-111295387D01*
X129847543Y-111368898D01*
X129674439Y-111487030D01*
X129497612Y-111488171D01*
X129331984Y-111373401D01*
X129295821Y-111329082D01*
X129220083Y-111205162D01*
X129219834Y-111101278D01*
X129260028Y-111006318D01*
X129390836Y-110847724D01*
X129558165Y-110784735D01*
X129729903Y-110815095D01*
X129873939Y-110936547D01*
X129934228Y-111053686D01*
X129958959Y-111184160D01*
X130366673Y-111184160D01*
X130384038Y-110885252D01*
X130387165Y-110600392D01*
X130384455Y-110276098D01*
X130374779Y-110051093D01*
X130355814Y-109905226D01*
X130325237Y-109818347D01*
X130292508Y-109779125D01*
X130170452Y-109727517D01*
X130072629Y-109786067D01*
G36*
X133403189Y-110385656D02*
G01*
X133158613Y-110523070D01*
X132958733Y-110750695D01*
X132954417Y-110757706D01*
X132893770Y-110913888D01*
X132853089Y-111128545D01*
X132833739Y-111366122D01*
X132837083Y-111591064D01*
X132864487Y-111767816D01*
X132912223Y-111857379D01*
X133005451Y-111886238D01*
X133182136Y-111909785D01*
X133406206Y-111923414D01*
X133435165Y-111924177D01*
X133702593Y-111921796D01*
X133889711Y-111896050D01*
X134034519Y-111840609D01*
X134074734Y-111817641D01*
X134292373Y-111620936D01*
X134417552Y-111366915D01*
X134434406Y-111184160D01*
X134022959Y-111184160D01*
X133974710Y-111295387D01*
X133911543Y-111368898D01*
X133738439Y-111487030D01*
X133561612Y-111488171D01*
X133395984Y-111373401D01*
X133359821Y-111329082D01*
X133284083Y-111205162D01*
X133283834Y-111101278D01*
X133324028Y-111006318D01*
X133454836Y-110847724D01*
X133622165Y-110784735D01*
X133793903Y-110815095D01*
X133937939Y-110936547D01*
X133998228Y-111053686D01*
X134022959Y-111184160D01*
X134434406Y-111184160D01*
X134443904Y-111081175D01*
X134365061Y-110789318D01*
X134341959Y-110743203D01*
X134161847Y-110517227D01*
X133929132Y-110382481D01*
X133668137Y-110338708D01*
X133403189Y-110385656D01*
G37*
X133403189Y-110385656D02*
X133158613Y-110523070D01*
X132958733Y-110750695D01*
X132954417Y-110757706D01*
X132893770Y-110913888D01*
X132853089Y-111128545D01*
X132833739Y-111366122D01*
X132837083Y-111591064D01*
X132864487Y-111767816D01*
X132912223Y-111857379D01*
X133005451Y-111886238D01*
X133182136Y-111909785D01*
X133406206Y-111923414D01*
X133435165Y-111924177D01*
X133702593Y-111921796D01*
X133889711Y-111896050D01*
X134034519Y-111840609D01*
X134074734Y-111817641D01*
X134292373Y-111620936D01*
X134417552Y-111366915D01*
X134434406Y-111184160D01*
X134022959Y-111184160D01*
X133974710Y-111295387D01*
X133911543Y-111368898D01*
X133738439Y-111487030D01*
X133561612Y-111488171D01*
X133395984Y-111373401D01*
X133359821Y-111329082D01*
X133284083Y-111205162D01*
X133283834Y-111101278D01*
X133324028Y-111006318D01*
X133454836Y-110847724D01*
X133622165Y-110784735D01*
X133793903Y-110815095D01*
X133937939Y-110936547D01*
X133998228Y-111053686D01*
X134022959Y-111184160D01*
X134434406Y-111184160D01*
X134443904Y-111081175D01*
X134365061Y-110789318D01*
X134341959Y-110743203D01*
X134161847Y-110517227D01*
X133929132Y-110382481D01*
X133668137Y-110338708D01*
X133403189Y-110385656D01*
G36*
X137927449Y-109763282D02*
G01*
X137886792Y-109805620D01*
X137857535Y-109885790D01*
X137837262Y-110022640D01*
X137823554Y-110235015D01*
X137813996Y-110541764D01*
X137811304Y-110668743D01*
X137794737Y-111511490D01*
X137333186Y-111528915D01*
X136871635Y-111546341D01*
X136871635Y-111904930D01*
X137470333Y-111921808D01*
X137795809Y-111924187D01*
X138012084Y-111909205D01*
X138128327Y-111876088D01*
X138142686Y-111865032D01*
X138173674Y-111789066D01*
X138195741Y-111626158D01*
X138209561Y-111366770D01*
X138215810Y-111001366D01*
X138216341Y-110824530D01*
X138214632Y-110452686D01*
X138208439Y-110182695D01*
X138196166Y-109996914D01*
X138176214Y-109877700D01*
X138146987Y-109807412D01*
X138121684Y-109779125D01*
X138006643Y-109732865D01*
X137927449Y-109763282D01*
G37*
X137927449Y-109763282D02*
X137886792Y-109805620D01*
X137857535Y-109885790D01*
X137837262Y-110022640D01*
X137823554Y-110235015D01*
X137813996Y-110541764D01*
X137811304Y-110668743D01*
X137794737Y-111511490D01*
X137333186Y-111528915D01*
X136871635Y-111546341D01*
X136871635Y-111904930D01*
X137470333Y-111921808D01*
X137795809Y-111924187D01*
X138012084Y-111909205D01*
X138128327Y-111876088D01*
X138142686Y-111865032D01*
X138173674Y-111789066D01*
X138195741Y-111626158D01*
X138209561Y-111366770D01*
X138215810Y-111001366D01*
X138216341Y-110824530D01*
X138214632Y-110452686D01*
X138208439Y-110182695D01*
X138196166Y-109996914D01*
X138176214Y-109877700D01*
X138146987Y-109807412D01*
X138121684Y-109779125D01*
X138006643Y-109732865D01*
X137927449Y-109763282D01*
G36*
X145210198Y-109757647D02*
G01*
X145011985Y-109847040D01*
X144844970Y-109972202D01*
X144730778Y-110113642D01*
X144691030Y-110251867D01*
X144726925Y-110346506D01*
X144849352Y-110427111D01*
X144983514Y-110428001D01*
X145071371Y-110359772D01*
X145209075Y-110228638D01*
X145390152Y-110181677D01*
X145573981Y-110218022D01*
X145719942Y-110336801D01*
X145743060Y-110374140D01*
X145784679Y-110524028D01*
X145803307Y-110742239D01*
X145799225Y-110979855D01*
X145772717Y-111187957D01*
X145737747Y-111296270D01*
X145599906Y-111462786D01*
X145428488Y-111517710D01*
X145236376Y-111459581D01*
X145113517Y-111367047D01*
X144956753Y-111247857D01*
X144837858Y-111227936D01*
X144733655Y-111303787D01*
X144729225Y-111309052D01*
X144685741Y-111439779D01*
X144736942Y-111584375D01*
X144862451Y-111724341D01*
X145041890Y-111841176D01*
X145254884Y-111916381D01*
X145417988Y-111934365D01*
X145631527Y-111903235D01*
X145832164Y-111827121D01*
X145848381Y-111817702D01*
X146020884Y-111681235D01*
X146134843Y-111505814D01*
X146199451Y-111267715D01*
X146223898Y-110943213D01*
X146224812Y-110846142D01*
X146214840Y-110539788D01*
X146181620Y-110319760D01*
X146120196Y-110154259D01*
X146115606Y-110145556D01*
X145945182Y-109938759D01*
X145707036Y-109789069D01*
X145447093Y-109724271D01*
X145417988Y-109723518D01*
X145210198Y-109757647D01*
G37*
X145210198Y-109757647D02*
X145011985Y-109847040D01*
X144844970Y-109972202D01*
X144730778Y-110113642D01*
X144691030Y-110251867D01*
X144726925Y-110346506D01*
X144849352Y-110427111D01*
X144983514Y-110428001D01*
X145071371Y-110359772D01*
X145209075Y-110228638D01*
X145390152Y-110181677D01*
X145573981Y-110218022D01*
X145719942Y-110336801D01*
X145743060Y-110374140D01*
X145784679Y-110524028D01*
X145803307Y-110742239D01*
X145799225Y-110979855D01*
X145772717Y-111187957D01*
X145737747Y-111296270D01*
X145599906Y-111462786D01*
X145428488Y-111517710D01*
X145236376Y-111459581D01*
X145113517Y-111367047D01*
X144956753Y-111247857D01*
X144837858Y-111227936D01*
X144733655Y-111303787D01*
X144729225Y-111309052D01*
X144685741Y-111439779D01*
X144736942Y-111584375D01*
X144862451Y-111724341D01*
X145041890Y-111841176D01*
X145254884Y-111916381D01*
X145417988Y-111934365D01*
X145631527Y-111903235D01*
X145832164Y-111827121D01*
X145848381Y-111817702D01*
X146020884Y-111681235D01*
X146134843Y-111505814D01*
X146199451Y-111267715D01*
X146223898Y-110943213D01*
X146224812Y-110846142D01*
X146214840Y-110539788D01*
X146181620Y-110319760D01*
X146120196Y-110154259D01*
X146115606Y-110145556D01*
X145945182Y-109938759D01*
X145707036Y-109789069D01*
X145447093Y-109724271D01*
X145417988Y-109723518D01*
X145210198Y-109757647D01*
G36*
X149130948Y-110413901D02*
G01*
X148915664Y-110552491D01*
X148760607Y-110749479D01*
X148689014Y-110992849D01*
X148688762Y-111098106D01*
X148705047Y-111307283D01*
X149237691Y-111337165D01*
X149488975Y-111353831D01*
X149637457Y-111371988D01*
X149699833Y-111395758D01*
X149692803Y-111429260D01*
X149675611Y-111445232D01*
X149545673Y-111494135D01*
X149338789Y-111507175D01*
X149292378Y-111504997D01*
X149118765Y-111498589D01*
X149030877Y-111518962D01*
X148995414Y-111581920D01*
X148984962Y-111650901D01*
X148995909Y-111784217D01*
X149089762Y-111861235D01*
X149123324Y-111875018D01*
X149433164Y-111931828D01*
X149745236Y-111879285D01*
X149866773Y-111825606D01*
X150088503Y-111646646D01*
X150222831Y-111411918D01*
X150268995Y-111148002D01*
X150232974Y-110923517D01*
X149774296Y-110923517D01*
X149773200Y-110959098D01*
X149698282Y-110974128D01*
X149530066Y-110976942D01*
X149446427Y-110976588D01*
X149063635Y-110974600D01*
X149204727Y-110857059D01*
X149397416Y-110754643D01*
X149582884Y-110763181D01*
X149721047Y-110859047D01*
X149774296Y-110923517D01*
X150232974Y-110923517D01*
X150226228Y-110881481D01*
X150093765Y-110638936D01*
X149905830Y-110468677D01*
X149649266Y-110359978D01*
X149383228Y-110345724D01*
X149130948Y-110413901D01*
G37*
X149130948Y-110413901D02*
X148915664Y-110552491D01*
X148760607Y-110749479D01*
X148689014Y-110992849D01*
X148688762Y-111098106D01*
X148705047Y-111307283D01*
X149237691Y-111337165D01*
X149488975Y-111353831D01*
X149637457Y-111371988D01*
X149699833Y-111395758D01*
X149692803Y-111429260D01*
X149675611Y-111445232D01*
X149545673Y-111494135D01*
X149338789Y-111507175D01*
X149292378Y-111504997D01*
X149118765Y-111498589D01*
X149030877Y-111518962D01*
X148995414Y-111581920D01*
X148984962Y-111650901D01*
X148995909Y-111784217D01*
X149089762Y-111861235D01*
X149123324Y-111875018D01*
X149433164Y-111931828D01*
X149745236Y-111879285D01*
X149866773Y-111825606D01*
X150088503Y-111646646D01*
X150222831Y-111411918D01*
X150268995Y-111148002D01*
X150232974Y-110923517D01*
X149774296Y-110923517D01*
X149773200Y-110959098D01*
X149698282Y-110974128D01*
X149530066Y-110976942D01*
X149446427Y-110976588D01*
X149063635Y-110974600D01*
X149204727Y-110857059D01*
X149397416Y-110754643D01*
X149582884Y-110763181D01*
X149721047Y-110859047D01*
X149774296Y-110923517D01*
X150232974Y-110923517D01*
X150226228Y-110881481D01*
X150093765Y-110638936D01*
X149905830Y-110468677D01*
X149649266Y-110359978D01*
X149383228Y-110345724D01*
X149130948Y-110413901D01*
G36*
X153072750Y-109728649D02*
G01*
X152824225Y-109747310D01*
X152666849Y-109784400D01*
X152586589Y-109844819D01*
X152569412Y-109933468D01*
X152587843Y-110016322D01*
X152641695Y-110095321D01*
X152759625Y-110137787D01*
X152906545Y-110153661D01*
X153187400Y-110171753D01*
X153217282Y-111038341D01*
X153247165Y-111904930D01*
X153403883Y-111923104D01*
X153547761Y-111902952D01*
X153598118Y-111843510D01*
X153612074Y-111749509D01*
X153623677Y-111561589D01*
X153631853Y-111305352D01*
X153635533Y-111006401D01*
X153635635Y-110947081D01*
X153635635Y-110148420D01*
X153913396Y-110130204D01*
X154130555Y-110090254D01*
X154257480Y-110011208D01*
X154283464Y-109903376D01*
X154237440Y-109818174D01*
X154181644Y-109776856D01*
X154081893Y-109749117D01*
X153917902Y-109732589D01*
X153669383Y-109724904D01*
X153426459Y-109723518D01*
X153072750Y-109728649D01*
G37*
X153072750Y-109728649D02*
X152824225Y-109747310D01*
X152666849Y-109784400D01*
X152586589Y-109844819D01*
X152569412Y-109933468D01*
X152587843Y-110016322D01*
X152641695Y-110095321D01*
X152759625Y-110137787D01*
X152906545Y-110153661D01*
X153187400Y-110171753D01*
X153217282Y-111038341D01*
X153247165Y-111904930D01*
X153403883Y-111923104D01*
X153547761Y-111902952D01*
X153598118Y-111843510D01*
X153612074Y-111749509D01*
X153623677Y-111561589D01*
X153631853Y-111305352D01*
X153635533Y-111006401D01*
X153635635Y-110947081D01*
X153635635Y-110148420D01*
X153913396Y-110130204D01*
X154130555Y-110090254D01*
X154257480Y-110011208D01*
X154283464Y-109903376D01*
X154237440Y-109818174D01*
X154181644Y-109776856D01*
X154081893Y-109749117D01*
X153917902Y-109732589D01*
X153669383Y-109724904D01*
X153426459Y-109723518D01*
X153072750Y-109728649D01*
G36*
X141313163Y-99242891D02*
G01*
X141031314Y-99350139D01*
X140787135Y-99543954D01*
X140602946Y-99822866D01*
X140601737Y-99825521D01*
X140559676Y-99934253D01*
X140529369Y-100060548D01*
X140508965Y-100225319D01*
X140496613Y-100449475D01*
X140490462Y-100753930D01*
X140488712Y-101102459D01*
X140487400Y-102133400D01*
X140128812Y-102133400D01*
X139928533Y-102137762D01*
X139820313Y-102156920D01*
X139776816Y-102199988D01*
X139770223Y-102252930D01*
X139783308Y-102319689D01*
X139840783Y-102355763D01*
X139969986Y-102370262D01*
X140128812Y-102372459D01*
X140487400Y-102372459D01*
X140487400Y-104045871D01*
X140128812Y-104045871D01*
X139930077Y-104049034D01*
X139822781Y-104066322D01*
X139778855Y-104109427D01*
X139770231Y-104190046D01*
X139770223Y-104195283D01*
X139777816Y-104278088D01*
X139819305Y-104322795D01*
X139922759Y-104341098D01*
X140116243Y-104344691D01*
X140128812Y-104344694D01*
X140487400Y-104344694D01*
X140487400Y-106018106D01*
X140128812Y-106018106D01*
X139928533Y-106022467D01*
X139820313Y-106041626D01*
X139776816Y-106084694D01*
X139770223Y-106137635D01*
X139783308Y-106204395D01*
X139840783Y-106240468D01*
X139969986Y-106254967D01*
X140128812Y-106257165D01*
X140487400Y-106257165D01*
X140487400Y-107930577D01*
X140128812Y-107930577D01*
X139928533Y-107934938D01*
X139820313Y-107954097D01*
X139776816Y-107997164D01*
X139770223Y-108050106D01*
X139783308Y-108116866D01*
X139840783Y-108152939D01*
X139969986Y-108167438D01*
X140128812Y-108169635D01*
X140487400Y-108169635D01*
X140487400Y-109355181D01*
X140293165Y-109476751D01*
X140038705Y-109691801D01*
X139802126Y-109997641D01*
X139631683Y-110308509D01*
X139541189Y-110603036D01*
X139497448Y-110962426D01*
X139500456Y-111341535D01*
X139550210Y-111695222D01*
X139631828Y-111947794D01*
X139871248Y-112340067D01*
X140187655Y-112667359D01*
X140561825Y-112921483D01*
X140974533Y-113094249D01*
X141406555Y-113177470D01*
X141838668Y-113162958D01*
X142227004Y-113053205D01*
X142676267Y-112816127D01*
X143026150Y-112523072D01*
X143288168Y-112162666D01*
X143422276Y-111872659D01*
X143510034Y-111517923D01*
X143525647Y-111277701D01*
X143192816Y-111277701D01*
X143099958Y-111688554D01*
X142902135Y-112069870D01*
X142624224Y-112384919D01*
X142256608Y-112645515D01*
X141863134Y-112789413D01*
X141443575Y-112816666D01*
X141045232Y-112742023D01*
X140640176Y-112562291D01*
X140304171Y-112285786D01*
X140041486Y-111916187D01*
X140005071Y-111845669D01*
X139902883Y-111624479D01*
X139849135Y-111453661D01*
X139832903Y-111279836D01*
X139842978Y-111053591D01*
X139930137Y-110586899D01*
X140119359Y-110182127D01*
X140409754Y-109840788D01*
X140681635Y-109634734D01*
X140845988Y-109530477D01*
X140845988Y-104810218D01*
X140845852Y-103924425D01*
X140845843Y-103150358D01*
X140846558Y-102480215D01*
X140848595Y-101906196D01*
X140852551Y-101420497D01*
X140859023Y-101015317D01*
X140868610Y-100682854D01*
X140881909Y-100415305D01*
X140899516Y-100204870D01*
X140922031Y-100043746D01*
X140950050Y-99924131D01*
X140984170Y-99838224D01*
X141024990Y-99778222D01*
X141073106Y-99736323D01*
X141129117Y-99704726D01*
X141193620Y-99675628D01*
X141240865Y-99654131D01*
X141445728Y-99578042D01*
X141615623Y-99578621D01*
X141801563Y-99652824D01*
X141865824Y-99684078D01*
X141921951Y-99712200D01*
X141970494Y-99745008D01*
X142012000Y-99790321D01*
X142047019Y-99855958D01*
X142076099Y-99949740D01*
X142099788Y-100079484D01*
X142118635Y-100253010D01*
X142133187Y-100478138D01*
X142143994Y-100762686D01*
X142151604Y-101114473D01*
X142156566Y-101541320D01*
X142159427Y-102051044D01*
X142160736Y-102651466D01*
X142161042Y-103350404D01*
X142160893Y-104155678D01*
X142160812Y-104774810D01*
X142160812Y-109541154D01*
X142325165Y-109627197D01*
X142600232Y-109825795D01*
X142851563Y-110108670D01*
X143047771Y-110440236D01*
X143176743Y-110855525D01*
X143192816Y-111277701D01*
X143525647Y-111277701D01*
X143536490Y-111110884D01*
X143501923Y-110701682D01*
X143413878Y-110359439D01*
X143280914Y-110088715D01*
X143095453Y-109819446D01*
X142886759Y-109588553D01*
X142684100Y-109432962D01*
X142676016Y-109428550D01*
X142519400Y-109344732D01*
X142519400Y-99962490D01*
X142370833Y-99708979D01*
X142161516Y-99455255D01*
X141900585Y-99293978D01*
X141610360Y-99223681D01*
X141313163Y-99242891D01*
G37*
X141313163Y-99242891D02*
X141031314Y-99350139D01*
X140787135Y-99543954D01*
X140602946Y-99822866D01*
X140601737Y-99825521D01*
X140559676Y-99934253D01*
X140529369Y-100060548D01*
X140508965Y-100225319D01*
X140496613Y-100449475D01*
X140490462Y-100753930D01*
X140488712Y-101102459D01*
X140487400Y-102133400D01*
X140128812Y-102133400D01*
X139928533Y-102137762D01*
X139820313Y-102156920D01*
X139776816Y-102199988D01*
X139770223Y-102252930D01*
X139783308Y-102319689D01*
X139840783Y-102355763D01*
X139969986Y-102370262D01*
X140128812Y-102372459D01*
X140487400Y-102372459D01*
X140487400Y-104045871D01*
X140128812Y-104045871D01*
X139930077Y-104049034D01*
X139822781Y-104066322D01*
X139778855Y-104109427D01*
X139770231Y-104190046D01*
X139770223Y-104195283D01*
X139777816Y-104278088D01*
X139819305Y-104322795D01*
X139922759Y-104341098D01*
X140116243Y-104344691D01*
X140128812Y-104344694D01*
X140487400Y-104344694D01*
X140487400Y-106018106D01*
X140128812Y-106018106D01*
X139928533Y-106022467D01*
X139820313Y-106041626D01*
X139776816Y-106084694D01*
X139770223Y-106137635D01*
X139783308Y-106204395D01*
X139840783Y-106240468D01*
X139969986Y-106254967D01*
X140128812Y-106257165D01*
X140487400Y-106257165D01*
X140487400Y-107930577D01*
X140128812Y-107930577D01*
X139928533Y-107934938D01*
X139820313Y-107954097D01*
X139776816Y-107997164D01*
X139770223Y-108050106D01*
X139783308Y-108116866D01*
X139840783Y-108152939D01*
X139969986Y-108167438D01*
X140128812Y-108169635D01*
X140487400Y-108169635D01*
X140487400Y-109355181D01*
X140293165Y-109476751D01*
X140038705Y-109691801D01*
X139802126Y-109997641D01*
X139631683Y-110308509D01*
X139541189Y-110603036D01*
X139497448Y-110962426D01*
X139500456Y-111341535D01*
X139550210Y-111695222D01*
X139631828Y-111947794D01*
X139871248Y-112340067D01*
X140187655Y-112667359D01*
X140561825Y-112921483D01*
X140974533Y-113094249D01*
X141406555Y-113177470D01*
X141838668Y-113162958D01*
X142227004Y-113053205D01*
X142676267Y-112816127D01*
X143026150Y-112523072D01*
X143288168Y-112162666D01*
X143422276Y-111872659D01*
X143510034Y-111517923D01*
X143525647Y-111277701D01*
X143192816Y-111277701D01*
X143099958Y-111688554D01*
X142902135Y-112069870D01*
X142624224Y-112384919D01*
X142256608Y-112645515D01*
X141863134Y-112789413D01*
X141443575Y-112816666D01*
X141045232Y-112742023D01*
X140640176Y-112562291D01*
X140304171Y-112285786D01*
X140041486Y-111916187D01*
X140005071Y-111845669D01*
X139902883Y-111624479D01*
X139849135Y-111453661D01*
X139832903Y-111279836D01*
X139842978Y-111053591D01*
X139930137Y-110586899D01*
X140119359Y-110182127D01*
X140409754Y-109840788D01*
X140681635Y-109634734D01*
X140845988Y-109530477D01*
X140845988Y-104810218D01*
X140845852Y-103924425D01*
X140845843Y-103150358D01*
X140846558Y-102480215D01*
X140848595Y-101906196D01*
X140852551Y-101420497D01*
X140859023Y-101015317D01*
X140868610Y-100682854D01*
X140881909Y-100415305D01*
X140899516Y-100204870D01*
X140922031Y-100043746D01*
X140950050Y-99924131D01*
X140984170Y-99838224D01*
X141024990Y-99778222D01*
X141073106Y-99736323D01*
X141129117Y-99704726D01*
X141193620Y-99675628D01*
X141240865Y-99654131D01*
X141445728Y-99578042D01*
X141615623Y-99578621D01*
X141801563Y-99652824D01*
X141865824Y-99684078D01*
X141921951Y-99712200D01*
X141970494Y-99745008D01*
X142012000Y-99790321D01*
X142047019Y-99855958D01*
X142076099Y-99949740D01*
X142099788Y-100079484D01*
X142118635Y-100253010D01*
X142133187Y-100478138D01*
X142143994Y-100762686D01*
X142151604Y-101114473D01*
X142156566Y-101541320D01*
X142159427Y-102051044D01*
X142160736Y-102651466D01*
X142161042Y-103350404D01*
X142160893Y-104155678D01*
X142160812Y-104774810D01*
X142160812Y-109541154D01*
X142325165Y-109627197D01*
X142600232Y-109825795D01*
X142851563Y-110108670D01*
X143047771Y-110440236D01*
X143176743Y-110855525D01*
X143192816Y-111277701D01*
X143525647Y-111277701D01*
X143536490Y-111110884D01*
X143501923Y-110701682D01*
X143413878Y-110359439D01*
X143280914Y-110088715D01*
X143095453Y-109819446D01*
X142886759Y-109588553D01*
X142684100Y-109432962D01*
X142676016Y-109428550D01*
X142519400Y-109344732D01*
X142519400Y-99962490D01*
X142370833Y-99708979D01*
X142161516Y-99455255D01*
X141900585Y-99293978D01*
X141610360Y-99223681D01*
X141313163Y-99242891D01*
G36*
X143664896Y-122188918D02*
G01*
X143609439Y-122216568D01*
X143560492Y-122267480D01*
X143547011Y-122286338D01*
X143532326Y-122311015D01*
X143522798Y-122337816D01*
X143517347Y-122373587D01*
X143514893Y-122425169D01*
X143514354Y-122493267D01*
X143516788Y-122586588D01*
X143525246Y-122656657D01*
X143541466Y-122708931D01*
X143567186Y-122748869D01*
X143604143Y-122781929D01*
X143606858Y-122783886D01*
X143643280Y-122803908D01*
X143687138Y-122813815D01*
X143742916Y-122816257D01*
X143833592Y-122816257D01*
X143833630Y-122904283D01*
X143834474Y-122953308D01*
X143839616Y-122982065D01*
X143853053Y-122999311D01*
X143878782Y-123013808D01*
X143884961Y-123016769D01*
X143913876Y-123030648D01*
X143936264Y-123039414D01*
X143952911Y-123040171D01*
X143964604Y-123030023D01*
X143972130Y-123006073D01*
X143976274Y-122965426D01*
X143977825Y-122905186D01*
X143977569Y-122822455D01*
X143976291Y-122714339D01*
X143975892Y-122682000D01*
X143974455Y-122570524D01*
X143973168Y-122497603D01*
X143833669Y-122497603D01*
X143832885Y-122559499D01*
X143829400Y-122599997D01*
X143821516Y-122626708D01*
X143807535Y-122647244D01*
X143798043Y-122657260D01*
X143759236Y-122686567D01*
X143724877Y-122688952D01*
X143689424Y-122664750D01*
X143688526Y-122663857D01*
X143674101Y-122645153D01*
X143665327Y-122619732D01*
X143660901Y-122580584D01*
X143659522Y-122520697D01*
X143659497Y-122507430D01*
X143662828Y-122424901D01*
X143673671Y-122367691D01*
X143693300Y-122332766D01*
X143722990Y-122317094D01*
X143740149Y-122315514D01*
X143780874Y-122322926D01*
X143808808Y-122347330D01*
X143825623Y-122391980D01*
X143832990Y-122460130D01*
X143833669Y-122497603D01*
X143973168Y-122497603D01*
X143972932Y-122484245D01*
X143970963Y-122419333D01*
X143968190Y-122371958D01*
X143964252Y-122338290D01*
X143958791Y-122314498D01*
X143951448Y-122296753D01*
X143941863Y-122281224D01*
X143937753Y-122275381D01*
X143883235Y-122220185D01*
X143814304Y-122188890D01*
X143734568Y-122180165D01*
X143664896Y-122188918D01*
G37*
X143664896Y-122188918D02*
X143609439Y-122216568D01*
X143560492Y-122267480D01*
X143547011Y-122286338D01*
X143532326Y-122311015D01*
X143522798Y-122337816D01*
X143517347Y-122373587D01*
X143514893Y-122425169D01*
X143514354Y-122493267D01*
X143516788Y-122586588D01*
X143525246Y-122656657D01*
X143541466Y-122708931D01*
X143567186Y-122748869D01*
X143604143Y-122781929D01*
X143606858Y-122783886D01*
X143643280Y-122803908D01*
X143687138Y-122813815D01*
X143742916Y-122816257D01*
X143833592Y-122816257D01*
X143833630Y-122904283D01*
X143834474Y-122953308D01*
X143839616Y-122982065D01*
X143853053Y-122999311D01*
X143878782Y-123013808D01*
X143884961Y-123016769D01*
X143913876Y-123030648D01*
X143936264Y-123039414D01*
X143952911Y-123040171D01*
X143964604Y-123030023D01*
X143972130Y-123006073D01*
X143976274Y-122965426D01*
X143977825Y-122905186D01*
X143977569Y-122822455D01*
X143976291Y-122714339D01*
X143975892Y-122682000D01*
X143974455Y-122570524D01*
X143973168Y-122497603D01*
X143833669Y-122497603D01*
X143832885Y-122559499D01*
X143829400Y-122599997D01*
X143821516Y-122626708D01*
X143807535Y-122647244D01*
X143798043Y-122657260D01*
X143759236Y-122686567D01*
X143724877Y-122688952D01*
X143689424Y-122664750D01*
X143688526Y-122663857D01*
X143674101Y-122645153D01*
X143665327Y-122619732D01*
X143660901Y-122580584D01*
X143659522Y-122520697D01*
X143659497Y-122507430D01*
X143662828Y-122424901D01*
X143673671Y-122367691D01*
X143693300Y-122332766D01*
X143722990Y-122317094D01*
X143740149Y-122315514D01*
X143780874Y-122322926D01*
X143808808Y-122347330D01*
X143825623Y-122391980D01*
X143832990Y-122460130D01*
X143833669Y-122497603D01*
X143973168Y-122497603D01*
X143972932Y-122484245D01*
X143970963Y-122419333D01*
X143968190Y-122371958D01*
X143964252Y-122338290D01*
X143958791Y-122314498D01*
X143951448Y-122296753D01*
X143941863Y-122281224D01*
X143937753Y-122275381D01*
X143883235Y-122220185D01*
X143814304Y-122188890D01*
X143734568Y-122180165D01*
X143664896Y-122188918D01*
G36*
X142548547Y-122196780D02*
G01*
X142501968Y-122223723D01*
X142469583Y-122250466D01*
X142445898Y-122278484D01*
X142429581Y-122312748D01*
X142419301Y-122358227D01*
X142413726Y-122419892D01*
X142411524Y-122502711D01*
X142411269Y-122562246D01*
X142411269Y-122781391D01*
X142472954Y-122809044D01*
X142534640Y-122836697D01*
X142541897Y-122596670D01*
X142544896Y-122507028D01*
X142548042Y-122441962D01*
X142551939Y-122397026D01*
X142557193Y-122367770D01*
X142564409Y-122349748D01*
X142574190Y-122338511D01*
X142577328Y-122336079D01*
X142624879Y-122317083D01*
X142672943Y-122324600D01*
X142701554Y-122344543D01*
X142713193Y-122358675D01*
X142721249Y-122377220D01*
X142726369Y-122405334D01*
X142729199Y-122448173D01*
X142730384Y-122510895D01*
X142730583Y-122576261D01*
X142730622Y-122658268D01*
X142732026Y-122716316D01*
X142736726Y-122755465D01*
X142746653Y-122780780D01*
X142763737Y-122797323D01*
X142789908Y-122810156D01*
X142824865Y-122823491D01*
X142863044Y-122838007D01*
X142858499Y-122580389D01*
X142856669Y-122487519D01*
X142854528Y-122418889D01*
X142851459Y-122369711D01*
X142846846Y-122335198D01*
X142840072Y-122310562D01*
X142830521Y-122291016D01*
X142819006Y-122273770D01*
X142763450Y-122218680D01*
X142695660Y-122186822D01*
X142621927Y-122179191D01*
X142548547Y-122196780D01*
G37*
X142548547Y-122196780D02*
X142501968Y-122223723D01*
X142469583Y-122250466D01*
X142445898Y-122278484D01*
X142429581Y-122312748D01*
X142419301Y-122358227D01*
X142413726Y-122419892D01*
X142411524Y-122502711D01*
X142411269Y-122562246D01*
X142411269Y-122781391D01*
X142472954Y-122809044D01*
X142534640Y-122836697D01*
X142541897Y-122596670D01*
X142544896Y-122507028D01*
X142548042Y-122441962D01*
X142551939Y-122397026D01*
X142557193Y-122367770D01*
X142564409Y-122349748D01*
X142574190Y-122338511D01*
X142577328Y-122336079D01*
X142624879Y-122317083D01*
X142672943Y-122324600D01*
X142701554Y-122344543D01*
X142713193Y-122358675D01*
X142721249Y-122377220D01*
X142726369Y-122405334D01*
X142729199Y-122448173D01*
X142730384Y-122510895D01*
X142730583Y-122576261D01*
X142730622Y-122658268D01*
X142732026Y-122716316D01*
X142736726Y-122755465D01*
X142746653Y-122780780D01*
X142763737Y-122797323D01*
X142789908Y-122810156D01*
X142824865Y-122823491D01*
X142863044Y-122838007D01*
X142858499Y-122580389D01*
X142856669Y-122487519D01*
X142854528Y-122418889D01*
X142851459Y-122369711D01*
X142846846Y-122335198D01*
X142840072Y-122310562D01*
X142830521Y-122291016D01*
X142819006Y-122273770D01*
X142763450Y-122218680D01*
X142695660Y-122186822D01*
X142621927Y-122179191D01*
X142548547Y-122196780D01*
G36*
X144223525Y-122190962D02*
G01*
X144155495Y-122226733D01*
X144105289Y-122284301D01*
X144087455Y-122321312D01*
X144073577Y-122376882D01*
X144066473Y-122447096D01*
X144065800Y-122523727D01*
X144071213Y-122598552D01*
X144082370Y-122663342D01*
X144098926Y-122709873D01*
X144104014Y-122717887D01*
X144164285Y-122777707D01*
X144235871Y-122813535D01*
X144313548Y-122824020D01*
X144392092Y-122807810D01*
X144413951Y-122798092D01*
X144456518Y-122768143D01*
X144493877Y-122728433D01*
X144497408Y-122723397D01*
X144511759Y-122699124D01*
X144521246Y-122673178D01*
X144526850Y-122639022D01*
X144529554Y-122590119D01*
X144530341Y-122519935D01*
X144530354Y-122504200D01*
X144530318Y-122499192D01*
X144385211Y-122499192D01*
X144384367Y-122565430D01*
X144381044Y-122609386D01*
X144374057Y-122637779D01*
X144362224Y-122657325D01*
X144356183Y-122663857D01*
X144321454Y-122688680D01*
X144287737Y-122687548D01*
X144253645Y-122666016D01*
X144233311Y-122643029D01*
X144221269Y-122609478D01*
X144214506Y-122556569D01*
X144214042Y-122550399D01*
X144212888Y-122454513D01*
X144224952Y-122383299D01*
X144250070Y-122337194D01*
X144288080Y-122316635D01*
X144301648Y-122315514D01*
X144337276Y-122321152D01*
X144361646Y-122340686D01*
X144376547Y-122378042D01*
X144383765Y-122437150D01*
X144385211Y-122499192D01*
X144530318Y-122499192D01*
X144529814Y-122429413D01*
X144527544Y-122377159D01*
X144522572Y-122340949D01*
X144513927Y-122314299D01*
X144500635Y-122290722D01*
X144497697Y-122286338D01*
X144448327Y-122227249D01*
X144394531Y-122192947D01*
X144329038Y-122179331D01*
X144306798Y-122178665D01*
X144223525Y-122190962D01*
G37*
X144223525Y-122190962D02*
X144155495Y-122226733D01*
X144105289Y-122284301D01*
X144087455Y-122321312D01*
X144073577Y-122376882D01*
X144066473Y-122447096D01*
X144065800Y-122523727D01*
X144071213Y-122598552D01*
X144082370Y-122663342D01*
X144098926Y-122709873D01*
X144104014Y-122717887D01*
X144164285Y-122777707D01*
X144235871Y-122813535D01*
X144313548Y-122824020D01*
X144392092Y-122807810D01*
X144413951Y-122798092D01*
X144456518Y-122768143D01*
X144493877Y-122728433D01*
X144497408Y-122723397D01*
X144511759Y-122699124D01*
X144521246Y-122673178D01*
X144526850Y-122639022D01*
X144529554Y-122590119D01*
X144530341Y-122519935D01*
X144530354Y-122504200D01*
X144530318Y-122499192D01*
X144385211Y-122499192D01*
X144384367Y-122565430D01*
X144381044Y-122609386D01*
X144374057Y-122637779D01*
X144362224Y-122657325D01*
X144356183Y-122663857D01*
X144321454Y-122688680D01*
X144287737Y-122687548D01*
X144253645Y-122666016D01*
X144233311Y-122643029D01*
X144221269Y-122609478D01*
X144214506Y-122556569D01*
X144214042Y-122550399D01*
X144212888Y-122454513D01*
X144224952Y-122383299D01*
X144250070Y-122337194D01*
X144288080Y-122316635D01*
X144301648Y-122315514D01*
X144337276Y-122321152D01*
X144361646Y-122340686D01*
X144376547Y-122378042D01*
X144383765Y-122437150D01*
X144385211Y-122499192D01*
X144530318Y-122499192D01*
X144529814Y-122429413D01*
X144527544Y-122377159D01*
X144522572Y-122340949D01*
X144513927Y-122314299D01*
X144500635Y-122290722D01*
X144497697Y-122286338D01*
X144448327Y-122227249D01*
X144394531Y-122192947D01*
X144329038Y-122179331D01*
X144306798Y-122178665D01*
X144223525Y-122190962D01*
G36*
X143096337Y-122200239D02*
G01*
X143039113Y-122238735D01*
X142994891Y-122294335D01*
X142968473Y-122365086D01*
X142963130Y-122417162D01*
X142963737Y-122438893D01*
X142968818Y-122455531D01*
X142982785Y-122470437D01*
X143010051Y-122486973D01*
X143055028Y-122508498D01*
X143122129Y-122538374D01*
X143122469Y-122538524D01*
X143184233Y-122566813D01*
X143234881Y-122591933D01*
X143269236Y-122611179D01*
X143282122Y-122621848D01*
X143282126Y-122621934D01*
X143270768Y-122645166D01*
X143244209Y-122670774D01*
X143213717Y-122689221D01*
X143198270Y-122692886D01*
X143156125Y-122680212D01*
X143119832Y-122648471D01*
X143102123Y-122613572D01*
X143085088Y-122587845D01*
X143051718Y-122558546D01*
X143012491Y-122533235D01*
X142977884Y-122519471D01*
X142970647Y-122518714D01*
X142962501Y-122531160D01*
X142962010Y-122562972D01*
X142967997Y-122605866D01*
X142979283Y-122651558D01*
X142994690Y-122691761D01*
X142995469Y-122693322D01*
X143041836Y-122758062D01*
X143101929Y-122802097D01*
X143170175Y-122823711D01*
X143241002Y-122821185D01*
X143308836Y-122792804D01*
X143311852Y-122790808D01*
X143365213Y-122742448D01*
X143400300Y-122679352D01*
X143419718Y-122596387D01*
X143422324Y-122573078D01*
X143426939Y-122463055D01*
X143421407Y-122411748D01*
X143282126Y-122411748D01*
X143280316Y-122443753D01*
X143270418Y-122453093D01*
X143245742Y-122446105D01*
X143206845Y-122429587D01*
X143163365Y-122408881D01*
X143162284Y-122408333D01*
X143125431Y-122388949D01*
X143110640Y-122376013D01*
X143114287Y-122362451D01*
X143129645Y-122344632D01*
X143168717Y-122318845D01*
X143210794Y-122316950D01*
X143248537Y-122335717D01*
X143274606Y-122371915D01*
X143282126Y-122411748D01*
X143421407Y-122411748D01*
X143417446Y-122375027D01*
X143393090Y-122305212D01*
X143359184Y-122256302D01*
X143297987Y-122206878D01*
X143230577Y-122182359D01*
X143161760Y-122180797D01*
X143096337Y-122200239D01*
G37*
X143096337Y-122200239D02*
X143039113Y-122238735D01*
X142994891Y-122294335D01*
X142968473Y-122365086D01*
X142963130Y-122417162D01*
X142963737Y-122438893D01*
X142968818Y-122455531D01*
X142982785Y-122470437D01*
X143010051Y-122486973D01*
X143055028Y-122508498D01*
X143122129Y-122538374D01*
X143122469Y-122538524D01*
X143184233Y-122566813D01*
X143234881Y-122591933D01*
X143269236Y-122611179D01*
X143282122Y-122621848D01*
X143282126Y-122621934D01*
X143270768Y-122645166D01*
X143244209Y-122670774D01*
X143213717Y-122689221D01*
X143198270Y-122692886D01*
X143156125Y-122680212D01*
X143119832Y-122648471D01*
X143102123Y-122613572D01*
X143085088Y-122587845D01*
X143051718Y-122558546D01*
X143012491Y-122533235D01*
X142977884Y-122519471D01*
X142970647Y-122518714D01*
X142962501Y-122531160D01*
X142962010Y-122562972D01*
X142967997Y-122605866D01*
X142979283Y-122651558D01*
X142994690Y-122691761D01*
X142995469Y-122693322D01*
X143041836Y-122758062D01*
X143101929Y-122802097D01*
X143170175Y-122823711D01*
X143241002Y-122821185D01*
X143308836Y-122792804D01*
X143311852Y-122790808D01*
X143365213Y-122742448D01*
X143400300Y-122679352D01*
X143419718Y-122596387D01*
X143422324Y-122573078D01*
X143426939Y-122463055D01*
X143421407Y-122411748D01*
X143282126Y-122411748D01*
X143280316Y-122443753D01*
X143270418Y-122453093D01*
X143245742Y-122446105D01*
X143206845Y-122429587D01*
X143163365Y-122408881D01*
X143162284Y-122408333D01*
X143125431Y-122388949D01*
X143110640Y-122376013D01*
X143114287Y-122362451D01*
X143129645Y-122344632D01*
X143168717Y-122318845D01*
X143210794Y-122316950D01*
X143248537Y-122335717D01*
X143274606Y-122371915D01*
X143282126Y-122411748D01*
X143421407Y-122411748D01*
X143417446Y-122375027D01*
X143393090Y-122305212D01*
X143359184Y-122256302D01*
X143297987Y-122206878D01*
X143230577Y-122182359D01*
X143161760Y-122180797D01*
X143096337Y-122200239D01*
G36*
X141888754Y-122120289D02*
G01*
X141884501Y-122179613D01*
X141879615Y-122214572D01*
X141872845Y-122229820D01*
X141862938Y-122230015D01*
X141859726Y-122228195D01*
X141816996Y-122215015D01*
X141761413Y-122215785D01*
X141704903Y-122229333D01*
X141669558Y-122246861D01*
X141633319Y-122274861D01*
X141606827Y-122306549D01*
X141588641Y-122346813D01*
X141577318Y-122400543D01*
X141571418Y-122472626D01*
X141569497Y-122567951D01*
X141569463Y-122586237D01*
X141569440Y-122791646D01*
X141615149Y-122807580D01*
X141647613Y-122818420D01*
X141665425Y-122823468D01*
X141665949Y-122823514D01*
X141667703Y-122809828D01*
X141669196Y-122772076D01*
X141670314Y-122715224D01*
X141670943Y-122644234D01*
X141671040Y-122601073D01*
X141671242Y-122515973D01*
X141672282Y-122454981D01*
X141674809Y-122413177D01*
X141679476Y-122385642D01*
X141686933Y-122367456D01*
X141697829Y-122353698D01*
X141704633Y-122347073D01*
X141751368Y-122320375D01*
X141802368Y-122318375D01*
X141848639Y-122340955D01*
X141857196Y-122349107D01*
X141869747Y-122364436D01*
X141878452Y-122382618D01*
X141884009Y-122408909D01*
X141887114Y-122448562D01*
X141888464Y-122506832D01*
X141888754Y-122587173D01*
X141888754Y-122791646D01*
X141934463Y-122807580D01*
X141966927Y-122818420D01*
X141984739Y-122823468D01*
X141985263Y-122823514D01*
X141986603Y-122809623D01*
X141987812Y-122770439D01*
X141988839Y-122709700D01*
X141989638Y-122631141D01*
X141990159Y-122538498D01*
X141990354Y-122435509D01*
X141990354Y-122038342D01*
X141943183Y-122018444D01*
X141896011Y-121998547D01*
X141888754Y-122120289D01*
G37*
X141888754Y-122120289D02*
X141884501Y-122179613D01*
X141879615Y-122214572D01*
X141872845Y-122229820D01*
X141862938Y-122230015D01*
X141859726Y-122228195D01*
X141816996Y-122215015D01*
X141761413Y-122215785D01*
X141704903Y-122229333D01*
X141669558Y-122246861D01*
X141633319Y-122274861D01*
X141606827Y-122306549D01*
X141588641Y-122346813D01*
X141577318Y-122400543D01*
X141571418Y-122472626D01*
X141569497Y-122567951D01*
X141569463Y-122586237D01*
X141569440Y-122791646D01*
X141615149Y-122807580D01*
X141647613Y-122818420D01*
X141665425Y-122823468D01*
X141665949Y-122823514D01*
X141667703Y-122809828D01*
X141669196Y-122772076D01*
X141670314Y-122715224D01*
X141670943Y-122644234D01*
X141671040Y-122601073D01*
X141671242Y-122515973D01*
X141672282Y-122454981D01*
X141674809Y-122413177D01*
X141679476Y-122385642D01*
X141686933Y-122367456D01*
X141697829Y-122353698D01*
X141704633Y-122347073D01*
X141751368Y-122320375D01*
X141802368Y-122318375D01*
X141848639Y-122340955D01*
X141857196Y-122349107D01*
X141869747Y-122364436D01*
X141878452Y-122382618D01*
X141884009Y-122408909D01*
X141887114Y-122448562D01*
X141888464Y-122506832D01*
X141888754Y-122587173D01*
X141888754Y-122791646D01*
X141934463Y-122807580D01*
X141966927Y-122818420D01*
X141984739Y-122823468D01*
X141985263Y-122823514D01*
X141986603Y-122809623D01*
X141987812Y-122770439D01*
X141988839Y-122709700D01*
X141989638Y-122631141D01*
X141990159Y-122538498D01*
X141990354Y-122435509D01*
X141990354Y-122038342D01*
X141943183Y-122018444D01*
X141896011Y-121998547D01*
X141888754Y-122120289D01*
G36*
X141224896Y-122219968D02*
G01*
X141168024Y-122241087D01*
X141167373Y-122241493D01*
X141132200Y-122267380D01*
X141106233Y-122297633D01*
X141087970Y-122337058D01*
X141075908Y-122390462D01*
X141068544Y-122462651D01*
X141064376Y-122558432D01*
X141064011Y-122572078D01*
X141058764Y-122777842D01*
X141102924Y-122800678D01*
X141134877Y-122816110D01*
X141154170Y-122823423D01*
X141155062Y-122823514D01*
X141158401Y-122810022D01*
X141161053Y-122773626D01*
X141162684Y-122720452D01*
X141163040Y-122677393D01*
X141163048Y-122607641D01*
X141166237Y-122563837D01*
X141177352Y-122542944D01*
X141201139Y-122541925D01*
X141242344Y-122557741D01*
X141304554Y-122586815D01*
X141350299Y-122610963D01*
X141373827Y-122631913D01*
X141380744Y-122654747D01*
X141380754Y-122655877D01*
X141369341Y-122695212D01*
X141335548Y-122716462D01*
X141283831Y-122719539D01*
X141246579Y-122719006D01*
X141226937Y-122729735D01*
X141214688Y-122755505D01*
X141207638Y-122788337D01*
X141217798Y-122806966D01*
X141221623Y-122809632D01*
X141257639Y-122820340D01*
X141308074Y-122821856D01*
X141360014Y-122814759D01*
X141396818Y-122801788D01*
X141447702Y-122758585D01*
X141476626Y-122698446D01*
X141482354Y-122651462D01*
X141477983Y-122609082D01*
X141462165Y-122574488D01*
X141430843Y-122543763D01*
X141379962Y-122512990D01*
X141305464Y-122478252D01*
X141300926Y-122476288D01*
X141233819Y-122445287D01*
X141192408Y-122419862D01*
X141174659Y-122397014D01*
X141178533Y-122373745D01*
X141201997Y-122347056D01*
X141209013Y-122340914D01*
X141256010Y-122317100D01*
X141304707Y-122318103D01*
X141347118Y-122341451D01*
X141375256Y-122384675D01*
X141377871Y-122393160D01*
X141403332Y-122434308D01*
X141435639Y-122454128D01*
X141482354Y-122473770D01*
X141482354Y-122422950D01*
X141468144Y-122349082D01*
X141425965Y-122281327D01*
X141404016Y-122258661D01*
X141354123Y-122229569D01*
X141290673Y-122216400D01*
X141224896Y-122219968D01*
G37*
X141224896Y-122219968D02*
X141168024Y-122241087D01*
X141167373Y-122241493D01*
X141132200Y-122267380D01*
X141106233Y-122297633D01*
X141087970Y-122337058D01*
X141075908Y-122390462D01*
X141068544Y-122462651D01*
X141064376Y-122558432D01*
X141064011Y-122572078D01*
X141058764Y-122777842D01*
X141102924Y-122800678D01*
X141134877Y-122816110D01*
X141154170Y-122823423D01*
X141155062Y-122823514D01*
X141158401Y-122810022D01*
X141161053Y-122773626D01*
X141162684Y-122720452D01*
X141163040Y-122677393D01*
X141163048Y-122607641D01*
X141166237Y-122563837D01*
X141177352Y-122542944D01*
X141201139Y-122541925D01*
X141242344Y-122557741D01*
X141304554Y-122586815D01*
X141350299Y-122610963D01*
X141373827Y-122631913D01*
X141380744Y-122654747D01*
X141380754Y-122655877D01*
X141369341Y-122695212D01*
X141335548Y-122716462D01*
X141283831Y-122719539D01*
X141246579Y-122719006D01*
X141226937Y-122729735D01*
X141214688Y-122755505D01*
X141207638Y-122788337D01*
X141217798Y-122806966D01*
X141221623Y-122809632D01*
X141257639Y-122820340D01*
X141308074Y-122821856D01*
X141360014Y-122814759D01*
X141396818Y-122801788D01*
X141447702Y-122758585D01*
X141476626Y-122698446D01*
X141482354Y-122651462D01*
X141477983Y-122609082D01*
X141462165Y-122574488D01*
X141430843Y-122543763D01*
X141379962Y-122512990D01*
X141305464Y-122478252D01*
X141300926Y-122476288D01*
X141233819Y-122445287D01*
X141192408Y-122419862D01*
X141174659Y-122397014D01*
X141178533Y-122373745D01*
X141201997Y-122347056D01*
X141209013Y-122340914D01*
X141256010Y-122317100D01*
X141304707Y-122318103D01*
X141347118Y-122341451D01*
X141375256Y-122384675D01*
X141377871Y-122393160D01*
X141403332Y-122434308D01*
X141435639Y-122454128D01*
X141482354Y-122473770D01*
X141482354Y-122422950D01*
X141468144Y-122349082D01*
X141425965Y-122281327D01*
X141404016Y-122258661D01*
X141354123Y-122229569D01*
X141290673Y-122216400D01*
X141224896Y-122219968D01*
G36*
X140734714Y-122218755D02*
G01*
X140668782Y-122243084D01*
X140615367Y-122286117D01*
X140594476Y-122316409D01*
X140571701Y-122371994D01*
X140572174Y-122412186D01*
X140596078Y-122439217D01*
X140604923Y-122443813D01*
X140643110Y-122458144D01*
X140662612Y-122454472D01*
X140669218Y-122430407D01*
X140669554Y-122417114D01*
X140681648Y-122368210D01*
X140713169Y-122333999D01*
X140756981Y-122317476D01*
X140805945Y-122321634D01*
X140845746Y-122343227D01*
X140859190Y-122355544D01*
X140868719Y-122370487D01*
X140875155Y-122393075D01*
X140879323Y-122428328D01*
X140882043Y-122481266D01*
X140884138Y-122556907D01*
X140884680Y-122580857D01*
X140886659Y-122662790D01*
X140888909Y-122720455D01*
X140892283Y-122758608D01*
X140897634Y-122782004D01*
X140905816Y-122795398D01*
X140917681Y-122803545D01*
X140925278Y-122807144D01*
X140957538Y-122819452D01*
X140976529Y-122823514D01*
X140982804Y-122809948D01*
X140986634Y-122768934D01*
X140988040Y-122699999D01*
X140987042Y-122602669D01*
X140986732Y-122587657D01*
X140984539Y-122498859D01*
X140981947Y-122434019D01*
X140978258Y-122388067D01*
X140972776Y-122355935D01*
X140964805Y-122332553D01*
X140953647Y-122312852D01*
X140947810Y-122304410D01*
X140914344Y-122267057D01*
X140876913Y-122238003D01*
X140872331Y-122235467D01*
X140805214Y-122215443D01*
X140734714Y-122218755D01*
G37*
X140734714Y-122218755D02*
X140668782Y-122243084D01*
X140615367Y-122286117D01*
X140594476Y-122316409D01*
X140571701Y-122371994D01*
X140572174Y-122412186D01*
X140596078Y-122439217D01*
X140604923Y-122443813D01*
X140643110Y-122458144D01*
X140662612Y-122454472D01*
X140669218Y-122430407D01*
X140669554Y-122417114D01*
X140681648Y-122368210D01*
X140713169Y-122333999D01*
X140756981Y-122317476D01*
X140805945Y-122321634D01*
X140845746Y-122343227D01*
X140859190Y-122355544D01*
X140868719Y-122370487D01*
X140875155Y-122393075D01*
X140879323Y-122428328D01*
X140882043Y-122481266D01*
X140884138Y-122556907D01*
X140884680Y-122580857D01*
X140886659Y-122662790D01*
X140888909Y-122720455D01*
X140892283Y-122758608D01*
X140897634Y-122782004D01*
X140905816Y-122795398D01*
X140917681Y-122803545D01*
X140925278Y-122807144D01*
X140957538Y-122819452D01*
X140976529Y-122823514D01*
X140982804Y-122809948D01*
X140986634Y-122768934D01*
X140988040Y-122699999D01*
X140987042Y-122602669D01*
X140986732Y-122587657D01*
X140984539Y-122498859D01*
X140981947Y-122434019D01*
X140978258Y-122388067D01*
X140972776Y-122355935D01*
X140964805Y-122332553D01*
X140953647Y-122312852D01*
X140947810Y-122304410D01*
X140914344Y-122267057D01*
X140876913Y-122238003D01*
X140872331Y-122235467D01*
X140805214Y-122215443D01*
X140734714Y-122218755D01*
G36*
X140074523Y-122334358D02*
G01*
X140074707Y-122442837D01*
X140075421Y-122526287D01*
X140076965Y-122588704D01*
X140079639Y-122634085D01*
X140083746Y-122666429D01*
X140089585Y-122689733D01*
X140097458Y-122707995D01*
X140103419Y-122718418D01*
X140152785Y-122774945D01*
X140215376Y-122810377D01*
X140284627Y-122823090D01*
X140353972Y-122811463D01*
X140395265Y-122790568D01*
X140438615Y-122754422D01*
X140468159Y-122710276D01*
X140485985Y-122652462D01*
X140494177Y-122575313D01*
X140495338Y-122518714D01*
X140495182Y-122514647D01*
X140393783Y-122514647D01*
X140393164Y-122579550D01*
X140390326Y-122622514D01*
X140383800Y-122650622D01*
X140372117Y-122670953D01*
X140358157Y-122686288D01*
X140311275Y-122715890D01*
X140260939Y-122718419D01*
X140213364Y-122693705D01*
X140209661Y-122690356D01*
X140193857Y-122672935D01*
X140183947Y-122652209D01*
X140178582Y-122621362D01*
X140176412Y-122573577D01*
X140176069Y-122520748D01*
X140176813Y-122454381D01*
X140179892Y-122410106D01*
X140186579Y-122381009D01*
X140198144Y-122360173D01*
X140207627Y-122349107D01*
X140251680Y-122321198D01*
X140302416Y-122317843D01*
X140350844Y-122339159D01*
X140360190Y-122347073D01*
X140376100Y-122364647D01*
X140386030Y-122385587D01*
X140391362Y-122416782D01*
X140393477Y-122465122D01*
X140393783Y-122514647D01*
X140495182Y-122514647D01*
X140491830Y-122427568D01*
X140479914Y-122359086D01*
X140457505Y-122307600D01*
X140422516Y-122267443D01*
X140395265Y-122246861D01*
X140345733Y-122224625D01*
X140288324Y-122214304D01*
X140234958Y-122217067D01*
X140205097Y-122228212D01*
X140193379Y-122231383D01*
X140185603Y-122219557D01*
X140180175Y-122187866D01*
X140176069Y-122139593D01*
X140171573Y-122085829D01*
X140165327Y-122053482D01*
X140153964Y-122034985D01*
X140134112Y-122022770D01*
X140121640Y-122017362D01*
X140074469Y-121997601D01*
X140074523Y-122334358D01*
G37*
X140074523Y-122334358D02*
X140074707Y-122442837D01*
X140075421Y-122526287D01*
X140076965Y-122588704D01*
X140079639Y-122634085D01*
X140083746Y-122666429D01*
X140089585Y-122689733D01*
X140097458Y-122707995D01*
X140103419Y-122718418D01*
X140152785Y-122774945D01*
X140215376Y-122810377D01*
X140284627Y-122823090D01*
X140353972Y-122811463D01*
X140395265Y-122790568D01*
X140438615Y-122754422D01*
X140468159Y-122710276D01*
X140485985Y-122652462D01*
X140494177Y-122575313D01*
X140495338Y-122518714D01*
X140495182Y-122514647D01*
X140393783Y-122514647D01*
X140393164Y-122579550D01*
X140390326Y-122622514D01*
X140383800Y-122650622D01*
X140372117Y-122670953D01*
X140358157Y-122686288D01*
X140311275Y-122715890D01*
X140260939Y-122718419D01*
X140213364Y-122693705D01*
X140209661Y-122690356D01*
X140193857Y-122672935D01*
X140183947Y-122652209D01*
X140178582Y-122621362D01*
X140176412Y-122573577D01*
X140176069Y-122520748D01*
X140176813Y-122454381D01*
X140179892Y-122410106D01*
X140186579Y-122381009D01*
X140198144Y-122360173D01*
X140207627Y-122349107D01*
X140251680Y-122321198D01*
X140302416Y-122317843D01*
X140350844Y-122339159D01*
X140360190Y-122347073D01*
X140376100Y-122364647D01*
X140386030Y-122385587D01*
X140391362Y-122416782D01*
X140393477Y-122465122D01*
X140393783Y-122514647D01*
X140495182Y-122514647D01*
X140491830Y-122427568D01*
X140479914Y-122359086D01*
X140457505Y-122307600D01*
X140422516Y-122267443D01*
X140395265Y-122246861D01*
X140345733Y-122224625D01*
X140288324Y-122214304D01*
X140234958Y-122217067D01*
X140205097Y-122228212D01*
X140193379Y-122231383D01*
X140185603Y-122219557D01*
X140180175Y-122187866D01*
X140176069Y-122139593D01*
X140171573Y-122085829D01*
X140165327Y-122053482D01*
X140153964Y-122034985D01*
X140134112Y-122022770D01*
X140121640Y-122017362D01*
X140074469Y-121997601D01*
X140074523Y-122334358D01*
G36*
X139484807Y-122227663D02*
G01*
X139482592Y-122265850D01*
X139480856Y-122323886D01*
X139479741Y-122397180D01*
X139479383Y-122474055D01*
X139479383Y-122734196D01*
X139525314Y-122780127D01*
X139556965Y-122808429D01*
X139584750Y-122819893D01*
X139622725Y-122819168D01*
X139637800Y-122817321D01*
X139684914Y-122811948D01*
X139723884Y-122808869D01*
X139733383Y-122808585D01*
X139765407Y-122810445D01*
X139811208Y-122815114D01*
X139828966Y-122817321D01*
X139872583Y-122820735D01*
X139901895Y-122813320D01*
X139930960Y-122790427D01*
X139941452Y-122780127D01*
X139987383Y-122734196D01*
X139987383Y-122247602D01*
X139950414Y-122230758D01*
X139918581Y-122218282D01*
X139899957Y-122213914D01*
X139895182Y-122227718D01*
X139890719Y-122266286D01*
X139886865Y-122325356D01*
X139883918Y-122400663D01*
X139882497Y-122464286D01*
X139878526Y-122714657D01*
X139843881Y-122719556D01*
X139812372Y-122716131D01*
X139796932Y-122705041D01*
X139792617Y-122684308D01*
X139788932Y-122640145D01*
X139786171Y-122578146D01*
X139784628Y-122503909D01*
X139784405Y-122465706D01*
X139784183Y-122245783D01*
X139738474Y-122229849D01*
X139706122Y-122219015D01*
X139688525Y-122213962D01*
X139688017Y-122213914D01*
X139686252Y-122227648D01*
X139684311Y-122265730D01*
X139682358Y-122323482D01*
X139680556Y-122396227D01*
X139679297Y-122464286D01*
X139675326Y-122714657D01*
X139588240Y-122714657D01*
X139584244Y-122486240D01*
X139580248Y-122257822D01*
X139537793Y-122235868D01*
X139506448Y-122220793D01*
X139487896Y-122213951D01*
X139487361Y-122213914D01*
X139484807Y-122227663D01*
G37*
X139484807Y-122227663D02*
X139482592Y-122265850D01*
X139480856Y-122323886D01*
X139479741Y-122397180D01*
X139479383Y-122474055D01*
X139479383Y-122734196D01*
X139525314Y-122780127D01*
X139556965Y-122808429D01*
X139584750Y-122819893D01*
X139622725Y-122819168D01*
X139637800Y-122817321D01*
X139684914Y-122811948D01*
X139723884Y-122808869D01*
X139733383Y-122808585D01*
X139765407Y-122810445D01*
X139811208Y-122815114D01*
X139828966Y-122817321D01*
X139872583Y-122820735D01*
X139901895Y-122813320D01*
X139930960Y-122790427D01*
X139941452Y-122780127D01*
X139987383Y-122734196D01*
X139987383Y-122247602D01*
X139950414Y-122230758D01*
X139918581Y-122218282D01*
X139899957Y-122213914D01*
X139895182Y-122227718D01*
X139890719Y-122266286D01*
X139886865Y-122325356D01*
X139883918Y-122400663D01*
X139882497Y-122464286D01*
X139878526Y-122714657D01*
X139843881Y-122719556D01*
X139812372Y-122716131D01*
X139796932Y-122705041D01*
X139792617Y-122684308D01*
X139788932Y-122640145D01*
X139786171Y-122578146D01*
X139784628Y-122503909D01*
X139784405Y-122465706D01*
X139784183Y-122245783D01*
X139738474Y-122229849D01*
X139706122Y-122219015D01*
X139688525Y-122213962D01*
X139688017Y-122213914D01*
X139686252Y-122227648D01*
X139684311Y-122265730D01*
X139682358Y-122323482D01*
X139680556Y-122396227D01*
X139679297Y-122464286D01*
X139675326Y-122714657D01*
X139588240Y-122714657D01*
X139584244Y-122486240D01*
X139580248Y-122257822D01*
X139537793Y-122235868D01*
X139506448Y-122220793D01*
X139487896Y-122213951D01*
X139487361Y-122213914D01*
X139484807Y-122227663D01*
G36*
X139119764Y-122225335D02*
G01*
X139077973Y-122244344D01*
X139045171Y-122267378D01*
X139021137Y-122293133D01*
X139004543Y-122326358D01*
X138994063Y-122371800D01*
X138988369Y-122434207D01*
X138986133Y-122518327D01*
X138985897Y-122573721D01*
X138985897Y-122789826D01*
X139022866Y-122806670D01*
X139051984Y-122818981D01*
X139066409Y-122823514D01*
X139069168Y-122810025D01*
X139071358Y-122773653D01*
X139072698Y-122720542D01*
X139072983Y-122678372D01*
X139074206Y-122617447D01*
X139077504Y-122569115D01*
X139082319Y-122539518D01*
X139086144Y-122533229D01*
X139111857Y-122539652D01*
X139152222Y-122556125D01*
X139198961Y-122578458D01*
X139243795Y-122602457D01*
X139278447Y-122623930D01*
X139294638Y-122638685D01*
X139294702Y-122638845D01*
X139293310Y-122666152D01*
X139280822Y-122692219D01*
X139258897Y-122713392D01*
X139226897Y-122720474D01*
X139199548Y-122719649D01*
X139160814Y-122719042D01*
X139140482Y-122728116D01*
X139128271Y-122752092D01*
X139126731Y-122756613D01*
X139121437Y-122790806D01*
X139135593Y-122811568D01*
X139172492Y-122821462D01*
X139212351Y-122823292D01*
X139284078Y-122809727D01*
X139321208Y-122790355D01*
X139367064Y-122744845D01*
X139391384Y-122688983D01*
X139393567Y-122629957D01*
X139373011Y-122574953D01*
X139342091Y-122540486D01*
X139311220Y-122521189D01*
X139262698Y-122496759D01*
X139206155Y-122471985D01*
X139196730Y-122468199D01*
X139134621Y-122440791D01*
X139098818Y-122416634D01*
X139087303Y-122392619D01*
X139098060Y-122365635D01*
X139116526Y-122344543D01*
X139160171Y-122318572D01*
X139208194Y-122316624D01*
X139252234Y-122336637D01*
X139283931Y-122376551D01*
X139288091Y-122386848D01*
X139312313Y-122424724D01*
X139347675Y-122452842D01*
X139392297Y-122475917D01*
X139392297Y-122410485D01*
X139389671Y-122370506D01*
X139378410Y-122338997D01*
X139353441Y-122305378D01*
X139329471Y-122279484D01*
X139292199Y-122242817D01*
X139263239Y-122223121D01*
X139232135Y-122215220D01*
X139196927Y-122213914D01*
X139119764Y-122225335D01*
G37*
X139119764Y-122225335D02*
X139077973Y-122244344D01*
X139045171Y-122267378D01*
X139021137Y-122293133D01*
X139004543Y-122326358D01*
X138994063Y-122371800D01*
X138988369Y-122434207D01*
X138986133Y-122518327D01*
X138985897Y-122573721D01*
X138985897Y-122789826D01*
X139022866Y-122806670D01*
X139051984Y-122818981D01*
X139066409Y-122823514D01*
X139069168Y-122810025D01*
X139071358Y-122773653D01*
X139072698Y-122720542D01*
X139072983Y-122678372D01*
X139074206Y-122617447D01*
X139077504Y-122569115D01*
X139082319Y-122539518D01*
X139086144Y-122533229D01*
X139111857Y-122539652D01*
X139152222Y-122556125D01*
X139198961Y-122578458D01*
X139243795Y-122602457D01*
X139278447Y-122623930D01*
X139294638Y-122638685D01*
X139294702Y-122638845D01*
X139293310Y-122666152D01*
X139280822Y-122692219D01*
X139258897Y-122713392D01*
X139226897Y-122720474D01*
X139199548Y-122719649D01*
X139160814Y-122719042D01*
X139140482Y-122728116D01*
X139128271Y-122752092D01*
X139126731Y-122756613D01*
X139121437Y-122790806D01*
X139135593Y-122811568D01*
X139172492Y-122821462D01*
X139212351Y-122823292D01*
X139284078Y-122809727D01*
X139321208Y-122790355D01*
X139367064Y-122744845D01*
X139391384Y-122688983D01*
X139393567Y-122629957D01*
X139373011Y-122574953D01*
X139342091Y-122540486D01*
X139311220Y-122521189D01*
X139262698Y-122496759D01*
X139206155Y-122471985D01*
X139196730Y-122468199D01*
X139134621Y-122440791D01*
X139098818Y-122416634D01*
X139087303Y-122392619D01*
X139098060Y-122365635D01*
X139116526Y-122344543D01*
X139160171Y-122318572D01*
X139208194Y-122316624D01*
X139252234Y-122336637D01*
X139283931Y-122376551D01*
X139288091Y-122386848D01*
X139312313Y-122424724D01*
X139347675Y-122452842D01*
X139392297Y-122475917D01*
X139392297Y-122410485D01*
X139389671Y-122370506D01*
X139378410Y-122338997D01*
X139353441Y-122305378D01*
X139329471Y-122279484D01*
X139292199Y-122242817D01*
X139263239Y-122223121D01*
X139232135Y-122215220D01*
X139196927Y-122213914D01*
X139119764Y-122225335D01*
G36*
X138612040Y-122227752D02*
G01*
X138594692Y-122235334D01*
X138553284Y-122268128D01*
X138517875Y-122315547D01*
X138495976Y-122366151D01*
X138492411Y-122391098D01*
X138504361Y-122425927D01*
X138530573Y-122444357D01*
X138558676Y-122455516D01*
X138571545Y-122457572D01*
X138577811Y-122442649D01*
X138590184Y-122410175D01*
X138595612Y-122395502D01*
X138626050Y-122344744D01*
X138670120Y-122319427D01*
X138726630Y-122320206D01*
X138730815Y-122321203D01*
X138760985Y-122335507D01*
X138783164Y-122363393D01*
X138798313Y-122408287D01*
X138807390Y-122473615D01*
X138811354Y-122562804D01*
X138811726Y-122610261D01*
X138811910Y-122685071D01*
X138813118Y-122736069D01*
X138816331Y-122768471D01*
X138822531Y-122787495D01*
X138832700Y-122798356D01*
X138847821Y-122806272D01*
X138848694Y-122806670D01*
X138877812Y-122818981D01*
X138892237Y-122823514D01*
X138894454Y-122809809D01*
X138896351Y-122771925D01*
X138897793Y-122714715D01*
X138898642Y-122643027D01*
X138898811Y-122590565D01*
X138897948Y-122489047D01*
X138894570Y-122412032D01*
X138887498Y-122355023D01*
X138875552Y-122313526D01*
X138857550Y-122283043D01*
X138832313Y-122259080D01*
X138807393Y-122242355D01*
X138747469Y-122220097D01*
X138677729Y-122215076D01*
X138612040Y-122227752D01*
G37*
X138612040Y-122227752D02*
X138594692Y-122235334D01*
X138553284Y-122268128D01*
X138517875Y-122315547D01*
X138495976Y-122366151D01*
X138492411Y-122391098D01*
X138504361Y-122425927D01*
X138530573Y-122444357D01*
X138558676Y-122455516D01*
X138571545Y-122457572D01*
X138577811Y-122442649D01*
X138590184Y-122410175D01*
X138595612Y-122395502D01*
X138626050Y-122344744D01*
X138670120Y-122319427D01*
X138726630Y-122320206D01*
X138730815Y-122321203D01*
X138760985Y-122335507D01*
X138783164Y-122363393D01*
X138798313Y-122408287D01*
X138807390Y-122473615D01*
X138811354Y-122562804D01*
X138811726Y-122610261D01*
X138811910Y-122685071D01*
X138813118Y-122736069D01*
X138816331Y-122768471D01*
X138822531Y-122787495D01*
X138832700Y-122798356D01*
X138847821Y-122806272D01*
X138848694Y-122806670D01*
X138877812Y-122818981D01*
X138892237Y-122823514D01*
X138894454Y-122809809D01*
X138896351Y-122771925D01*
X138897793Y-122714715D01*
X138898642Y-122643027D01*
X138898811Y-122590565D01*
X138897948Y-122489047D01*
X138894570Y-122412032D01*
X138887498Y-122355023D01*
X138875552Y-122313526D01*
X138857550Y-122283043D01*
X138832313Y-122259080D01*
X138807393Y-122242355D01*
X138747469Y-122220097D01*
X138677729Y-122215076D01*
X138612040Y-122227752D01*
G36*
X138111045Y-122235966D02*
G01*
X138053619Y-122273497D01*
X138025921Y-122307096D01*
X138003978Y-122368064D01*
X138002235Y-122416308D01*
X138006183Y-122480816D01*
X138154954Y-122545934D01*
X138227291Y-122579202D01*
X138274556Y-122605964D01*
X138299133Y-122629144D01*
X138303403Y-122651667D01*
X138289751Y-122676455D01*
X138274697Y-122692886D01*
X138230894Y-122719235D01*
X138183251Y-122721081D01*
X138139495Y-122700546D01*
X138107351Y-122659752D01*
X138101602Y-122645347D01*
X138074064Y-122600356D01*
X138042382Y-122581182D01*
X137998926Y-122564779D01*
X137998926Y-122626966D01*
X138002768Y-122669283D01*
X138017817Y-122704969D01*
X138049360Y-122745943D01*
X138054048Y-122751267D01*
X138089134Y-122787720D01*
X138119293Y-122807283D01*
X138157025Y-122816283D01*
X138188305Y-122819230D01*
X138244255Y-122819965D01*
X138284085Y-122810660D01*
X138308932Y-122796846D01*
X138347984Y-122766467D01*
X138375015Y-122733613D01*
X138392123Y-122692294D01*
X138401402Y-122636521D01*
X138404947Y-122560305D01*
X138405230Y-122521622D01*
X138404268Y-122475247D01*
X138316633Y-122475247D01*
X138315617Y-122500126D01*
X138313084Y-122504200D01*
X138296366Y-122498665D01*
X138260391Y-122484017D01*
X138212309Y-122463190D01*
X138202254Y-122458714D01*
X138141488Y-122427814D01*
X138108008Y-122400657D01*
X138100650Y-122375220D01*
X138118249Y-122349481D01*
X138132784Y-122338109D01*
X138185230Y-122315364D01*
X138234318Y-122319122D01*
X138275413Y-122346884D01*
X138303882Y-122396152D01*
X138313009Y-122435257D01*
X138316633Y-122475247D01*
X138404268Y-122475247D01*
X138403355Y-122431249D01*
X138396444Y-122364384D01*
X138382756Y-122315695D01*
X138360544Y-122279849D01*
X138328066Y-122251513D01*
X138313907Y-122242355D01*
X138249587Y-122218507D01*
X138179167Y-122217006D01*
X138111045Y-122235966D01*
G37*
X138111045Y-122235966D02*
X138053619Y-122273497D01*
X138025921Y-122307096D01*
X138003978Y-122368064D01*
X138002235Y-122416308D01*
X138006183Y-122480816D01*
X138154954Y-122545934D01*
X138227291Y-122579202D01*
X138274556Y-122605964D01*
X138299133Y-122629144D01*
X138303403Y-122651667D01*
X138289751Y-122676455D01*
X138274697Y-122692886D01*
X138230894Y-122719235D01*
X138183251Y-122721081D01*
X138139495Y-122700546D01*
X138107351Y-122659752D01*
X138101602Y-122645347D01*
X138074064Y-122600356D01*
X138042382Y-122581182D01*
X137998926Y-122564779D01*
X137998926Y-122626966D01*
X138002768Y-122669283D01*
X138017817Y-122704969D01*
X138049360Y-122745943D01*
X138054048Y-122751267D01*
X138089134Y-122787720D01*
X138119293Y-122807283D01*
X138157025Y-122816283D01*
X138188305Y-122819230D01*
X138244255Y-122819965D01*
X138284085Y-122810660D01*
X138308932Y-122796846D01*
X138347984Y-122766467D01*
X138375015Y-122733613D01*
X138392123Y-122692294D01*
X138401402Y-122636521D01*
X138404947Y-122560305D01*
X138405230Y-122521622D01*
X138404268Y-122475247D01*
X138316633Y-122475247D01*
X138315617Y-122500126D01*
X138313084Y-122504200D01*
X138296366Y-122498665D01*
X138260391Y-122484017D01*
X138212309Y-122463190D01*
X138202254Y-122458714D01*
X138141488Y-122427814D01*
X138108008Y-122400657D01*
X138100650Y-122375220D01*
X138118249Y-122349481D01*
X138132784Y-122338109D01*
X138185230Y-122315364D01*
X138234318Y-122319122D01*
X138275413Y-122346884D01*
X138303882Y-122396152D01*
X138313009Y-122435257D01*
X138316633Y-122475247D01*
X138404268Y-122475247D01*
X138403355Y-122431249D01*
X138396444Y-122364384D01*
X138382756Y-122315695D01*
X138360544Y-122279849D01*
X138328066Y-122251513D01*
X138313907Y-122242355D01*
X138249587Y-122218507D01*
X138179167Y-122217006D01*
X138111045Y-122235966D01*
G36*
X141160730Y-117511348D02*
G01*
X141082186Y-117511778D01*
X141025342Y-117512942D01*
X140986535Y-117515207D01*
X140962102Y-117518940D01*
X140948378Y-117524506D01*
X140941700Y-117532273D01*
X140938404Y-117542605D01*
X140938084Y-117543943D01*
X140933078Y-117568079D01*
X140923811Y-117615701D01*
X140911248Y-117681741D01*
X140896353Y-117761128D01*
X140880089Y-117848796D01*
X140879521Y-117851875D01*
X140863230Y-117937789D01*
X140847988Y-118013696D01*
X140834779Y-118075045D01*
X140824586Y-118117282D01*
X140818392Y-118135855D01*
X140818097Y-118136184D01*
X140799852Y-118145253D01*
X140762235Y-118160367D01*
X140713369Y-118178262D01*
X140713097Y-118178358D01*
X140651547Y-118201493D01*
X140578983Y-118230965D01*
X140510583Y-118260597D01*
X140507346Y-118262062D01*
X140395938Y-118312626D01*
X140149241Y-118144160D01*
X140073563Y-118092803D01*
X140005009Y-118046889D01*
X139947552Y-118009030D01*
X139905164Y-117981837D01*
X139881815Y-117967921D01*
X139879598Y-117966889D01*
X139862630Y-117971484D01*
X139830939Y-117993655D01*
X139783288Y-118034447D01*
X139718442Y-118094905D01*
X139652243Y-118159227D01*
X139588426Y-118222612D01*
X139531311Y-118280451D01*
X139484335Y-118329175D01*
X139450937Y-118365210D01*
X139434555Y-118384984D01*
X139433946Y-118386002D01*
X139432135Y-118399572D01*
X139438957Y-118421733D01*
X139456100Y-118455478D01*
X139485247Y-118503800D01*
X139528085Y-118569692D01*
X139585192Y-118654517D01*
X139635874Y-118729177D01*
X139681179Y-118796140D01*
X139718490Y-118851516D01*
X139745188Y-118891420D01*
X139758655Y-118911962D01*
X139759503Y-118913356D01*
X139757859Y-118933038D01*
X139745395Y-118971293D01*
X139724592Y-119020889D01*
X139717178Y-119036728D01*
X139684826Y-119107290D01*
X139650312Y-119187353D01*
X139622275Y-119256629D01*
X139602072Y-119308045D01*
X139586025Y-119347119D01*
X139576752Y-119367541D01*
X139575599Y-119369114D01*
X139558544Y-119371721D01*
X139518342Y-119378863D01*
X139460338Y-119389523D01*
X139389877Y-119402685D01*
X139312305Y-119417333D01*
X139232968Y-119432449D01*
X139157209Y-119447018D01*
X139090376Y-119460022D01*
X139037812Y-119470445D01*
X139004864Y-119477270D01*
X138996783Y-119479199D01*
X138988435Y-119483962D01*
X138982134Y-119494718D01*
X138977595Y-119515098D01*
X138974536Y-119548734D01*
X138972673Y-119599255D01*
X138971722Y-119670292D01*
X138971400Y-119765476D01*
X138971383Y-119804492D01*
X138971383Y-120121799D01*
X139047583Y-120136839D01*
X139089977Y-120144995D01*
X139153240Y-120156899D01*
X139229678Y-120171116D01*
X139311597Y-120186210D01*
X139334240Y-120190355D01*
X139409834Y-120205053D01*
X139475687Y-120219505D01*
X139526274Y-120232375D01*
X139556066Y-120242322D01*
X139561028Y-120245287D01*
X139573214Y-120266283D01*
X139590687Y-120306967D01*
X139610063Y-120359322D01*
X139613906Y-120370600D01*
X139639301Y-120440523D01*
X139670823Y-120519418D01*
X139701671Y-120590266D01*
X139701823Y-120590595D01*
X139753193Y-120701733D01*
X139584241Y-120950253D01*
X139415288Y-121198772D01*
X139632211Y-121416058D01*
X139697821Y-121480726D01*
X139757661Y-121537733D01*
X139808373Y-121584033D01*
X139846594Y-121616584D01*
X139868965Y-121632343D01*
X139872174Y-121633343D01*
X139891014Y-121625469D01*
X139929460Y-121603578D01*
X139983310Y-121570267D01*
X140048364Y-121528131D01*
X140118700Y-121480943D01*
X140190085Y-121432810D01*
X140253732Y-121390928D01*
X140305599Y-121357871D01*
X140341645Y-121336218D01*
X140357773Y-121328543D01*
X140377451Y-121335037D01*
X140414765Y-121352150D01*
X140462019Y-121376326D01*
X140467028Y-121379013D01*
X140530663Y-121410927D01*
X140574299Y-121426579D01*
X140601438Y-121426745D01*
X140615583Y-121412204D01*
X140615665Y-121412000D01*
X140622735Y-121394779D01*
X140639598Y-121353899D01*
X140664945Y-121292525D01*
X140697469Y-121213819D01*
X140735862Y-121120947D01*
X140778818Y-121017072D01*
X140820418Y-120916502D01*
X140866136Y-120805516D01*
X140908114Y-120702703D01*
X140945092Y-120611215D01*
X140975813Y-120534201D01*
X140999018Y-120474815D01*
X141013450Y-120436209D01*
X141017897Y-120421800D01*
X141006744Y-120405272D01*
X140977571Y-120378930D01*
X140938669Y-120349887D01*
X140827883Y-120258039D01*
X140741289Y-120152759D01*
X140679924Y-120036266D01*
X140644825Y-119910776D01*
X140637032Y-119778507D01*
X140642697Y-119717457D01*
X140673562Y-119590795D01*
X140726720Y-119478941D01*
X140798873Y-119383001D01*
X140886723Y-119304076D01*
X140986975Y-119243270D01*
X141096330Y-119201687D01*
X141211493Y-119180428D01*
X141329165Y-119180599D01*
X141446050Y-119203301D01*
X141558851Y-119249638D01*
X141664271Y-119320713D01*
X141708272Y-119360911D01*
X141792661Y-119464129D01*
X141851418Y-119576925D01*
X141884936Y-119696010D01*
X141893605Y-119818095D01*
X141877817Y-119939893D01*
X141837962Y-120058116D01*
X141774433Y-120169475D01*
X141687619Y-120270684D01*
X141590611Y-120349887D01*
X141550203Y-120380162D01*
X141521658Y-120406219D01*
X141511383Y-120421825D01*
X141516763Y-120438843D01*
X141532065Y-120479500D01*
X141556028Y-120540642D01*
X141587396Y-120619119D01*
X141624908Y-120711780D01*
X141667307Y-120815472D01*
X141708977Y-120916526D01*
X141754950Y-121027607D01*
X141797533Y-121130541D01*
X141835419Y-121222165D01*
X141867300Y-121299316D01*
X141891869Y-121358831D01*
X141907820Y-121397544D01*
X141913730Y-121412000D01*
X141927692Y-121426685D01*
X141954700Y-121426642D01*
X141998227Y-121411099D01*
X142061750Y-121379284D01*
X142062252Y-121379013D01*
X142110080Y-121354323D01*
X142148743Y-121336338D01*
X142170545Y-121328614D01*
X142171507Y-121328543D01*
X142187919Y-121336378D01*
X142224153Y-121358165D01*
X142276166Y-121391328D01*
X142339915Y-121433291D01*
X142410580Y-121480943D01*
X142482524Y-121529191D01*
X142547366Y-121571151D01*
X142600905Y-121604227D01*
X142638943Y-121625821D01*
X142657107Y-121633343D01*
X142673832Y-121623457D01*
X142707460Y-121595826D01*
X142754630Y-121553495D01*
X142811982Y-121499505D01*
X142876156Y-121436899D01*
X142897143Y-121415983D01*
X143114141Y-121198623D01*
X142948972Y-120956220D01*
X142898776Y-120881781D01*
X142854721Y-120814972D01*
X142819278Y-120759665D01*
X142794921Y-120719729D01*
X142784118Y-120699036D01*
X142783802Y-120697563D01*
X142789497Y-120678058D01*
X142804814Y-120638822D01*
X142827103Y-120586430D01*
X142842747Y-120551355D01*
X142871999Y-120484201D01*
X142899546Y-120416358D01*
X142920903Y-120359034D01*
X142926705Y-120341572D01*
X142943188Y-120294938D01*
X142959300Y-120258905D01*
X142968150Y-120245287D01*
X142987680Y-120236952D01*
X143030306Y-120225137D01*
X143090495Y-120211181D01*
X143162718Y-120196422D01*
X143195040Y-120190355D01*
X143277118Y-120175273D01*
X143355845Y-120160669D01*
X143423531Y-120147980D01*
X143472480Y-120138642D01*
X143481697Y-120136839D01*
X143557897Y-120121799D01*
X143557897Y-119804492D01*
X143557726Y-119700154D01*
X143557024Y-119621213D01*
X143555506Y-119564038D01*
X143552891Y-119524999D01*
X143548894Y-119500465D01*
X143543231Y-119486805D01*
X143535620Y-119480389D01*
X143532497Y-119479199D01*
X143513662Y-119474980D01*
X143472052Y-119466562D01*
X143413010Y-119454961D01*
X143341883Y-119441195D01*
X143264015Y-119426280D01*
X143184753Y-119411232D01*
X143109442Y-119397069D01*
X143043427Y-119384806D01*
X142992053Y-119375461D01*
X142960665Y-119370050D01*
X142953681Y-119369114D01*
X142947355Y-119356596D01*
X142933350Y-119323246D01*
X142914285Y-119275377D01*
X142907006Y-119256629D01*
X142877644Y-119184195D01*
X142843069Y-119104170D01*
X142812103Y-119036728D01*
X142789317Y-118985159D01*
X142774158Y-118942785D01*
X142769098Y-118916834D01*
X142769904Y-118913356D01*
X142780599Y-118896936D01*
X142805020Y-118860417D01*
X142840545Y-118807687D01*
X142884553Y-118742635D01*
X142934423Y-118669151D01*
X142944284Y-118654645D01*
X143002148Y-118568704D01*
X143044684Y-118503261D01*
X143073586Y-118455304D01*
X143090550Y-118421820D01*
X143097273Y-118399795D01*
X143095450Y-118386217D01*
X143095404Y-118386131D01*
X143081054Y-118368297D01*
X143049317Y-118333817D01*
X143003630Y-118286268D01*
X142947436Y-118229222D01*
X142884172Y-118166255D01*
X142877038Y-118159227D01*
X142797310Y-118082020D01*
X142735783Y-118025330D01*
X142691219Y-117988110D01*
X142662383Y-117969315D01*
X142649682Y-117966889D01*
X142631146Y-117977471D01*
X142592679Y-118001916D01*
X142538254Y-118037612D01*
X142471842Y-118081947D01*
X142397415Y-118132311D01*
X142380039Y-118144160D01*
X142133343Y-118312626D01*
X142021934Y-118262062D01*
X141954183Y-118232595D01*
X141881457Y-118202959D01*
X141818937Y-118179330D01*
X141816183Y-118178358D01*
X141767280Y-118160457D01*
X141729583Y-118145320D01*
X141711215Y-118136210D01*
X141711184Y-118136184D01*
X141705355Y-118119717D01*
X141695448Y-118079219D01*
X141682445Y-118019242D01*
X141667331Y-117944340D01*
X141651088Y-117859064D01*
X141649759Y-117851875D01*
X141633465Y-117764014D01*
X141618507Y-117684260D01*
X141605849Y-117617681D01*
X141596454Y-117569347D01*
X141591286Y-117544325D01*
X141591196Y-117543943D01*
X141588051Y-117533299D01*
X141581936Y-117525262D01*
X141569187Y-117519467D01*
X141546140Y-117515547D01*
X141509131Y-117513135D01*
X141454496Y-117511865D01*
X141378573Y-117511371D01*
X141277696Y-117511286D01*
X141264640Y-117511286D01*
X141160730Y-117511348D01*
G37*
X141160730Y-117511348D02*
X141082186Y-117511778D01*
X141025342Y-117512942D01*
X140986535Y-117515207D01*
X140962102Y-117518940D01*
X140948378Y-117524506D01*
X140941700Y-117532273D01*
X140938404Y-117542605D01*
X140938084Y-117543943D01*
X140933078Y-117568079D01*
X140923811Y-117615701D01*
X140911248Y-117681741D01*
X140896353Y-117761128D01*
X140880089Y-117848796D01*
X140879521Y-117851875D01*
X140863230Y-117937789D01*
X140847988Y-118013696D01*
X140834779Y-118075045D01*
X140824586Y-118117282D01*
X140818392Y-118135855D01*
X140818097Y-118136184D01*
X140799852Y-118145253D01*
X140762235Y-118160367D01*
X140713369Y-118178262D01*
X140713097Y-118178358D01*
X140651547Y-118201493D01*
X140578983Y-118230965D01*
X140510583Y-118260597D01*
X140507346Y-118262062D01*
X140395938Y-118312626D01*
X140149241Y-118144160D01*
X140073563Y-118092803D01*
X140005009Y-118046889D01*
X139947552Y-118009030D01*
X139905164Y-117981837D01*
X139881815Y-117967921D01*
X139879598Y-117966889D01*
X139862630Y-117971484D01*
X139830939Y-117993655D01*
X139783288Y-118034447D01*
X139718442Y-118094905D01*
X139652243Y-118159227D01*
X139588426Y-118222612D01*
X139531311Y-118280451D01*
X139484335Y-118329175D01*
X139450937Y-118365210D01*
X139434555Y-118384984D01*
X139433946Y-118386002D01*
X139432135Y-118399572D01*
X139438957Y-118421733D01*
X139456100Y-118455478D01*
X139485247Y-118503800D01*
X139528085Y-118569692D01*
X139585192Y-118654517D01*
X139635874Y-118729177D01*
X139681179Y-118796140D01*
X139718490Y-118851516D01*
X139745188Y-118891420D01*
X139758655Y-118911962D01*
X139759503Y-118913356D01*
X139757859Y-118933038D01*
X139745395Y-118971293D01*
X139724592Y-119020889D01*
X139717178Y-119036728D01*
X139684826Y-119107290D01*
X139650312Y-119187353D01*
X139622275Y-119256629D01*
X139602072Y-119308045D01*
X139586025Y-119347119D01*
X139576752Y-119367541D01*
X139575599Y-119369114D01*
X139558544Y-119371721D01*
X139518342Y-119378863D01*
X139460338Y-119389523D01*
X139389877Y-119402685D01*
X139312305Y-119417333D01*
X139232968Y-119432449D01*
X139157209Y-119447018D01*
X139090376Y-119460022D01*
X139037812Y-119470445D01*
X139004864Y-119477270D01*
X138996783Y-119479199D01*
X138988435Y-119483962D01*
X138982134Y-119494718D01*
X138977595Y-119515098D01*
X138974536Y-119548734D01*
X138972673Y-119599255D01*
X138971722Y-119670292D01*
X138971400Y-119765476D01*
X138971383Y-119804492D01*
X138971383Y-120121799D01*
X139047583Y-120136839D01*
X139089977Y-120144995D01*
X139153240Y-120156899D01*
X139229678Y-120171116D01*
X139311597Y-120186210D01*
X139334240Y-120190355D01*
X139409834Y-120205053D01*
X139475687Y-120219505D01*
X139526274Y-120232375D01*
X139556066Y-120242322D01*
X139561028Y-120245287D01*
X139573214Y-120266283D01*
X139590687Y-120306967D01*
X139610063Y-120359322D01*
X139613906Y-120370600D01*
X139639301Y-120440523D01*
X139670823Y-120519418D01*
X139701671Y-120590266D01*
X139701823Y-120590595D01*
X139753193Y-120701733D01*
X139584241Y-120950253D01*
X139415288Y-121198772D01*
X139632211Y-121416058D01*
X139697821Y-121480726D01*
X139757661Y-121537733D01*
X139808373Y-121584033D01*
X139846594Y-121616584D01*
X139868965Y-121632343D01*
X139872174Y-121633343D01*
X139891014Y-121625469D01*
X139929460Y-121603578D01*
X139983310Y-121570267D01*
X140048364Y-121528131D01*
X140118700Y-121480943D01*
X140190085Y-121432810D01*
X140253732Y-121390928D01*
X140305599Y-121357871D01*
X140341645Y-121336218D01*
X140357773Y-121328543D01*
X140377451Y-121335037D01*
X140414765Y-121352150D01*
X140462019Y-121376326D01*
X140467028Y-121379013D01*
X140530663Y-121410927D01*
X140574299Y-121426579D01*
X140601438Y-121426745D01*
X140615583Y-121412204D01*
X140615665Y-121412000D01*
X140622735Y-121394779D01*
X140639598Y-121353899D01*
X140664945Y-121292525D01*
X140697469Y-121213819D01*
X140735862Y-121120947D01*
X140778818Y-121017072D01*
X140820418Y-120916502D01*
X140866136Y-120805516D01*
X140908114Y-120702703D01*
X140945092Y-120611215D01*
X140975813Y-120534201D01*
X140999018Y-120474815D01*
X141013450Y-120436209D01*
X141017897Y-120421800D01*
X141006744Y-120405272D01*
X140977571Y-120378930D01*
X140938669Y-120349887D01*
X140827883Y-120258039D01*
X140741289Y-120152759D01*
X140679924Y-120036266D01*
X140644825Y-119910776D01*
X140637032Y-119778507D01*
X140642697Y-119717457D01*
X140673562Y-119590795D01*
X140726720Y-119478941D01*
X140798873Y-119383001D01*
X140886723Y-119304076D01*
X140986975Y-119243270D01*
X141096330Y-119201687D01*
X141211493Y-119180428D01*
X141329165Y-119180599D01*
X141446050Y-119203301D01*
X141558851Y-119249638D01*
X141664271Y-119320713D01*
X141708272Y-119360911D01*
X141792661Y-119464129D01*
X141851418Y-119576925D01*
X141884936Y-119696010D01*
X141893605Y-119818095D01*
X141877817Y-119939893D01*
X141837962Y-120058116D01*
X141774433Y-120169475D01*
X141687619Y-120270684D01*
X141590611Y-120349887D01*
X141550203Y-120380162D01*
X141521658Y-120406219D01*
X141511383Y-120421825D01*
X141516763Y-120438843D01*
X141532065Y-120479500D01*
X141556028Y-120540642D01*
X141587396Y-120619119D01*
X141624908Y-120711780D01*
X141667307Y-120815472D01*
X141708977Y-120916526D01*
X141754950Y-121027607D01*
X141797533Y-121130541D01*
X141835419Y-121222165D01*
X141867300Y-121299316D01*
X141891869Y-121358831D01*
X141907820Y-121397544D01*
X141913730Y-121412000D01*
X141927692Y-121426685D01*
X141954700Y-121426642D01*
X141998227Y-121411099D01*
X142061750Y-121379284D01*
X142062252Y-121379013D01*
X142110080Y-121354323D01*
X142148743Y-121336338D01*
X142170545Y-121328614D01*
X142171507Y-121328543D01*
X142187919Y-121336378D01*
X142224153Y-121358165D01*
X142276166Y-121391328D01*
X142339915Y-121433291D01*
X142410580Y-121480943D01*
X142482524Y-121529191D01*
X142547366Y-121571151D01*
X142600905Y-121604227D01*
X142638943Y-121625821D01*
X142657107Y-121633343D01*
X142673832Y-121623457D01*
X142707460Y-121595826D01*
X142754630Y-121553495D01*
X142811982Y-121499505D01*
X142876156Y-121436899D01*
X142897143Y-121415983D01*
X143114141Y-121198623D01*
X142948972Y-120956220D01*
X142898776Y-120881781D01*
X142854721Y-120814972D01*
X142819278Y-120759665D01*
X142794921Y-120719729D01*
X142784118Y-120699036D01*
X142783802Y-120697563D01*
X142789497Y-120678058D01*
X142804814Y-120638822D01*
X142827103Y-120586430D01*
X142842747Y-120551355D01*
X142871999Y-120484201D01*
X142899546Y-120416358D01*
X142920903Y-120359034D01*
X142926705Y-120341572D01*
X142943188Y-120294938D01*
X142959300Y-120258905D01*
X142968150Y-120245287D01*
X142987680Y-120236952D01*
X143030306Y-120225137D01*
X143090495Y-120211181D01*
X143162718Y-120196422D01*
X143195040Y-120190355D01*
X143277118Y-120175273D01*
X143355845Y-120160669D01*
X143423531Y-120147980D01*
X143472480Y-120138642D01*
X143481697Y-120136839D01*
X143557897Y-120121799D01*
X143557897Y-119804492D01*
X143557726Y-119700154D01*
X143557024Y-119621213D01*
X143555506Y-119564038D01*
X143552891Y-119524999D01*
X143548894Y-119500465D01*
X143543231Y-119486805D01*
X143535620Y-119480389D01*
X143532497Y-119479199D01*
X143513662Y-119474980D01*
X143472052Y-119466562D01*
X143413010Y-119454961D01*
X143341883Y-119441195D01*
X143264015Y-119426280D01*
X143184753Y-119411232D01*
X143109442Y-119397069D01*
X143043427Y-119384806D01*
X142992053Y-119375461D01*
X142960665Y-119370050D01*
X142953681Y-119369114D01*
X142947355Y-119356596D01*
X142933350Y-119323246D01*
X142914285Y-119275377D01*
X142907006Y-119256629D01*
X142877644Y-119184195D01*
X142843069Y-119104170D01*
X142812103Y-119036728D01*
X142789317Y-118985159D01*
X142774158Y-118942785D01*
X142769098Y-118916834D01*
X142769904Y-118913356D01*
X142780599Y-118896936D01*
X142805020Y-118860417D01*
X142840545Y-118807687D01*
X142884553Y-118742635D01*
X142934423Y-118669151D01*
X142944284Y-118654645D01*
X143002148Y-118568704D01*
X143044684Y-118503261D01*
X143073586Y-118455304D01*
X143090550Y-118421820D01*
X143097273Y-118399795D01*
X143095450Y-118386217D01*
X143095404Y-118386131D01*
X143081054Y-118368297D01*
X143049317Y-118333817D01*
X143003630Y-118286268D01*
X142947436Y-118229222D01*
X142884172Y-118166255D01*
X142877038Y-118159227D01*
X142797310Y-118082020D01*
X142735783Y-118025330D01*
X142691219Y-117988110D01*
X142662383Y-117969315D01*
X142649682Y-117966889D01*
X142631146Y-117977471D01*
X142592679Y-118001916D01*
X142538254Y-118037612D01*
X142471842Y-118081947D01*
X142397415Y-118132311D01*
X142380039Y-118144160D01*
X142133343Y-118312626D01*
X142021934Y-118262062D01*
X141954183Y-118232595D01*
X141881457Y-118202959D01*
X141818937Y-118179330D01*
X141816183Y-118178358D01*
X141767280Y-118160457D01*
X141729583Y-118145320D01*
X141711215Y-118136210D01*
X141711184Y-118136184D01*
X141705355Y-118119717D01*
X141695448Y-118079219D01*
X141682445Y-118019242D01*
X141667331Y-117944340D01*
X141651088Y-117859064D01*
X141649759Y-117851875D01*
X141633465Y-117764014D01*
X141618507Y-117684260D01*
X141605849Y-117617681D01*
X141596454Y-117569347D01*
X141591286Y-117544325D01*
X141591196Y-117543943D01*
X141588051Y-117533299D01*
X141581936Y-117525262D01*
X141569187Y-117519467D01*
X141546140Y-117515547D01*
X141509131Y-117513135D01*
X141454496Y-117511865D01*
X141378573Y-117511371D01*
X141277696Y-117511286D01*
X141264640Y-117511286D01*
X141160730Y-117511348D01*
M02*
