G04 #@! TF.GenerationSoftware,KiCad,Pcbnew,8.0.8*
G04 #@! TF.CreationDate,2025-02-21T23:14:13-03:00*
G04 #@! TF.ProjectId,TeCoLab_Board,5465436f-4c61-4625-9f42-6f6172642e6b,1.1*
G04 #@! TF.SameCoordinates,Original*
G04 #@! TF.FileFunction,Copper,L1,Top*
G04 #@! TF.FilePolarity,Positive*
%FSLAX46Y46*%
G04 Gerber Fmt 4.6, Leading zero omitted, Abs format (unit mm)*
G04 Created by KiCad (PCBNEW 8.0.8) date 2025-02-21 23:14:13*
%MOMM*%
%LPD*%
G01*
G04 APERTURE LIST*
G04 Aperture macros list*
%AMRoundRect*
0 Rectangle with rounded corners*
0 $1 Rounding radius*
0 $2 $3 $4 $5 $6 $7 $8 $9 X,Y pos of 4 corners*
0 Add a 4 corners polygon primitive as box body*
4,1,4,$2,$3,$4,$5,$6,$7,$8,$9,$2,$3,0*
0 Add four circle primitives for the rounded corners*
1,1,$1+$1,$2,$3*
1,1,$1+$1,$4,$5*
1,1,$1+$1,$6,$7*
1,1,$1+$1,$8,$9*
0 Add four rect primitives between the rounded corners*
20,1,$1+$1,$2,$3,$4,$5,0*
20,1,$1+$1,$4,$5,$6,$7,0*
20,1,$1+$1,$6,$7,$8,$9,0*
20,1,$1+$1,$8,$9,$2,$3,0*%
G04 Aperture macros list end*
%ADD10C,0.300000*%
G04 #@! TA.AperFunction,NonConductor*
%ADD11C,0.300000*%
G04 #@! TD*
G04 #@! TA.AperFunction,ComponentPad*
%ADD12R,1.050000X1.500000*%
G04 #@! TD*
G04 #@! TA.AperFunction,ComponentPad*
%ADD13O,1.050000X1.500000*%
G04 #@! TD*
G04 #@! TA.AperFunction,ComponentPad*
%ADD14R,1.500000X1.050000*%
G04 #@! TD*
G04 #@! TA.AperFunction,ComponentPad*
%ADD15O,1.500000X1.050000*%
G04 #@! TD*
G04 #@! TA.AperFunction,ComponentPad*
%ADD16R,1.600000X1.600000*%
G04 #@! TD*
G04 #@! TA.AperFunction,ComponentPad*
%ADD17O,1.600000X1.600000*%
G04 #@! TD*
G04 #@! TA.AperFunction,ComponentPad*
%ADD18R,1.800000X1.800000*%
G04 #@! TD*
G04 #@! TA.AperFunction,ComponentPad*
%ADD19C,1.800000*%
G04 #@! TD*
G04 #@! TA.AperFunction,ComponentPad*
%ADD20C,1.600000*%
G04 #@! TD*
G04 #@! TA.AperFunction,ComponentPad*
%ADD21C,1.000000*%
G04 #@! TD*
G04 #@! TA.AperFunction,ComponentPad*
%ADD22O,2.400000X2.400000*%
G04 #@! TD*
G04 #@! TA.AperFunction,ComponentPad*
%ADD23C,2.400000*%
G04 #@! TD*
G04 #@! TA.AperFunction,ComponentPad*
%ADD24O,2.000000X1.905000*%
G04 #@! TD*
G04 #@! TA.AperFunction,ComponentPad*
%ADD25R,2.000000X1.905000*%
G04 #@! TD*
G04 #@! TA.AperFunction,ComponentPad*
%ADD26O,2.200000X2.200000*%
G04 #@! TD*
G04 #@! TA.AperFunction,ComponentPad*
%ADD27R,2.200000X2.200000*%
G04 #@! TD*
G04 #@! TA.AperFunction,ComponentPad*
%ADD28R,3.500000X3.500000*%
G04 #@! TD*
G04 #@! TA.AperFunction,ComponentPad*
%ADD29RoundRect,0.750000X-0.750000X-1.000000X0.750000X-1.000000X0.750000X1.000000X-0.750000X1.000000X0*%
G04 #@! TD*
G04 #@! TA.AperFunction,ComponentPad*
%ADD30RoundRect,0.875000X-0.875000X-0.875000X0.875000X-0.875000X0.875000X0.875000X-0.875000X0.875000X0*%
G04 #@! TD*
G04 #@! TA.AperFunction,ComponentPad*
%ADD31C,3.000000*%
G04 #@! TD*
G04 #@! TA.AperFunction,ComponentPad*
%ADD32R,3.000000X3.000000*%
G04 #@! TD*
G04 #@! TA.AperFunction,ViaPad*
%ADD33C,1.000000*%
G04 #@! TD*
G04 #@! TA.AperFunction,Conductor*
%ADD34C,0.200000*%
G04 #@! TD*
G04 #@! TA.AperFunction,Conductor*
%ADD35C,1.000000*%
G04 #@! TD*
G04 #@! TA.AperFunction,Conductor*
%ADD36C,0.500000*%
G04 #@! TD*
G04 APERTURE END LIST*
D10*
D11*
X165078114Y-124189128D02*
X165435257Y-125189128D01*
X165435257Y-125189128D02*
X165792400Y-124189128D01*
X168292400Y-125189128D02*
X167435257Y-125189128D01*
X167863828Y-125189128D02*
X167863828Y-123689128D01*
X167863828Y-123689128D02*
X167720971Y-123903414D01*
X167720971Y-123903414D02*
X167578114Y-124046271D01*
X167578114Y-124046271D02*
X167435257Y-124117700D01*
X168935256Y-125046271D02*
X169006685Y-125117700D01*
X169006685Y-125117700D02*
X168935256Y-125189128D01*
X168935256Y-125189128D02*
X168863828Y-125117700D01*
X168863828Y-125117700D02*
X168935256Y-125046271D01*
X168935256Y-125046271D02*
X168935256Y-125189128D01*
X170435257Y-125189128D02*
X169578114Y-125189128D01*
X170006685Y-125189128D02*
X170006685Y-123689128D01*
X170006685Y-123689128D02*
X169863828Y-123903414D01*
X169863828Y-123903414D02*
X169720971Y-124046271D01*
X169720971Y-124046271D02*
X169578114Y-124117700D01*
D12*
X171399200Y-117617240D03*
D13*
X170129200Y-117617240D03*
X168859200Y-117617240D03*
D14*
X148071840Y-43312080D03*
D15*
X148071840Y-44582080D03*
X148071840Y-45852080D03*
D12*
X198018400Y-60822840D03*
D13*
X196748400Y-60822840D03*
X195478400Y-60822840D03*
D16*
X181899560Y-76733400D03*
D17*
X181899560Y-74193400D03*
X181899560Y-71653400D03*
X181899560Y-69113400D03*
X181899560Y-66573400D03*
X181899560Y-64033400D03*
X181899560Y-61493400D03*
X181899560Y-58953400D03*
X181899560Y-56413400D03*
X181899560Y-53873400D03*
X181899560Y-51333400D03*
X181899560Y-48793400D03*
X181899560Y-46253400D03*
X181899560Y-43713400D03*
X181899560Y-41173400D03*
X166659560Y-41173400D03*
X166659560Y-43713400D03*
X166659560Y-46253400D03*
X166659560Y-48793400D03*
X166659560Y-51333400D03*
X166659560Y-53873400D03*
X166659560Y-56413400D03*
X166659560Y-58953400D03*
X166659560Y-61493400D03*
X166659560Y-64033400D03*
X166659560Y-66573400D03*
X166659560Y-69113400D03*
X166659560Y-71653400D03*
X166659560Y-74193400D03*
X166659560Y-76733400D03*
D18*
X186359800Y-86420960D03*
D19*
X186359800Y-83880960D03*
D14*
X134100000Y-45840000D03*
D15*
X134100000Y-44570000D03*
X134100000Y-43300000D03*
D18*
X191135000Y-86385400D03*
D19*
X191135000Y-83845400D03*
D17*
X190687960Y-59700160D03*
D20*
X190687960Y-67320160D03*
D17*
X162041840Y-48392080D03*
D20*
X162041840Y-40772080D03*
D17*
X180126640Y-90703400D03*
D20*
X172506640Y-90703400D03*
D17*
X184764680Y-103235760D03*
X184764680Y-100695760D03*
X192384680Y-100695760D03*
D16*
X192384680Y-103235760D03*
D17*
X172506640Y-94712536D03*
D20*
X180126640Y-94712536D03*
D17*
X184764680Y-110855760D03*
X184764680Y-108315760D03*
X192384680Y-108315760D03*
D16*
X192384680Y-110855760D03*
D17*
X198861680Y-72161400D03*
D20*
X198861680Y-79781400D03*
X124703840Y-47042080D03*
X124703840Y-42042080D03*
X158109920Y-46869360D03*
X158109920Y-41869360D03*
D21*
X163626800Y-74183240D03*
D17*
X186415680Y-79781400D03*
D20*
X186415680Y-72161400D03*
D22*
X145575866Y-83774280D03*
D23*
X145575866Y-63454280D03*
D17*
X192638680Y-79781400D03*
D20*
X192638680Y-72161400D03*
D17*
X172506640Y-102730808D03*
D20*
X180126640Y-102730808D03*
D22*
X138802533Y-63454280D03*
D23*
X138802533Y-83774280D03*
D17*
X184764680Y-95615760D03*
X184764680Y-93075760D03*
X192384680Y-93075760D03*
D16*
X192384680Y-95615760D03*
D17*
X172506640Y-110749080D03*
D20*
X180126640Y-110749080D03*
D24*
X137657840Y-47249080D03*
X137657840Y-44709080D03*
D25*
X137657840Y-42169080D03*
D17*
X180126640Y-98721672D03*
D20*
X172506640Y-98721672D03*
D17*
X195750180Y-72161400D03*
D20*
X195750180Y-79781400D03*
D21*
X163652200Y-69103240D03*
D17*
X189527180Y-72161400D03*
D20*
X189527180Y-79781400D03*
D17*
X180126640Y-106739944D03*
D20*
X172506640Y-106739944D03*
D24*
X144515840Y-42169080D03*
X144515840Y-44709080D03*
D25*
X144515840Y-47249080D03*
D17*
X120639840Y-40772080D03*
D20*
X120639840Y-48392080D03*
D22*
X152349200Y-63454280D03*
D23*
X152349200Y-83774280D03*
D22*
X132029200Y-83774280D03*
D23*
X132029200Y-63454280D03*
D20*
X198746120Y-67299840D03*
X193746120Y-67299840D03*
D21*
X184764680Y-51363880D03*
X184764680Y-53858160D03*
X184764680Y-56382920D03*
X184764680Y-58958480D03*
X184764680Y-63982600D03*
D26*
X119811800Y-61930280D03*
D27*
X119811800Y-72090280D03*
D20*
X115637320Y-72090280D03*
X110637320Y-72090280D03*
D28*
X120507760Y-79126080D03*
D29*
X114507760Y-79126080D03*
D30*
X117507760Y-83826080D03*
D31*
X110342680Y-57109360D03*
D32*
X110342680Y-52029360D03*
D20*
X114955200Y-65852040D03*
D16*
X111455200Y-65852040D03*
D31*
X183337200Y-122951240D03*
D32*
X178257200Y-122951240D03*
D26*
X186131200Y-116474240D03*
D27*
X175971200Y-116474240D03*
D21*
X184825640Y-48768000D03*
D33*
X158109920Y-51450240D03*
X132354320Y-39649400D03*
D34*
X191201080Y-67320160D02*
X190687960Y-67320160D01*
X196748400Y-60822840D02*
X196748400Y-61772840D01*
X196748400Y-61772840D02*
X191201080Y-67320160D01*
X190687960Y-62905640D02*
X185770520Y-67823080D01*
X167949880Y-67823080D02*
X166659560Y-69113400D01*
X185770520Y-67823080D02*
X167949880Y-67823080D01*
X190687960Y-59700160D02*
X190687960Y-62905640D01*
X167345360Y-39624000D02*
X163189920Y-39624000D01*
X158211520Y-44582080D02*
X148071840Y-44582080D01*
X179054760Y-51333400D02*
X167345360Y-39624000D01*
X163189920Y-39624000D02*
X162041840Y-40772080D01*
X161241841Y-41572079D02*
X161221521Y-41572079D01*
X161221521Y-41572079D02*
X158211520Y-44582080D01*
X181899560Y-51333400D02*
X179054760Y-51333400D01*
X162041840Y-40772080D02*
X161241841Y-41572079D01*
X186359800Y-86420960D02*
X191099440Y-86420960D01*
X192384680Y-89209880D02*
X191135000Y-87960200D01*
X191135000Y-87960200D02*
X191135000Y-86385400D01*
X192384680Y-93075760D02*
X192384680Y-89209880D01*
X158109920Y-51450240D02*
X158109920Y-46869360D01*
X191099440Y-86420960D02*
X191135000Y-86385400D01*
D35*
X116362480Y-62997080D02*
X119811800Y-66446400D01*
X119811800Y-66446400D02*
X119811800Y-72090280D01*
X112510160Y-62997080D02*
X116362480Y-62997080D01*
X111455200Y-65852040D02*
X111455200Y-64052040D01*
X111455200Y-64052040D02*
X112510160Y-62997080D01*
X110637320Y-72090280D02*
X110637320Y-66669920D01*
X110637320Y-66669920D02*
X111455200Y-65852040D01*
X144515840Y-44709080D02*
X142515840Y-44709080D01*
X175971200Y-110600290D02*
X175971200Y-116474240D01*
X124211080Y-85181440D02*
X124211080Y-74178160D01*
X178257200Y-118760240D02*
X175971200Y-116474240D01*
X142515840Y-44709080D02*
X141122400Y-43315640D01*
X174879000Y-103505000D02*
X174104808Y-102730808D01*
X119811800Y-72090280D02*
X119811800Y-74777600D01*
X131074160Y-37840920D02*
X127060960Y-41854120D01*
X174879000Y-103505000D02*
X174879000Y-95316040D01*
X174104808Y-102730808D02*
X172506640Y-102730808D01*
X172506640Y-94712536D02*
X174275496Y-94712536D01*
X161935160Y-89001600D02*
X128031240Y-89001600D01*
X139898120Y-37840920D02*
X131074160Y-37840920D01*
X141122400Y-39065200D02*
X139898120Y-37840920D01*
X124211080Y-74178160D02*
X122123200Y-72090280D01*
X174879000Y-109508090D02*
X174879000Y-103505000D01*
X174879000Y-109508090D02*
X173638010Y-110749080D01*
X174879000Y-109508090D02*
X175971200Y-110600290D01*
X172506640Y-94712536D02*
X167646096Y-94712536D01*
X174275496Y-94712536D02*
X174879000Y-95316040D01*
X122123200Y-72090280D02*
X119811800Y-72090280D01*
X128031240Y-89001600D02*
X124211080Y-85181440D01*
X141122400Y-43315640D02*
X141122400Y-39065200D01*
X127060960Y-41854120D02*
X127060960Y-59197240D01*
X144468340Y-44709080D02*
X144427700Y-44749720D01*
X167646096Y-94712536D02*
X161935160Y-89001600D01*
X123093480Y-63164720D02*
X119811800Y-66446400D01*
X119811800Y-74777600D02*
X120507760Y-75473560D01*
X178257200Y-122951240D02*
X178257200Y-118760240D01*
X144515840Y-44709080D02*
X144468340Y-44709080D01*
X173638010Y-110749080D02*
X172506640Y-110749080D01*
X127060960Y-59197240D02*
X123093480Y-63164720D01*
X120507760Y-75473560D02*
X120507760Y-79126080D01*
X115637320Y-72090280D02*
X115637320Y-66534160D01*
X115637320Y-66534160D02*
X114955200Y-65852040D01*
X159410400Y-83774280D02*
X152349200Y-83774280D01*
X166339520Y-90703400D02*
X159410400Y-83774280D01*
X151206200Y-86766400D02*
X152349200Y-85623400D01*
X114507760Y-79126080D02*
X114507760Y-73219840D01*
X152349200Y-85623400D02*
X152349200Y-83774280D01*
X114507760Y-73219840D02*
X115637320Y-72090280D01*
X138802533Y-85471336D02*
X140097597Y-86766400D01*
X172506640Y-90703400D02*
X166339520Y-90703400D01*
X140097597Y-86766400D02*
X151206200Y-86766400D01*
X138802533Y-83774280D02*
X138802533Y-85471336D01*
X183337200Y-119268240D02*
X186131200Y-116474240D01*
X183337200Y-122951240D02*
X183337200Y-119268240D01*
D36*
X184764680Y-108315760D02*
X181702456Y-108315760D01*
X181702456Y-108315760D02*
X180126640Y-106739944D01*
X173573440Y-88762840D02*
X176215040Y-91404440D01*
X178274472Y-98721672D02*
X180126640Y-98721672D01*
X176215040Y-96662240D02*
X178274472Y-98721672D01*
X158023560Y-61955680D02*
X158023560Y-79629000D01*
X176215040Y-91404440D02*
X176215040Y-96662240D01*
X140182600Y-44646340D02*
X140182600Y-53456840D01*
X180126640Y-98721672D02*
X182790592Y-98721672D01*
X167157400Y-88762840D02*
X173573440Y-88762840D01*
X137657840Y-42169080D02*
X137705340Y-42169080D01*
X137705340Y-42169080D02*
X140182600Y-44646340D01*
X140182600Y-53456840D02*
X146446240Y-59720480D01*
X158023560Y-79629000D02*
X167157400Y-88762840D01*
X155788360Y-59720480D02*
X158023560Y-61955680D01*
X182790592Y-98721672D02*
X184764680Y-100695760D01*
X146446240Y-59720480D02*
X155788360Y-59720480D01*
D35*
X142052040Y-59100720D02*
X137657840Y-54706520D01*
X145575866Y-83774280D02*
X145575866Y-75410906D01*
X142052040Y-71887080D02*
X142052040Y-59100720D01*
X137657840Y-54706520D02*
X137657840Y-47249080D01*
X145575866Y-75410906D02*
X142052040Y-71887080D01*
X129011680Y-69352160D02*
X129011680Y-42992040D01*
X132029200Y-83774280D02*
X132029200Y-72369680D01*
X132029200Y-72369680D02*
X129011680Y-69352160D01*
X129011680Y-42992040D02*
X132354320Y-39649400D01*
D36*
X167807640Y-87426800D02*
X174299880Y-87426800D01*
X177576480Y-90703400D02*
X180126640Y-90703400D01*
X159293560Y-61600080D02*
X159293560Y-78912720D01*
X144515840Y-56118760D02*
X147030440Y-58633360D01*
X147030440Y-58633360D02*
X156326840Y-58633360D01*
X156326840Y-58633360D02*
X159293560Y-61600080D01*
X182392320Y-90703400D02*
X184764680Y-93075760D01*
X174299880Y-87426800D02*
X177576480Y-90703400D01*
X159293560Y-78912720D02*
X167807640Y-87426800D01*
X180126640Y-90703400D02*
X182392320Y-90703400D01*
X144515840Y-47249080D02*
X144515840Y-56118760D01*
X184764680Y-110855760D02*
X180233320Y-110855760D01*
X180233320Y-110855760D02*
X180126640Y-110749080D01*
X184764680Y-103235760D02*
X180631592Y-103235760D01*
X180631592Y-103235760D02*
X180126640Y-102730808D01*
X184383680Y-95996760D02*
X184764680Y-95615760D01*
X181029864Y-95615760D02*
X180126640Y-94712536D01*
X184764680Y-95615760D02*
X181029864Y-95615760D01*
D35*
X152349200Y-63454280D02*
X145575866Y-63454280D01*
X138802533Y-63454280D02*
X132029200Y-63454280D01*
X110342680Y-57109360D02*
X117509360Y-57109360D01*
X119811800Y-59411800D02*
X119811800Y-61930280D01*
X117509360Y-57109360D02*
X119811800Y-59411800D01*
M02*
