G04 #@! TF.GenerationSoftware,KiCad,Pcbnew,5.1.5+dfsg1-2build2*
G04 #@! TF.CreationDate,2022-01-27T10:42:47-03:00*
G04 #@! TF.ProjectId,TeCoLab_Board,5465436f-4c61-4625-9f42-6f6172642e6b,1.00*
G04 #@! TF.SameCoordinates,Original*
G04 #@! TF.FileFunction,Copper,L2,Bot*
G04 #@! TF.FilePolarity,Positive*
%FSLAX46Y46*%
G04 Gerber Fmt 4.6, Leading zero omitted, Abs format (unit mm)*
G04 Created by KiCad (PCBNEW 5.1.5+dfsg1-2build2) date 2022-01-27 10:42:47*
%MOMM*%
%LPD*%
G04 APERTURE LIST*
%ADD10C,0.300000*%
%ADD11R,1.600000X1.600000*%
%ADD12O,1.600000X1.600000*%
%ADD13C,1.600000*%
%ADD14O,2.400000X2.400000*%
%ADD15C,2.400000*%
%ADD16R,1.800000X1.800000*%
%ADD17C,1.800000*%
%ADD18R,2.200000X2.200000*%
%ADD19O,2.200000X2.200000*%
%ADD20R,3.500000X3.500000*%
%ADD21C,0.150000*%
%ADD22R,3.000000X3.000000*%
%ADD23C,3.000000*%
%ADD24O,1.050000X1.500000*%
%ADD25R,1.050000X1.500000*%
%ADD26R,2.000000X1.905000*%
%ADD27O,2.000000X1.905000*%
%ADD28O,1.500000X1.050000*%
%ADD29R,1.500000X1.050000*%
%ADD30C,1.000000*%
%ADD31C,0.200000*%
%ADD32C,1.000000*%
%ADD33C,0.500000*%
G04 APERTURE END LIST*
D10*
X170430485Y-124265571D02*
X170073342Y-125265571D01*
X169716200Y-124265571D01*
X167216200Y-125265571D02*
X168073342Y-125265571D01*
X167644771Y-125265571D02*
X167644771Y-123765571D01*
X167787628Y-123979857D01*
X167930485Y-124122714D01*
X168073342Y-124194142D01*
X166573342Y-125122714D02*
X166501914Y-125194142D01*
X166573342Y-125265571D01*
X166644771Y-125194142D01*
X166573342Y-125122714D01*
X166573342Y-125265571D01*
X165573342Y-123765571D02*
X165430485Y-123765571D01*
X165287628Y-123837000D01*
X165216200Y-123908428D01*
X165144771Y-124051285D01*
X165073342Y-124337000D01*
X165073342Y-124694142D01*
X165144771Y-124979857D01*
X165216200Y-125122714D01*
X165287628Y-125194142D01*
X165430485Y-125265571D01*
X165573342Y-125265571D01*
X165716200Y-125194142D01*
X165787628Y-125122714D01*
X165859057Y-124979857D01*
X165930485Y-124694142D01*
X165930485Y-124337000D01*
X165859057Y-124051285D01*
X165787628Y-123908428D01*
X165716200Y-123837000D01*
X165573342Y-123765571D01*
D11*
X192384680Y-95615760D03*
D12*
X184764680Y-93075760D03*
X192384680Y-93075760D03*
X184764680Y-95615760D03*
D13*
X115637320Y-72090280D03*
X110637320Y-72090280D03*
D11*
X181899560Y-76733400D03*
D12*
X166659560Y-43713400D03*
X181899560Y-74193400D03*
X166659560Y-46253400D03*
X181899560Y-71653400D03*
X166659560Y-48793400D03*
X181899560Y-69113400D03*
X166659560Y-51333400D03*
X181899560Y-66573400D03*
X166659560Y-53873400D03*
X181899560Y-64033400D03*
X166659560Y-56413400D03*
X181899560Y-61493400D03*
X166659560Y-58953400D03*
X181899560Y-58953400D03*
X166659560Y-61493400D03*
X181899560Y-56413400D03*
X166659560Y-64033400D03*
X181899560Y-53873400D03*
X166659560Y-66573400D03*
X181899560Y-51333400D03*
X166659560Y-69113400D03*
X181899560Y-48793400D03*
X166659560Y-71653400D03*
X181899560Y-46253400D03*
X166659560Y-74193400D03*
X181899560Y-43713400D03*
X166659560Y-76733400D03*
X181899560Y-41173400D03*
X166659560Y-41173400D03*
D14*
X152349200Y-63454280D03*
D15*
X152349200Y-83774280D03*
X132029200Y-63454280D03*
D14*
X132029200Y-83774280D03*
D11*
X111455200Y-65852040D03*
D13*
X114955200Y-65852040D03*
X193746120Y-67299840D03*
X198746120Y-67299840D03*
X124703840Y-47042080D03*
X124703840Y-42042080D03*
X158109920Y-41869360D03*
X158109920Y-46869360D03*
D16*
X191135000Y-86385400D03*
D17*
X191135000Y-83845400D03*
X186359800Y-83880960D03*
D16*
X186359800Y-86420960D03*
D18*
X119811800Y-72090280D03*
D19*
X119811800Y-61930280D03*
X186131200Y-116474240D03*
D18*
X175971200Y-116474240D03*
D20*
X120507760Y-79126080D03*
G04 #@! TA.AperFunction,ComponentPad*
D21*
G36*
X115331273Y-77379691D02*
G01*
X115404078Y-77390491D01*
X115475474Y-77408375D01*
X115544773Y-77433170D01*
X115611308Y-77464639D01*
X115674438Y-77502478D01*
X115733555Y-77546322D01*
X115788090Y-77595750D01*
X115837518Y-77650285D01*
X115881362Y-77709402D01*
X115919201Y-77772532D01*
X115950670Y-77839067D01*
X115975465Y-77908366D01*
X115993349Y-77979762D01*
X116004149Y-78052567D01*
X116007760Y-78126080D01*
X116007760Y-80126080D01*
X116004149Y-80199593D01*
X115993349Y-80272398D01*
X115975465Y-80343794D01*
X115950670Y-80413093D01*
X115919201Y-80479628D01*
X115881362Y-80542758D01*
X115837518Y-80601875D01*
X115788090Y-80656410D01*
X115733555Y-80705838D01*
X115674438Y-80749682D01*
X115611308Y-80787521D01*
X115544773Y-80818990D01*
X115475474Y-80843785D01*
X115404078Y-80861669D01*
X115331273Y-80872469D01*
X115257760Y-80876080D01*
X113757760Y-80876080D01*
X113684247Y-80872469D01*
X113611442Y-80861669D01*
X113540046Y-80843785D01*
X113470747Y-80818990D01*
X113404212Y-80787521D01*
X113341082Y-80749682D01*
X113281965Y-80705838D01*
X113227430Y-80656410D01*
X113178002Y-80601875D01*
X113134158Y-80542758D01*
X113096319Y-80479628D01*
X113064850Y-80413093D01*
X113040055Y-80343794D01*
X113022171Y-80272398D01*
X113011371Y-80199593D01*
X113007760Y-80126080D01*
X113007760Y-78126080D01*
X113011371Y-78052567D01*
X113022171Y-77979762D01*
X113040055Y-77908366D01*
X113064850Y-77839067D01*
X113096319Y-77772532D01*
X113134158Y-77709402D01*
X113178002Y-77650285D01*
X113227430Y-77595750D01*
X113281965Y-77546322D01*
X113341082Y-77502478D01*
X113404212Y-77464639D01*
X113470747Y-77433170D01*
X113540046Y-77408375D01*
X113611442Y-77390491D01*
X113684247Y-77379691D01*
X113757760Y-77376080D01*
X115257760Y-77376080D01*
X115331273Y-77379691D01*
G37*
G04 #@! TD.AperFunction*
G04 #@! TA.AperFunction,ComponentPad*
G36*
X118468525Y-82080293D02*
G01*
X118553464Y-82092893D01*
X118636759Y-82113757D01*
X118717608Y-82142685D01*
X118795232Y-82179399D01*
X118868884Y-82223544D01*
X118937854Y-82274696D01*
X119001478Y-82332362D01*
X119059144Y-82395986D01*
X119110296Y-82464956D01*
X119154441Y-82538608D01*
X119191155Y-82616232D01*
X119220083Y-82697081D01*
X119240947Y-82780376D01*
X119253547Y-82865315D01*
X119257760Y-82951080D01*
X119257760Y-84701080D01*
X119253547Y-84786845D01*
X119240947Y-84871784D01*
X119220083Y-84955079D01*
X119191155Y-85035928D01*
X119154441Y-85113552D01*
X119110296Y-85187204D01*
X119059144Y-85256174D01*
X119001478Y-85319798D01*
X118937854Y-85377464D01*
X118868884Y-85428616D01*
X118795232Y-85472761D01*
X118717608Y-85509475D01*
X118636759Y-85538403D01*
X118553464Y-85559267D01*
X118468525Y-85571867D01*
X118382760Y-85576080D01*
X116632760Y-85576080D01*
X116546995Y-85571867D01*
X116462056Y-85559267D01*
X116378761Y-85538403D01*
X116297912Y-85509475D01*
X116220288Y-85472761D01*
X116146636Y-85428616D01*
X116077666Y-85377464D01*
X116014042Y-85319798D01*
X115956376Y-85256174D01*
X115905224Y-85187204D01*
X115861079Y-85113552D01*
X115824365Y-85035928D01*
X115795437Y-84955079D01*
X115774573Y-84871784D01*
X115761973Y-84786845D01*
X115757760Y-84701080D01*
X115757760Y-82951080D01*
X115761973Y-82865315D01*
X115774573Y-82780376D01*
X115795437Y-82697081D01*
X115824365Y-82616232D01*
X115861079Y-82538608D01*
X115905224Y-82464956D01*
X115956376Y-82395986D01*
X116014042Y-82332362D01*
X116077666Y-82274696D01*
X116146636Y-82223544D01*
X116220288Y-82179399D01*
X116297912Y-82142685D01*
X116378761Y-82113757D01*
X116462056Y-82092893D01*
X116546995Y-82080293D01*
X116632760Y-82076080D01*
X118382760Y-82076080D01*
X118468525Y-82080293D01*
G37*
G04 #@! TD.AperFunction*
D22*
X110342680Y-52029360D03*
D23*
X110342680Y-57109360D03*
X183337200Y-122951240D03*
D22*
X178257200Y-122951240D03*
D24*
X170129200Y-117617240D03*
X168859200Y-117617240D03*
D25*
X171399200Y-117617240D03*
D26*
X137657840Y-42169080D03*
D27*
X137657840Y-44709080D03*
X137657840Y-47249080D03*
X144515840Y-42169080D03*
X144515840Y-44709080D03*
D26*
X144515840Y-47249080D03*
D13*
X186415680Y-72161400D03*
D12*
X186415680Y-79781400D03*
X192638680Y-79781400D03*
D13*
X192638680Y-72161400D03*
D12*
X190687960Y-59700160D03*
D13*
X190687960Y-67320160D03*
X189527180Y-79781400D03*
D12*
X189527180Y-72161400D03*
X120639840Y-40772080D03*
D13*
X120639840Y-48392080D03*
D12*
X172506640Y-110749080D03*
D13*
X180126640Y-110749080D03*
X172506640Y-106739944D03*
D12*
X180126640Y-106739944D03*
D13*
X162041840Y-40772080D03*
D12*
X162041840Y-48392080D03*
D13*
X195750180Y-79781400D03*
D12*
X195750180Y-72161400D03*
X198861680Y-72161400D03*
D13*
X198861680Y-79781400D03*
X180126640Y-102730808D03*
D12*
X172506640Y-102730808D03*
X180126640Y-98721672D03*
D13*
X172506640Y-98721672D03*
D12*
X172506640Y-94712536D03*
D13*
X180126640Y-94712536D03*
X172506640Y-90703400D03*
D12*
X180126640Y-90703400D03*
D15*
X145575866Y-63454280D03*
D14*
X145575866Y-83774280D03*
X138802533Y-63454280D03*
D15*
X138802533Y-83774280D03*
D25*
X198018400Y-60822840D03*
D24*
X195478400Y-60822840D03*
X196748400Y-60822840D03*
D11*
X192384680Y-110855760D03*
D12*
X184764680Y-108315760D03*
X192384680Y-108315760D03*
X184764680Y-110855760D03*
D28*
X134101840Y-44582080D03*
X134101840Y-43312080D03*
D29*
X134101840Y-45852080D03*
X148071840Y-43312080D03*
D28*
X148071840Y-45852080D03*
X148071840Y-44582080D03*
D12*
X184764680Y-103235760D03*
X192384680Y-100695760D03*
X184764680Y-100695760D03*
D11*
X192384680Y-103235760D03*
D30*
X163626800Y-74183240D03*
X184764680Y-63982600D03*
X184764680Y-58958480D03*
X184764680Y-56382920D03*
X184764680Y-53858160D03*
X184764680Y-51363880D03*
X163652200Y-69103240D03*
X184825640Y-48768000D03*
X158109920Y-51450240D03*
X132354320Y-39649400D03*
D31*
X181959050Y-66573400D02*
X181899560Y-66573400D01*
X186415680Y-71030030D02*
X181959050Y-66573400D01*
X186415680Y-72161400D02*
X186415680Y-71030030D01*
X181924960Y-64008000D02*
X181899560Y-64033400D01*
X184739280Y-64033400D02*
X184790080Y-63982600D01*
X184713880Y-64033400D02*
X184764680Y-63982600D01*
X181899560Y-64033400D02*
X184713880Y-64033400D01*
X188727181Y-71361401D02*
X188724641Y-71361401D01*
X189527180Y-72161400D02*
X188727181Y-71361401D01*
X184764680Y-67401440D02*
X184764680Y-63982600D01*
X188724641Y-71361401D02*
X184764680Y-67401440D01*
X192638680Y-71030030D02*
X192220650Y-70612000D01*
X192638680Y-72161400D02*
X192638680Y-71030030D01*
X192220650Y-70612000D02*
X189326520Y-70612000D01*
X189326520Y-70612000D02*
X185729880Y-67015360D01*
X185729880Y-67015360D02*
X185729880Y-63296800D01*
X183926480Y-61493400D02*
X181899560Y-61493400D01*
X185729880Y-63296800D02*
X183926480Y-61493400D01*
X181924960Y-58928000D02*
X181899560Y-58953400D01*
X181904640Y-58958480D02*
X181899560Y-58953400D01*
X184759600Y-58953400D02*
X184764680Y-58958480D01*
X181899560Y-58953400D02*
X184759600Y-58953400D01*
X194919600Y-70048120D02*
X195750180Y-70878700D01*
X195750180Y-70878700D02*
X195750180Y-72161400D01*
X189687200Y-70048120D02*
X194919600Y-70048120D01*
X189585600Y-69946520D02*
X189687200Y-70048120D01*
X189585600Y-69941440D02*
X189585600Y-69946520D01*
X186397900Y-66802000D02*
X189537340Y-69941440D01*
X186397900Y-59636660D02*
X186397900Y-66802000D01*
X185719720Y-58958480D02*
X186397900Y-59636660D01*
X184764680Y-58958480D02*
X185719720Y-58958480D01*
X181930040Y-56382920D02*
X181899560Y-56413400D01*
X184734200Y-56413400D02*
X184764680Y-56382920D01*
X181899560Y-56413400D02*
X184734200Y-56413400D01*
X185694320Y-56382920D02*
X184764680Y-56382920D01*
X187065920Y-57754520D02*
X185694320Y-56382920D01*
X187065920Y-66751200D02*
X187065920Y-57754520D01*
X189748160Y-69433440D02*
X187065920Y-66751200D01*
X197265090Y-69433440D02*
X189748160Y-69433440D01*
X198861680Y-71030030D02*
X197265090Y-69433440D01*
X198861680Y-72161400D02*
X198861680Y-71030030D01*
X181950360Y-53822600D02*
X181899560Y-53873400D01*
X181914800Y-53858160D02*
X181899560Y-53873400D01*
X184749440Y-53873400D02*
X184764680Y-53858160D01*
X181899560Y-53873400D02*
X184749440Y-53873400D01*
X184764680Y-53858160D02*
X191739520Y-53858160D01*
X196748400Y-58867040D02*
X196748400Y-60822840D01*
X191739520Y-53858160D02*
X196748400Y-58867040D01*
X181930040Y-51363880D02*
X181899560Y-51333400D01*
X184734200Y-51333400D02*
X184764680Y-51363880D01*
X181899560Y-51333400D02*
X184734200Y-51333400D01*
X136921240Y-50017680D02*
X146293840Y-50017680D01*
X148071840Y-48239680D02*
X148071840Y-45852080D01*
X162041840Y-45801280D02*
X158109920Y-41869360D01*
X162041840Y-48392080D02*
X162041840Y-45801280D01*
X146293840Y-50017680D02*
X148071840Y-48239680D01*
X160416240Y-50017680D02*
X162041840Y-48392080D01*
X146293840Y-50017680D02*
X160416240Y-50017680D01*
X193766440Y-63484800D02*
X193766440Y-66085720D01*
X195478400Y-61772840D02*
X193766440Y-63484800D01*
X195478400Y-60822840D02*
X195478400Y-61772840D01*
X193766440Y-66085720D02*
X193746120Y-65628520D01*
X193746120Y-67299840D02*
X193766440Y-66085720D01*
X166649400Y-69103240D02*
X166659560Y-69113400D01*
X163652200Y-69103240D02*
X166649400Y-69103240D01*
X163652200Y-50002440D02*
X162041840Y-48392080D01*
X163652200Y-69103240D02*
X163652200Y-50002440D01*
X190687960Y-59700160D02*
X192369440Y-59700160D01*
X193492120Y-60822840D02*
X195478400Y-60822840D01*
X192369440Y-59700160D02*
X193492120Y-60822840D01*
X135051840Y-43312080D02*
X135402320Y-43662560D01*
X134101840Y-43312080D02*
X135051840Y-43312080D01*
X135402320Y-48498760D02*
X136921240Y-50017680D01*
X135402320Y-43662560D02*
X135402320Y-48498760D01*
X120639840Y-40772080D02*
X121940320Y-40772080D01*
X123210320Y-42042080D02*
X124703840Y-42042080D01*
X121940320Y-40772080D02*
X123210320Y-42042080D01*
X124703840Y-42042080D02*
X128666240Y-42042080D01*
X129936240Y-43312080D02*
X134101840Y-43312080D01*
X128666240Y-42042080D02*
X129936240Y-43312080D01*
X181950360Y-48742600D02*
X181899560Y-48793400D01*
X120639840Y-48392080D02*
X120639840Y-46974760D01*
X123032520Y-44582080D02*
X134101840Y-44582080D01*
X120639840Y-46974760D02*
X123032520Y-44582080D01*
X181924960Y-48768000D02*
X181899560Y-48793400D01*
X184825640Y-48768000D02*
X181924960Y-48768000D01*
X178368960Y-48793400D02*
X181899560Y-48793400D01*
X119852440Y-37927280D02*
X167502840Y-37927280D01*
X118760240Y-39019480D02*
X119852440Y-37927280D01*
X118760240Y-47894240D02*
X118760240Y-39019480D01*
X167502840Y-37927280D02*
X178368960Y-48793400D01*
X119258080Y-48392080D02*
X118760240Y-47894240D01*
X120639840Y-48392080D02*
X119258080Y-48392080D01*
X157309921Y-46069361D02*
X157309921Y-46068081D01*
X158109920Y-46869360D02*
X157309921Y-46069361D01*
X154553920Y-43312080D02*
X148071840Y-43312080D01*
X157309921Y-46068081D02*
X154553920Y-43312080D01*
X198018400Y-66572120D02*
X198746120Y-67299840D01*
X198018400Y-60822840D02*
X198018400Y-66572120D01*
X154553920Y-43312080D02*
X154553920Y-41107360D01*
X191099440Y-86420960D02*
X191135000Y-86385400D01*
X156921200Y-38755320D02*
X156889410Y-38771870D01*
X154553920Y-41107360D02*
X156921200Y-38755320D01*
X166649400Y-74183240D02*
X166659560Y-74193400D01*
X163626800Y-74183240D02*
X166649400Y-74183240D01*
X166659560Y-74193400D02*
X168686480Y-74193400D01*
X194298370Y-100250190D02*
X193852800Y-100695760D01*
X193852800Y-100695760D02*
X192384680Y-100695760D01*
X194298370Y-93858080D02*
X194298370Y-100250190D01*
X193516050Y-93075760D02*
X194298370Y-93858080D01*
X192384680Y-93075760D02*
X193516050Y-93075760D01*
X193852800Y-100695760D02*
X193873120Y-100695760D01*
X194298370Y-107804150D02*
X193786760Y-108315760D01*
X194298370Y-101141330D02*
X194298370Y-107804150D01*
X193786760Y-108315760D02*
X192384680Y-108315760D01*
X193852800Y-100695760D02*
X194298370Y-101141330D01*
X186359800Y-86420960D02*
X181315360Y-86420960D01*
X169087800Y-74193400D02*
X168686480Y-74193400D01*
X181315360Y-86420960D02*
X169087800Y-74193400D01*
X161965640Y-72522080D02*
X163626800Y-74183240D01*
X161965640Y-52496720D02*
X161965640Y-72522080D01*
X161965640Y-52496720D02*
X161965640Y-52293520D01*
X161122360Y-51450240D02*
X158109920Y-51450240D01*
X161965640Y-52293520D02*
X161122360Y-51450240D01*
X134101840Y-48260000D02*
X134101840Y-45852080D01*
X137292080Y-51450240D02*
X134101840Y-48260000D01*
X158109920Y-51450240D02*
X137292080Y-51450240D01*
X190388240Y-50109120D02*
X198018400Y-57739280D01*
X198018400Y-57739280D02*
X198018400Y-60822840D01*
X187133778Y-50109120D02*
X190388240Y-50109120D01*
X187128698Y-50114200D02*
X187133778Y-50109120D01*
X178932840Y-50114200D02*
X187128698Y-50114200D01*
X167573960Y-38755320D02*
X178932840Y-50114200D01*
X156921200Y-38755320D02*
X167573960Y-38755320D01*
X124703840Y-47042080D02*
X128893560Y-47042080D01*
X130083560Y-45852080D02*
X134101840Y-45852080D01*
X128893560Y-47042080D02*
X130083560Y-45852080D01*
D32*
X137657840Y-44709080D02*
X144515840Y-44709080D01*
X112842680Y-52029360D02*
X110342680Y-52029360D01*
X114955200Y-54141880D02*
X112842680Y-52029360D01*
X114955200Y-65852040D02*
X114955200Y-54141880D01*
X172506640Y-106739944D02*
X171276264Y-106739944D01*
X171276264Y-106739944D02*
X170215560Y-105679240D01*
X170215560Y-105679240D02*
X170215560Y-99786440D01*
X171280328Y-98721672D02*
X172506640Y-98721672D01*
X170215560Y-99786440D02*
X171280328Y-98721672D01*
X170215560Y-99786440D02*
X170215560Y-91942920D01*
X170215560Y-91863110D02*
X170215560Y-91942920D01*
X171375270Y-90703400D02*
X170215560Y-91863110D01*
X172506640Y-90703400D02*
X171375270Y-90703400D01*
X168859200Y-109157008D02*
X171276264Y-106739944D01*
X168859200Y-117617240D02*
X168859200Y-109157008D01*
X114507760Y-77376080D02*
X116445840Y-75438000D01*
X114507760Y-79126080D02*
X114507760Y-77376080D01*
X116445840Y-75438000D02*
X133248400Y-75438000D01*
X138802533Y-80992133D02*
X138802533Y-83774280D01*
X133248400Y-75438000D02*
X138802533Y-80992133D01*
D31*
X192638680Y-82341720D02*
X192638680Y-79781400D01*
X191135000Y-83845400D02*
X192638680Y-82341720D01*
X186415680Y-83825080D02*
X186359800Y-83880960D01*
X186415680Y-79781400D02*
X186415680Y-83825080D01*
D32*
X172924200Y-117617240D02*
X174788560Y-119481600D01*
X171399200Y-117617240D02*
X172924200Y-117617240D01*
X179867560Y-119481600D02*
X183337200Y-122951240D01*
X174788560Y-119481600D02*
X179867560Y-119481600D01*
D33*
X179756496Y-106739944D02*
X180126640Y-106739944D01*
X170129200Y-116367240D02*
X179756496Y-106739944D01*
X170129200Y-117617240D02*
X170129200Y-116367240D01*
D32*
X144515840Y-40216580D02*
X144515840Y-42169080D01*
X143948660Y-39649400D02*
X144515840Y-40216580D01*
X132354320Y-39649400D02*
X143948660Y-39649400D01*
D31*
X188727181Y-80581399D02*
X188727181Y-109250581D01*
X189527180Y-79781400D02*
X188727181Y-80581399D01*
X190332360Y-110855760D02*
X192384680Y-110855760D01*
X188727181Y-109250581D02*
X190332360Y-110855760D01*
X190957200Y-103235760D02*
X192384680Y-103235760D01*
X189687250Y-101965810D02*
X190957200Y-103235760D01*
X189687250Y-90388440D02*
X189687250Y-101965810D01*
X191272210Y-88803480D02*
X189687250Y-90388440D01*
X194203320Y-88803480D02*
X191272210Y-88803480D01*
X195750180Y-87256620D02*
X194203320Y-88803480D01*
X195750180Y-79781400D02*
X195750180Y-87256620D01*
X191384680Y-95615760D02*
X192384680Y-95615760D01*
X190647320Y-94878400D02*
X191384680Y-95615760D01*
X190647320Y-90769440D02*
X190647320Y-94878400D01*
X191790320Y-89626440D02*
X190647320Y-90769440D01*
X194741800Y-89626440D02*
X191790320Y-89626440D01*
X198861680Y-85506560D02*
X194741800Y-89626440D01*
X198861680Y-79781400D02*
X198861680Y-85506560D01*
M02*
