G04 #@! TF.GenerationSoftware,KiCad,Pcbnew,5.1.5+dfsg1-2build2*
G04 #@! TF.CreationDate,2022-01-27T10:42:47-03:00*
G04 #@! TF.ProjectId,TeCoLab_Board,5465436f-4c61-4625-9f42-6f6172642e6b,1.00*
G04 #@! TF.SameCoordinates,Original*
G04 #@! TF.FileFunction,Soldermask,Bot*
G04 #@! TF.FilePolarity,Negative*
%FSLAX46Y46*%
G04 Gerber Fmt 4.6, Leading zero omitted, Abs format (unit mm)*
G04 Created by KiCad (PCBNEW 5.1.5+dfsg1-2build2) date 2022-01-27 10:42:47*
%MOMM*%
%LPD*%
G04 APERTURE LIST*
%ADD10C,0.150000*%
G04 APERTURE END LIST*
D10*
G36*
X183639785Y-121430042D02*
G01*
X183789610Y-121459844D01*
X184071874Y-121576761D01*
X184325905Y-121746499D01*
X184541941Y-121962535D01*
X184711679Y-122216566D01*
X184828596Y-122498830D01*
X184828596Y-122498831D01*
X184888200Y-122798479D01*
X184888200Y-123104001D01*
X184858398Y-123253825D01*
X184828596Y-123403650D01*
X184711679Y-123685914D01*
X184541941Y-123939945D01*
X184325905Y-124155981D01*
X184071874Y-124325719D01*
X183789610Y-124442636D01*
X183639785Y-124472438D01*
X183489961Y-124502240D01*
X183184439Y-124502240D01*
X183034615Y-124472438D01*
X182884790Y-124442636D01*
X182602526Y-124325719D01*
X182348495Y-124155981D01*
X182132459Y-123939945D01*
X181962721Y-123685914D01*
X181845804Y-123403650D01*
X181816002Y-123253825D01*
X181786200Y-123104001D01*
X181786200Y-122798479D01*
X181845804Y-122498831D01*
X181845804Y-122498830D01*
X181962721Y-122216566D01*
X182132459Y-121962535D01*
X182348495Y-121746499D01*
X182602526Y-121576761D01*
X182884790Y-121459844D01*
X183034615Y-121430042D01*
X183184439Y-121400240D01*
X183489961Y-121400240D01*
X183639785Y-121430042D01*
G37*
G36*
X179808200Y-124502240D02*
G01*
X176706200Y-124502240D01*
X176706200Y-121400240D01*
X179808200Y-121400240D01*
X179808200Y-124502240D01*
G37*
G36*
X195469183Y-118305528D02*
G01*
X196024429Y-118535518D01*
X196024430Y-118535519D01*
X196524139Y-118869414D01*
X196949106Y-119294381D01*
X197006349Y-119380051D01*
X197283002Y-119794091D01*
X197512992Y-120349337D01*
X197630240Y-120938781D01*
X197630240Y-121539779D01*
X197512992Y-122129223D01*
X197283002Y-122684469D01*
X197283001Y-122684470D01*
X196949106Y-123184179D01*
X196524139Y-123609146D01*
X196272587Y-123777228D01*
X196024429Y-123943042D01*
X195469183Y-124173032D01*
X194879739Y-124290280D01*
X194278741Y-124290280D01*
X193689297Y-124173032D01*
X193134051Y-123943042D01*
X192885893Y-123777228D01*
X192634341Y-123609146D01*
X192209374Y-123184179D01*
X191875479Y-122684470D01*
X191875478Y-122684469D01*
X191645488Y-122129223D01*
X191528240Y-121539779D01*
X191528240Y-120938781D01*
X191645488Y-120349337D01*
X191875478Y-119794091D01*
X192152131Y-119380051D01*
X192209374Y-119294381D01*
X192634341Y-118869414D01*
X193134050Y-118535519D01*
X193134051Y-118535518D01*
X193689297Y-118305528D01*
X194278741Y-118188280D01*
X194879739Y-118188280D01*
X195469183Y-118305528D01*
G37*
G36*
X112909023Y-118295368D02*
G01*
X113464269Y-118525358D01*
X113464270Y-118525359D01*
X113963979Y-118859254D01*
X114388946Y-119284221D01*
X114557028Y-119535773D01*
X114722842Y-119783931D01*
X114952832Y-120339177D01*
X115070080Y-120928621D01*
X115070080Y-121529619D01*
X114952832Y-122119063D01*
X114722842Y-122674309D01*
X114639874Y-122798479D01*
X114388946Y-123174019D01*
X113963979Y-123598986D01*
X113948773Y-123609146D01*
X113464269Y-123932882D01*
X112909023Y-124162872D01*
X112319579Y-124280120D01*
X111718581Y-124280120D01*
X111129137Y-124162872D01*
X110573891Y-123932882D01*
X110089387Y-123609146D01*
X110074181Y-123598986D01*
X109649214Y-123174019D01*
X109398286Y-122798479D01*
X109315318Y-122674309D01*
X109085328Y-122119063D01*
X108968080Y-121529619D01*
X108968080Y-120928621D01*
X109085328Y-120339177D01*
X109315318Y-119783931D01*
X109481132Y-119535773D01*
X109649214Y-119284221D01*
X110074181Y-118859254D01*
X110573890Y-118525359D01*
X110573891Y-118525358D01*
X111129137Y-118295368D01*
X111718581Y-118178120D01*
X112319579Y-118178120D01*
X112909023Y-118295368D01*
G37*
G36*
X158337856Y-117608738D02*
G01*
X158444179Y-117629887D01*
X158744642Y-117754343D01*
X159015051Y-117935025D01*
X159245015Y-118164989D01*
X159425697Y-118435398D01*
X159550153Y-118735861D01*
X159613600Y-119054831D01*
X159613600Y-119380049D01*
X159550153Y-119699019D01*
X159425697Y-119999482D01*
X159245015Y-120269891D01*
X159015051Y-120499855D01*
X158744642Y-120680537D01*
X158444179Y-120804993D01*
X158337856Y-120826142D01*
X158125211Y-120868440D01*
X157799989Y-120868440D01*
X157587344Y-120826142D01*
X157481021Y-120804993D01*
X157180558Y-120680537D01*
X156910149Y-120499855D01*
X156680185Y-120269891D01*
X156499503Y-119999482D01*
X156375047Y-119699019D01*
X156311600Y-119380049D01*
X156311600Y-119054831D01*
X156375047Y-118735861D01*
X156499503Y-118435398D01*
X156680185Y-118164989D01*
X156910149Y-117935025D01*
X157180558Y-117754343D01*
X157481021Y-117629887D01*
X157587344Y-117608738D01*
X157799989Y-117566440D01*
X158125211Y-117566440D01*
X158337856Y-117608738D01*
G37*
G36*
X125317856Y-117608738D02*
G01*
X125424179Y-117629887D01*
X125724642Y-117754343D01*
X125995051Y-117935025D01*
X126225015Y-118164989D01*
X126405697Y-118435398D01*
X126530153Y-118735861D01*
X126593600Y-119054831D01*
X126593600Y-119380049D01*
X126530153Y-119699019D01*
X126405697Y-119999482D01*
X126225015Y-120269891D01*
X125995051Y-120499855D01*
X125724642Y-120680537D01*
X125424179Y-120804993D01*
X125317856Y-120826142D01*
X125105211Y-120868440D01*
X124779989Y-120868440D01*
X124567344Y-120826142D01*
X124461021Y-120804993D01*
X124160558Y-120680537D01*
X123890149Y-120499855D01*
X123660185Y-120269891D01*
X123479503Y-119999482D01*
X123355047Y-119699019D01*
X123291600Y-119380049D01*
X123291600Y-119054831D01*
X123355047Y-118735861D01*
X123479503Y-118435398D01*
X123660185Y-118164989D01*
X123890149Y-117935025D01*
X124160558Y-117754343D01*
X124461021Y-117629887D01*
X124567344Y-117608738D01*
X124779989Y-117566440D01*
X125105211Y-117566440D01*
X125317856Y-117608738D01*
G37*
G36*
X170242116Y-116824574D02*
G01*
X170350692Y-116857511D01*
X170350695Y-116857512D01*
X170386801Y-116876811D01*
X170450757Y-116910996D01*
X170538464Y-116982976D01*
X170601583Y-117059886D01*
X170618902Y-117077205D01*
X170639277Y-117090819D01*
X170661916Y-117100197D01*
X170685949Y-117104977D01*
X170710453Y-117104977D01*
X170734486Y-117100197D01*
X170757125Y-117090819D01*
X170777499Y-117077206D01*
X170794826Y-117059879D01*
X170808440Y-117039504D01*
X170817818Y-117016865D01*
X170822598Y-116992832D01*
X170823200Y-116980580D01*
X170823200Y-116816240D01*
X171975200Y-116816240D01*
X171975200Y-118418240D01*
X170823200Y-118418240D01*
X170823200Y-118253900D01*
X170820798Y-118229514D01*
X170813685Y-118206065D01*
X170802134Y-118184454D01*
X170786589Y-118165512D01*
X170767647Y-118149967D01*
X170746036Y-118138416D01*
X170722587Y-118131303D01*
X170698201Y-118128901D01*
X170673815Y-118131303D01*
X170650366Y-118138416D01*
X170628755Y-118149967D01*
X170601581Y-118174596D01*
X170538464Y-118251504D01*
X170450756Y-118323484D01*
X170386800Y-118357669D01*
X170350694Y-118376968D01*
X170350691Y-118376969D01*
X170242115Y-118409906D01*
X170129200Y-118421027D01*
X170016284Y-118409906D01*
X169907708Y-118376969D01*
X169907705Y-118376968D01*
X169871599Y-118357669D01*
X169807643Y-118323484D01*
X169719936Y-118251504D01*
X169647956Y-118163796D01*
X169604439Y-118082380D01*
X169590825Y-118062006D01*
X169573498Y-118044679D01*
X169553124Y-118031065D01*
X169530485Y-118021688D01*
X169506451Y-118016908D01*
X169481947Y-118016908D01*
X169457914Y-118021689D01*
X169435275Y-118031066D01*
X169414901Y-118044680D01*
X169397574Y-118062007D01*
X169383962Y-118082380D01*
X169340444Y-118163797D01*
X169268464Y-118251504D01*
X169180756Y-118323484D01*
X169116800Y-118357669D01*
X169080694Y-118376968D01*
X169080691Y-118376969D01*
X168972115Y-118409906D01*
X168859200Y-118421027D01*
X168746284Y-118409906D01*
X168637708Y-118376969D01*
X168637705Y-118376968D01*
X168601599Y-118357669D01*
X168537643Y-118323484D01*
X168449936Y-118251504D01*
X168377956Y-118163796D01*
X168334439Y-118082380D01*
X168324472Y-118063734D01*
X168318692Y-118044680D01*
X168291534Y-117955155D01*
X168283200Y-117870537D01*
X168283200Y-117363942D01*
X168291534Y-117279324D01*
X168324471Y-117170748D01*
X168324472Y-117170745D01*
X168377956Y-117070685D01*
X168377957Y-117070683D01*
X168449937Y-116982976D01*
X168537644Y-116910996D01*
X168601600Y-116876811D01*
X168637706Y-116857512D01*
X168637709Y-116857511D01*
X168746285Y-116824574D01*
X168859200Y-116813453D01*
X168972116Y-116824574D01*
X169080692Y-116857511D01*
X169080695Y-116857512D01*
X169116801Y-116876811D01*
X169180757Y-116910996D01*
X169268464Y-116982976D01*
X169340444Y-117070683D01*
X169356219Y-117100197D01*
X169383961Y-117152099D01*
X169397575Y-117172474D01*
X169414902Y-117189801D01*
X169435276Y-117203414D01*
X169457915Y-117212792D01*
X169481948Y-117217572D01*
X169506452Y-117217572D01*
X169530485Y-117212792D01*
X169553124Y-117203414D01*
X169573499Y-117189800D01*
X169590826Y-117172473D01*
X169604439Y-117152099D01*
X169647956Y-117070685D01*
X169647957Y-117070683D01*
X169719937Y-116982976D01*
X169807644Y-116910996D01*
X169871600Y-116876811D01*
X169907706Y-116857512D01*
X169907709Y-116857511D01*
X170016285Y-116824574D01*
X170129200Y-116813453D01*
X170242116Y-116824574D01*
G37*
G36*
X177122200Y-117625240D02*
G01*
X174820200Y-117625240D01*
X174820200Y-115323240D01*
X177122200Y-115323240D01*
X177122200Y-117625240D01*
G37*
G36*
X186355749Y-115345356D02*
G01*
X186466934Y-115367472D01*
X186676403Y-115454237D01*
X186864920Y-115580200D01*
X187025240Y-115740520D01*
X187151203Y-115929037D01*
X187237968Y-116138506D01*
X187282200Y-116360876D01*
X187282200Y-116587604D01*
X187237968Y-116809974D01*
X187151203Y-117019443D01*
X187025240Y-117207960D01*
X186864920Y-117368280D01*
X186676403Y-117494243D01*
X186466934Y-117581008D01*
X186355749Y-117603124D01*
X186244565Y-117625240D01*
X186017835Y-117625240D01*
X185906651Y-117603124D01*
X185795466Y-117581008D01*
X185585997Y-117494243D01*
X185397480Y-117368280D01*
X185237160Y-117207960D01*
X185111197Y-117019443D01*
X185024432Y-116809974D01*
X184980200Y-116587604D01*
X184980200Y-116360876D01*
X185024432Y-116138506D01*
X185111197Y-115929037D01*
X185237160Y-115740520D01*
X185397480Y-115580200D01*
X185585997Y-115454237D01*
X185795466Y-115367472D01*
X185906651Y-115345356D01*
X186017835Y-115323240D01*
X186244565Y-115323240D01*
X186355749Y-115345356D01*
G37*
G36*
X193235680Y-111706760D02*
G01*
X191533680Y-111706760D01*
X191533680Y-110004760D01*
X193235680Y-110004760D01*
X193235680Y-111706760D01*
G37*
G36*
X185012908Y-110037463D02*
G01*
X185167780Y-110101613D01*
X185307161Y-110194745D01*
X185425695Y-110313279D01*
X185518827Y-110452660D01*
X185582977Y-110607532D01*
X185615680Y-110771944D01*
X185615680Y-110939576D01*
X185582977Y-111103988D01*
X185518827Y-111258860D01*
X185425695Y-111398241D01*
X185307161Y-111516775D01*
X185167780Y-111609907D01*
X185012908Y-111674057D01*
X184848496Y-111706760D01*
X184680864Y-111706760D01*
X184516452Y-111674057D01*
X184361580Y-111609907D01*
X184222199Y-111516775D01*
X184103665Y-111398241D01*
X184010533Y-111258860D01*
X183946383Y-111103988D01*
X183913680Y-110939576D01*
X183913680Y-110771944D01*
X183946383Y-110607532D01*
X184010533Y-110452660D01*
X184103665Y-110313279D01*
X184222199Y-110194745D01*
X184361580Y-110101613D01*
X184516452Y-110037463D01*
X184680864Y-110004760D01*
X184848496Y-110004760D01*
X185012908Y-110037463D01*
G37*
G36*
X172754868Y-109930783D02*
G01*
X172909740Y-109994933D01*
X173049121Y-110088065D01*
X173167655Y-110206599D01*
X173260787Y-110345980D01*
X173324937Y-110500852D01*
X173357640Y-110665264D01*
X173357640Y-110832896D01*
X173324937Y-110997308D01*
X173260787Y-111152180D01*
X173167655Y-111291561D01*
X173049121Y-111410095D01*
X172909740Y-111503227D01*
X172754868Y-111567377D01*
X172590456Y-111600080D01*
X172422824Y-111600080D01*
X172258412Y-111567377D01*
X172103540Y-111503227D01*
X171964159Y-111410095D01*
X171845625Y-111291561D01*
X171752493Y-111152180D01*
X171688343Y-110997308D01*
X171655640Y-110832896D01*
X171655640Y-110665264D01*
X171688343Y-110500852D01*
X171752493Y-110345980D01*
X171845625Y-110206599D01*
X171964159Y-110088065D01*
X172103540Y-109994933D01*
X172258412Y-109930783D01*
X172422824Y-109898080D01*
X172590456Y-109898080D01*
X172754868Y-109930783D01*
G37*
G36*
X180374868Y-109930783D02*
G01*
X180529740Y-109994933D01*
X180669121Y-110088065D01*
X180787655Y-110206599D01*
X180880787Y-110345980D01*
X180944937Y-110500852D01*
X180977640Y-110665264D01*
X180977640Y-110832896D01*
X180944937Y-110997308D01*
X180880787Y-111152180D01*
X180787655Y-111291561D01*
X180669121Y-111410095D01*
X180529740Y-111503227D01*
X180374868Y-111567377D01*
X180210456Y-111600080D01*
X180042824Y-111600080D01*
X179878412Y-111567377D01*
X179723540Y-111503227D01*
X179584159Y-111410095D01*
X179465625Y-111291561D01*
X179372493Y-111152180D01*
X179308343Y-110997308D01*
X179275640Y-110832896D01*
X179275640Y-110665264D01*
X179308343Y-110500852D01*
X179372493Y-110345980D01*
X179465625Y-110206599D01*
X179584159Y-110088065D01*
X179723540Y-109994933D01*
X179878412Y-109930783D01*
X180042824Y-109898080D01*
X180210456Y-109898080D01*
X180374868Y-109930783D01*
G37*
G36*
X185012908Y-107497463D02*
G01*
X185167780Y-107561613D01*
X185307161Y-107654745D01*
X185425695Y-107773279D01*
X185518827Y-107912660D01*
X185582977Y-108067532D01*
X185615680Y-108231944D01*
X185615680Y-108399576D01*
X185582977Y-108563988D01*
X185518827Y-108718860D01*
X185425695Y-108858241D01*
X185307161Y-108976775D01*
X185167780Y-109069907D01*
X185012908Y-109134057D01*
X184848496Y-109166760D01*
X184680864Y-109166760D01*
X184516452Y-109134057D01*
X184361580Y-109069907D01*
X184222199Y-108976775D01*
X184103665Y-108858241D01*
X184010533Y-108718860D01*
X183946383Y-108563988D01*
X183913680Y-108399576D01*
X183913680Y-108231944D01*
X183946383Y-108067532D01*
X184010533Y-107912660D01*
X184103665Y-107773279D01*
X184222199Y-107654745D01*
X184361580Y-107561613D01*
X184516452Y-107497463D01*
X184680864Y-107464760D01*
X184848496Y-107464760D01*
X185012908Y-107497463D01*
G37*
G36*
X192632908Y-107497463D02*
G01*
X192787780Y-107561613D01*
X192927161Y-107654745D01*
X193045695Y-107773279D01*
X193138827Y-107912660D01*
X193202977Y-108067532D01*
X193235680Y-108231944D01*
X193235680Y-108399576D01*
X193202977Y-108563988D01*
X193138827Y-108718860D01*
X193045695Y-108858241D01*
X192927161Y-108976775D01*
X192787780Y-109069907D01*
X192632908Y-109134057D01*
X192468496Y-109166760D01*
X192300864Y-109166760D01*
X192136452Y-109134057D01*
X191981580Y-109069907D01*
X191842199Y-108976775D01*
X191723665Y-108858241D01*
X191630533Y-108718860D01*
X191566383Y-108563988D01*
X191533680Y-108399576D01*
X191533680Y-108231944D01*
X191566383Y-108067532D01*
X191630533Y-107912660D01*
X191723665Y-107773279D01*
X191842199Y-107654745D01*
X191981580Y-107561613D01*
X192136452Y-107497463D01*
X192300864Y-107464760D01*
X192468496Y-107464760D01*
X192632908Y-107497463D01*
G37*
G36*
X180374868Y-105921647D02*
G01*
X180529740Y-105985797D01*
X180669121Y-106078929D01*
X180787655Y-106197463D01*
X180880787Y-106336844D01*
X180944937Y-106491716D01*
X180977640Y-106656128D01*
X180977640Y-106823760D01*
X180944937Y-106988172D01*
X180880787Y-107143044D01*
X180787655Y-107282425D01*
X180669121Y-107400959D01*
X180529740Y-107494091D01*
X180374868Y-107558241D01*
X180210456Y-107590944D01*
X180042824Y-107590944D01*
X179878412Y-107558241D01*
X179723540Y-107494091D01*
X179584159Y-107400959D01*
X179465625Y-107282425D01*
X179372493Y-107143044D01*
X179308343Y-106988172D01*
X179275640Y-106823760D01*
X179275640Y-106656128D01*
X179308343Y-106491716D01*
X179372493Y-106336844D01*
X179465625Y-106197463D01*
X179584159Y-106078929D01*
X179723540Y-105985797D01*
X179878412Y-105921647D01*
X180042824Y-105888944D01*
X180210456Y-105888944D01*
X180374868Y-105921647D01*
G37*
G36*
X172754868Y-105921647D02*
G01*
X172909740Y-105985797D01*
X173049121Y-106078929D01*
X173167655Y-106197463D01*
X173260787Y-106336844D01*
X173324937Y-106491716D01*
X173357640Y-106656128D01*
X173357640Y-106823760D01*
X173324937Y-106988172D01*
X173260787Y-107143044D01*
X173167655Y-107282425D01*
X173049121Y-107400959D01*
X172909740Y-107494091D01*
X172754868Y-107558241D01*
X172590456Y-107590944D01*
X172422824Y-107590944D01*
X172258412Y-107558241D01*
X172103540Y-107494091D01*
X171964159Y-107400959D01*
X171845625Y-107282425D01*
X171752493Y-107143044D01*
X171688343Y-106988172D01*
X171655640Y-106823760D01*
X171655640Y-106656128D01*
X171688343Y-106491716D01*
X171752493Y-106336844D01*
X171845625Y-106197463D01*
X171964159Y-106078929D01*
X172103540Y-105985797D01*
X172258412Y-105921647D01*
X172422824Y-105888944D01*
X172590456Y-105888944D01*
X172754868Y-105921647D01*
G37*
G36*
X185012908Y-102417463D02*
G01*
X185167780Y-102481613D01*
X185307161Y-102574745D01*
X185425695Y-102693279D01*
X185518827Y-102832660D01*
X185582977Y-102987532D01*
X185615680Y-103151944D01*
X185615680Y-103319576D01*
X185582977Y-103483988D01*
X185518827Y-103638860D01*
X185425695Y-103778241D01*
X185307161Y-103896775D01*
X185167780Y-103989907D01*
X185012908Y-104054057D01*
X184848496Y-104086760D01*
X184680864Y-104086760D01*
X184516452Y-104054057D01*
X184361580Y-103989907D01*
X184222199Y-103896775D01*
X184103665Y-103778241D01*
X184010533Y-103638860D01*
X183946383Y-103483988D01*
X183913680Y-103319576D01*
X183913680Y-103151944D01*
X183946383Y-102987532D01*
X184010533Y-102832660D01*
X184103665Y-102693279D01*
X184222199Y-102574745D01*
X184361580Y-102481613D01*
X184516452Y-102417463D01*
X184680864Y-102384760D01*
X184848496Y-102384760D01*
X185012908Y-102417463D01*
G37*
G36*
X193235680Y-104086760D02*
G01*
X191533680Y-104086760D01*
X191533680Y-102384760D01*
X193235680Y-102384760D01*
X193235680Y-104086760D01*
G37*
G36*
X180374868Y-101912511D02*
G01*
X180529740Y-101976661D01*
X180669121Y-102069793D01*
X180787655Y-102188327D01*
X180880787Y-102327708D01*
X180944937Y-102482580D01*
X180977640Y-102646992D01*
X180977640Y-102814624D01*
X180944937Y-102979036D01*
X180880787Y-103133908D01*
X180787655Y-103273289D01*
X180669121Y-103391823D01*
X180529740Y-103484955D01*
X180374868Y-103549105D01*
X180210456Y-103581808D01*
X180042824Y-103581808D01*
X179878412Y-103549105D01*
X179723540Y-103484955D01*
X179584159Y-103391823D01*
X179465625Y-103273289D01*
X179372493Y-103133908D01*
X179308343Y-102979036D01*
X179275640Y-102814624D01*
X179275640Y-102646992D01*
X179308343Y-102482580D01*
X179372493Y-102327708D01*
X179465625Y-102188327D01*
X179584159Y-102069793D01*
X179723540Y-101976661D01*
X179878412Y-101912511D01*
X180042824Y-101879808D01*
X180210456Y-101879808D01*
X180374868Y-101912511D01*
G37*
G36*
X172754868Y-101912511D02*
G01*
X172909740Y-101976661D01*
X173049121Y-102069793D01*
X173167655Y-102188327D01*
X173260787Y-102327708D01*
X173324937Y-102482580D01*
X173357640Y-102646992D01*
X173357640Y-102814624D01*
X173324937Y-102979036D01*
X173260787Y-103133908D01*
X173167655Y-103273289D01*
X173049121Y-103391823D01*
X172909740Y-103484955D01*
X172754868Y-103549105D01*
X172590456Y-103581808D01*
X172422824Y-103581808D01*
X172258412Y-103549105D01*
X172103540Y-103484955D01*
X171964159Y-103391823D01*
X171845625Y-103273289D01*
X171752493Y-103133908D01*
X171688343Y-102979036D01*
X171655640Y-102814624D01*
X171655640Y-102646992D01*
X171688343Y-102482580D01*
X171752493Y-102327708D01*
X171845625Y-102188327D01*
X171964159Y-102069793D01*
X172103540Y-101976661D01*
X172258412Y-101912511D01*
X172422824Y-101879808D01*
X172590456Y-101879808D01*
X172754868Y-101912511D01*
G37*
G36*
X192632908Y-99877463D02*
G01*
X192787780Y-99941613D01*
X192927161Y-100034745D01*
X193045695Y-100153279D01*
X193138827Y-100292660D01*
X193202977Y-100447532D01*
X193235680Y-100611944D01*
X193235680Y-100779576D01*
X193202977Y-100943988D01*
X193138827Y-101098860D01*
X193045695Y-101238241D01*
X192927161Y-101356775D01*
X192787780Y-101449907D01*
X192632908Y-101514057D01*
X192468496Y-101546760D01*
X192300864Y-101546760D01*
X192136452Y-101514057D01*
X191981580Y-101449907D01*
X191842199Y-101356775D01*
X191723665Y-101238241D01*
X191630533Y-101098860D01*
X191566383Y-100943988D01*
X191533680Y-100779576D01*
X191533680Y-100611944D01*
X191566383Y-100447532D01*
X191630533Y-100292660D01*
X191723665Y-100153279D01*
X191842199Y-100034745D01*
X191981580Y-99941613D01*
X192136452Y-99877463D01*
X192300864Y-99844760D01*
X192468496Y-99844760D01*
X192632908Y-99877463D01*
G37*
G36*
X185012908Y-99877463D02*
G01*
X185167780Y-99941613D01*
X185307161Y-100034745D01*
X185425695Y-100153279D01*
X185518827Y-100292660D01*
X185582977Y-100447532D01*
X185615680Y-100611944D01*
X185615680Y-100779576D01*
X185582977Y-100943988D01*
X185518827Y-101098860D01*
X185425695Y-101238241D01*
X185307161Y-101356775D01*
X185167780Y-101449907D01*
X185012908Y-101514057D01*
X184848496Y-101546760D01*
X184680864Y-101546760D01*
X184516452Y-101514057D01*
X184361580Y-101449907D01*
X184222199Y-101356775D01*
X184103665Y-101238241D01*
X184010533Y-101098860D01*
X183946383Y-100943988D01*
X183913680Y-100779576D01*
X183913680Y-100611944D01*
X183946383Y-100447532D01*
X184010533Y-100292660D01*
X184103665Y-100153279D01*
X184222199Y-100034745D01*
X184361580Y-99941613D01*
X184516452Y-99877463D01*
X184680864Y-99844760D01*
X184848496Y-99844760D01*
X185012908Y-99877463D01*
G37*
G36*
X180374868Y-97903375D02*
G01*
X180529740Y-97967525D01*
X180669121Y-98060657D01*
X180787655Y-98179191D01*
X180880787Y-98318572D01*
X180944937Y-98473444D01*
X180977640Y-98637856D01*
X180977640Y-98805488D01*
X180944937Y-98969900D01*
X180880787Y-99124772D01*
X180787655Y-99264153D01*
X180669121Y-99382687D01*
X180529740Y-99475819D01*
X180374868Y-99539969D01*
X180210456Y-99572672D01*
X180042824Y-99572672D01*
X179878412Y-99539969D01*
X179723540Y-99475819D01*
X179584159Y-99382687D01*
X179465625Y-99264153D01*
X179372493Y-99124772D01*
X179308343Y-98969900D01*
X179275640Y-98805488D01*
X179275640Y-98637856D01*
X179308343Y-98473444D01*
X179372493Y-98318572D01*
X179465625Y-98179191D01*
X179584159Y-98060657D01*
X179723540Y-97967525D01*
X179878412Y-97903375D01*
X180042824Y-97870672D01*
X180210456Y-97870672D01*
X180374868Y-97903375D01*
G37*
G36*
X172754868Y-97903375D02*
G01*
X172909740Y-97967525D01*
X173049121Y-98060657D01*
X173167655Y-98179191D01*
X173260787Y-98318572D01*
X173324937Y-98473444D01*
X173357640Y-98637856D01*
X173357640Y-98805488D01*
X173324937Y-98969900D01*
X173260787Y-99124772D01*
X173167655Y-99264153D01*
X173049121Y-99382687D01*
X172909740Y-99475819D01*
X172754868Y-99539969D01*
X172590456Y-99572672D01*
X172422824Y-99572672D01*
X172258412Y-99539969D01*
X172103540Y-99475819D01*
X171964159Y-99382687D01*
X171845625Y-99264153D01*
X171752493Y-99124772D01*
X171688343Y-98969900D01*
X171655640Y-98805488D01*
X171655640Y-98637856D01*
X171688343Y-98473444D01*
X171752493Y-98318572D01*
X171845625Y-98179191D01*
X171964159Y-98060657D01*
X172103540Y-97967525D01*
X172258412Y-97903375D01*
X172422824Y-97870672D01*
X172590456Y-97870672D01*
X172754868Y-97903375D01*
G37*
G36*
X193235680Y-96466760D02*
G01*
X191533680Y-96466760D01*
X191533680Y-94764760D01*
X193235680Y-94764760D01*
X193235680Y-96466760D01*
G37*
G36*
X185012908Y-94797463D02*
G01*
X185167780Y-94861613D01*
X185307161Y-94954745D01*
X185425695Y-95073279D01*
X185518827Y-95212660D01*
X185582977Y-95367532D01*
X185615680Y-95531944D01*
X185615680Y-95699576D01*
X185582977Y-95863988D01*
X185518827Y-96018860D01*
X185425695Y-96158241D01*
X185307161Y-96276775D01*
X185167780Y-96369907D01*
X185012908Y-96434057D01*
X184848496Y-96466760D01*
X184680864Y-96466760D01*
X184516452Y-96434057D01*
X184361580Y-96369907D01*
X184222199Y-96276775D01*
X184103665Y-96158241D01*
X184010533Y-96018860D01*
X183946383Y-95863988D01*
X183913680Y-95699576D01*
X183913680Y-95531944D01*
X183946383Y-95367532D01*
X184010533Y-95212660D01*
X184103665Y-95073279D01*
X184222199Y-94954745D01*
X184361580Y-94861613D01*
X184516452Y-94797463D01*
X184680864Y-94764760D01*
X184848496Y-94764760D01*
X185012908Y-94797463D01*
G37*
G36*
X180374868Y-93894239D02*
G01*
X180529740Y-93958389D01*
X180669121Y-94051521D01*
X180787655Y-94170055D01*
X180880787Y-94309436D01*
X180944937Y-94464308D01*
X180977640Y-94628720D01*
X180977640Y-94796352D01*
X180944937Y-94960764D01*
X180880787Y-95115636D01*
X180787655Y-95255017D01*
X180669121Y-95373551D01*
X180529740Y-95466683D01*
X180374868Y-95530833D01*
X180210456Y-95563536D01*
X180042824Y-95563536D01*
X179878412Y-95530833D01*
X179723540Y-95466683D01*
X179584159Y-95373551D01*
X179465625Y-95255017D01*
X179372493Y-95115636D01*
X179308343Y-94960764D01*
X179275640Y-94796352D01*
X179275640Y-94628720D01*
X179308343Y-94464308D01*
X179372493Y-94309436D01*
X179465625Y-94170055D01*
X179584159Y-94051521D01*
X179723540Y-93958389D01*
X179878412Y-93894239D01*
X180042824Y-93861536D01*
X180210456Y-93861536D01*
X180374868Y-93894239D01*
G37*
G36*
X172754868Y-93894239D02*
G01*
X172909740Y-93958389D01*
X173049121Y-94051521D01*
X173167655Y-94170055D01*
X173260787Y-94309436D01*
X173324937Y-94464308D01*
X173357640Y-94628720D01*
X173357640Y-94796352D01*
X173324937Y-94960764D01*
X173260787Y-95115636D01*
X173167655Y-95255017D01*
X173049121Y-95373551D01*
X172909740Y-95466683D01*
X172754868Y-95530833D01*
X172590456Y-95563536D01*
X172422824Y-95563536D01*
X172258412Y-95530833D01*
X172103540Y-95466683D01*
X171964159Y-95373551D01*
X171845625Y-95255017D01*
X171752493Y-95115636D01*
X171688343Y-94960764D01*
X171655640Y-94796352D01*
X171655640Y-94628720D01*
X171688343Y-94464308D01*
X171752493Y-94309436D01*
X171845625Y-94170055D01*
X171964159Y-94051521D01*
X172103540Y-93958389D01*
X172258412Y-93894239D01*
X172422824Y-93861536D01*
X172590456Y-93861536D01*
X172754868Y-93894239D01*
G37*
G36*
X158337856Y-92208738D02*
G01*
X158444179Y-92229887D01*
X158656637Y-92317890D01*
X158665623Y-92321612D01*
X158744642Y-92354343D01*
X159015051Y-92535025D01*
X159245015Y-92764989D01*
X159425697Y-93035398D01*
X159425698Y-93035400D01*
X159550153Y-93335862D01*
X159613600Y-93654829D01*
X159613600Y-93980051D01*
X159575806Y-94170055D01*
X159550153Y-94299019D01*
X159425697Y-94599482D01*
X159245015Y-94869891D01*
X159015051Y-95099855D01*
X158744642Y-95280537D01*
X158444179Y-95404993D01*
X158337856Y-95426142D01*
X158125211Y-95468440D01*
X157799989Y-95468440D01*
X157587344Y-95426142D01*
X157481021Y-95404993D01*
X157180558Y-95280537D01*
X156910149Y-95099855D01*
X156680185Y-94869891D01*
X156499503Y-94599482D01*
X156375047Y-94299019D01*
X156349394Y-94170055D01*
X156311600Y-93980051D01*
X156311600Y-93654829D01*
X156375047Y-93335862D01*
X156499502Y-93035400D01*
X156499503Y-93035398D01*
X156680185Y-92764989D01*
X156910149Y-92535025D01*
X157180558Y-92354343D01*
X157259578Y-92321612D01*
X157268563Y-92317890D01*
X157481021Y-92229887D01*
X157587344Y-92208738D01*
X157799989Y-92166440D01*
X158125211Y-92166440D01*
X158337856Y-92208738D01*
G37*
G36*
X125317856Y-92208738D02*
G01*
X125424179Y-92229887D01*
X125636637Y-92317890D01*
X125645623Y-92321612D01*
X125724642Y-92354343D01*
X125995051Y-92535025D01*
X126225015Y-92764989D01*
X126405697Y-93035398D01*
X126405698Y-93035400D01*
X126530153Y-93335862D01*
X126593600Y-93654829D01*
X126593600Y-93980051D01*
X126555806Y-94170055D01*
X126530153Y-94299019D01*
X126405697Y-94599482D01*
X126225015Y-94869891D01*
X125995051Y-95099855D01*
X125724642Y-95280537D01*
X125424179Y-95404993D01*
X125317856Y-95426142D01*
X125105211Y-95468440D01*
X124779989Y-95468440D01*
X124567344Y-95426142D01*
X124461021Y-95404993D01*
X124160558Y-95280537D01*
X123890149Y-95099855D01*
X123660185Y-94869891D01*
X123479503Y-94599482D01*
X123355047Y-94299019D01*
X123329394Y-94170055D01*
X123291600Y-93980051D01*
X123291600Y-93654829D01*
X123355047Y-93335862D01*
X123479502Y-93035400D01*
X123479503Y-93035398D01*
X123660185Y-92764989D01*
X123890149Y-92535025D01*
X124160558Y-92354343D01*
X124239578Y-92321612D01*
X124248563Y-92317890D01*
X124461021Y-92229887D01*
X124567344Y-92208738D01*
X124779989Y-92166440D01*
X125105211Y-92166440D01*
X125317856Y-92208738D01*
G37*
G36*
X192632908Y-92257463D02*
G01*
X192787780Y-92321613D01*
X192927161Y-92414745D01*
X193045695Y-92533279D01*
X193138827Y-92672660D01*
X193202977Y-92827532D01*
X193235680Y-92991944D01*
X193235680Y-93159576D01*
X193202977Y-93323988D01*
X193138827Y-93478860D01*
X193045695Y-93618241D01*
X192927161Y-93736775D01*
X192787780Y-93829907D01*
X192632908Y-93894057D01*
X192468496Y-93926760D01*
X192300864Y-93926760D01*
X192136452Y-93894057D01*
X191981580Y-93829907D01*
X191842199Y-93736775D01*
X191723665Y-93618241D01*
X191630533Y-93478860D01*
X191566383Y-93323988D01*
X191533680Y-93159576D01*
X191533680Y-92991944D01*
X191566383Y-92827532D01*
X191630533Y-92672660D01*
X191723665Y-92533279D01*
X191842199Y-92414745D01*
X191981580Y-92321613D01*
X192136452Y-92257463D01*
X192300864Y-92224760D01*
X192468496Y-92224760D01*
X192632908Y-92257463D01*
G37*
G36*
X185012908Y-92257463D02*
G01*
X185167780Y-92321613D01*
X185307161Y-92414745D01*
X185425695Y-92533279D01*
X185518827Y-92672660D01*
X185582977Y-92827532D01*
X185615680Y-92991944D01*
X185615680Y-93159576D01*
X185582977Y-93323988D01*
X185518827Y-93478860D01*
X185425695Y-93618241D01*
X185307161Y-93736775D01*
X185167780Y-93829907D01*
X185012908Y-93894057D01*
X184848496Y-93926760D01*
X184680864Y-93926760D01*
X184516452Y-93894057D01*
X184361580Y-93829907D01*
X184222199Y-93736775D01*
X184103665Y-93618241D01*
X184010533Y-93478860D01*
X183946383Y-93323988D01*
X183913680Y-93159576D01*
X183913680Y-92991944D01*
X183946383Y-92827532D01*
X184010533Y-92672660D01*
X184103665Y-92533279D01*
X184222199Y-92414745D01*
X184361580Y-92321613D01*
X184516452Y-92257463D01*
X184680864Y-92224760D01*
X184848496Y-92224760D01*
X185012908Y-92257463D01*
G37*
G36*
X180374868Y-89885103D02*
G01*
X180529740Y-89949253D01*
X180669121Y-90042385D01*
X180787655Y-90160919D01*
X180880787Y-90300300D01*
X180944937Y-90455172D01*
X180977640Y-90619584D01*
X180977640Y-90787216D01*
X180944937Y-90951628D01*
X180880787Y-91106500D01*
X180787655Y-91245881D01*
X180669121Y-91364415D01*
X180529740Y-91457547D01*
X180374868Y-91521697D01*
X180210456Y-91554400D01*
X180042824Y-91554400D01*
X179878412Y-91521697D01*
X179723540Y-91457547D01*
X179584159Y-91364415D01*
X179465625Y-91245881D01*
X179372493Y-91106500D01*
X179308343Y-90951628D01*
X179275640Y-90787216D01*
X179275640Y-90619584D01*
X179308343Y-90455172D01*
X179372493Y-90300300D01*
X179465625Y-90160919D01*
X179584159Y-90042385D01*
X179723540Y-89949253D01*
X179878412Y-89885103D01*
X180042824Y-89852400D01*
X180210456Y-89852400D01*
X180374868Y-89885103D01*
G37*
G36*
X172754868Y-89885103D02*
G01*
X172909740Y-89949253D01*
X173049121Y-90042385D01*
X173167655Y-90160919D01*
X173260787Y-90300300D01*
X173324937Y-90455172D01*
X173357640Y-90619584D01*
X173357640Y-90787216D01*
X173324937Y-90951628D01*
X173260787Y-91106500D01*
X173167655Y-91245881D01*
X173049121Y-91364415D01*
X172909740Y-91457547D01*
X172754868Y-91521697D01*
X172590456Y-91554400D01*
X172422824Y-91554400D01*
X172258412Y-91521697D01*
X172103540Y-91457547D01*
X171964159Y-91364415D01*
X171845625Y-91245881D01*
X171752493Y-91106500D01*
X171688343Y-90951628D01*
X171655640Y-90787216D01*
X171655640Y-90619584D01*
X171688343Y-90455172D01*
X171752493Y-90300300D01*
X171845625Y-90160919D01*
X171964159Y-90042385D01*
X172103540Y-89949253D01*
X172258412Y-89885103D01*
X172422824Y-89852400D01*
X172590456Y-89852400D01*
X172754868Y-89885103D01*
G37*
G36*
X187310800Y-87371960D02*
G01*
X185408800Y-87371960D01*
X185408800Y-85469960D01*
X187310800Y-85469960D01*
X187310800Y-87371960D01*
G37*
G36*
X192086000Y-87336400D02*
G01*
X190184000Y-87336400D01*
X190184000Y-85434400D01*
X192086000Y-85434400D01*
X192086000Y-87336400D01*
G37*
G36*
X118634126Y-82041775D02*
G01*
X118791220Y-82089429D01*
X118935991Y-82166811D01*
X119062888Y-82270952D01*
X119167029Y-82397849D01*
X119244411Y-82542620D01*
X119292065Y-82699714D01*
X119308760Y-82869220D01*
X119308760Y-84782940D01*
X119292065Y-84952446D01*
X119244411Y-85109540D01*
X119167029Y-85254311D01*
X119062888Y-85381208D01*
X118935991Y-85485349D01*
X118791220Y-85562731D01*
X118634126Y-85610385D01*
X118464620Y-85627080D01*
X116550900Y-85627080D01*
X116381394Y-85610385D01*
X116224300Y-85562731D01*
X116079529Y-85485349D01*
X115952632Y-85381208D01*
X115848491Y-85254311D01*
X115771109Y-85109540D01*
X115723455Y-84952446D01*
X115706760Y-84782940D01*
X115706760Y-82869220D01*
X115723455Y-82699714D01*
X115771109Y-82542620D01*
X115848491Y-82397849D01*
X115952632Y-82270952D01*
X116079529Y-82166811D01*
X116224300Y-82089429D01*
X116381394Y-82041775D01*
X116550900Y-82025080D01*
X118464620Y-82025080D01*
X118634126Y-82041775D01*
G37*
G36*
X152714103Y-82571355D02*
G01*
X152941771Y-82665658D01*
X153146666Y-82802565D01*
X153320915Y-82976814D01*
X153457822Y-83181709D01*
X153457823Y-83181711D01*
X153552125Y-83409377D01*
X153600200Y-83651066D01*
X153600200Y-83897494D01*
X153552125Y-84139183D01*
X153472496Y-84331426D01*
X153457822Y-84366851D01*
X153320915Y-84571746D01*
X153146666Y-84745995D01*
X152941771Y-84882902D01*
X152941770Y-84882903D01*
X152941769Y-84882903D01*
X152714103Y-84977205D01*
X152472414Y-85025280D01*
X152225986Y-85025280D01*
X151984297Y-84977205D01*
X151756631Y-84882903D01*
X151756630Y-84882903D01*
X151756629Y-84882902D01*
X151551734Y-84745995D01*
X151377485Y-84571746D01*
X151240578Y-84366851D01*
X151225905Y-84331426D01*
X151146275Y-84139183D01*
X151098200Y-83897494D01*
X151098200Y-83651066D01*
X151146275Y-83409377D01*
X151240577Y-83181711D01*
X151240578Y-83181709D01*
X151377485Y-82976814D01*
X151551734Y-82802565D01*
X151756629Y-82665658D01*
X151984297Y-82571355D01*
X152225986Y-82523280D01*
X152472414Y-82523280D01*
X152714103Y-82571355D01*
G37*
G36*
X132394103Y-82571355D02*
G01*
X132621771Y-82665658D01*
X132826666Y-82802565D01*
X133000915Y-82976814D01*
X133137822Y-83181709D01*
X133137823Y-83181711D01*
X133232125Y-83409377D01*
X133280200Y-83651066D01*
X133280200Y-83897494D01*
X133232125Y-84139183D01*
X133152496Y-84331426D01*
X133137822Y-84366851D01*
X133000915Y-84571746D01*
X132826666Y-84745995D01*
X132621771Y-84882902D01*
X132621770Y-84882903D01*
X132621769Y-84882903D01*
X132394103Y-84977205D01*
X132152414Y-85025280D01*
X131905986Y-85025280D01*
X131664297Y-84977205D01*
X131436631Y-84882903D01*
X131436630Y-84882903D01*
X131436629Y-84882902D01*
X131231734Y-84745995D01*
X131057485Y-84571746D01*
X130920578Y-84366851D01*
X130905905Y-84331426D01*
X130826275Y-84139183D01*
X130778200Y-83897494D01*
X130778200Y-83651066D01*
X130826275Y-83409377D01*
X130920577Y-83181711D01*
X130920578Y-83181709D01*
X131057485Y-82976814D01*
X131231734Y-82802565D01*
X131436629Y-82665658D01*
X131664297Y-82571355D01*
X131905986Y-82523280D01*
X132152414Y-82523280D01*
X132394103Y-82571355D01*
G37*
G36*
X139167436Y-82571355D02*
G01*
X139395104Y-82665658D01*
X139599999Y-82802565D01*
X139774248Y-82976814D01*
X139911155Y-83181709D01*
X139911156Y-83181711D01*
X140005458Y-83409377D01*
X140053533Y-83651066D01*
X140053533Y-83897494D01*
X140005458Y-84139183D01*
X139925829Y-84331426D01*
X139911155Y-84366851D01*
X139774248Y-84571746D01*
X139599999Y-84745995D01*
X139395104Y-84882902D01*
X139395103Y-84882903D01*
X139395102Y-84882903D01*
X139167436Y-84977205D01*
X138925747Y-85025280D01*
X138679319Y-85025280D01*
X138437630Y-84977205D01*
X138209964Y-84882903D01*
X138209963Y-84882903D01*
X138209962Y-84882902D01*
X138005067Y-84745995D01*
X137830818Y-84571746D01*
X137693911Y-84366851D01*
X137679238Y-84331426D01*
X137599608Y-84139183D01*
X137551533Y-83897494D01*
X137551533Y-83651066D01*
X137599608Y-83409377D01*
X137693910Y-83181711D01*
X137693911Y-83181709D01*
X137830818Y-82976814D01*
X138005067Y-82802565D01*
X138209962Y-82665658D01*
X138437630Y-82571355D01*
X138679319Y-82523280D01*
X138925747Y-82523280D01*
X139167436Y-82571355D01*
G37*
G36*
X145940769Y-82571355D02*
G01*
X146168437Y-82665658D01*
X146373332Y-82802565D01*
X146547581Y-82976814D01*
X146684488Y-83181709D01*
X146684489Y-83181711D01*
X146778791Y-83409377D01*
X146826866Y-83651066D01*
X146826866Y-83897494D01*
X146778791Y-84139183D01*
X146699162Y-84331426D01*
X146684488Y-84366851D01*
X146547581Y-84571746D01*
X146373332Y-84745995D01*
X146168437Y-84882902D01*
X146168436Y-84882903D01*
X146168435Y-84882903D01*
X145940769Y-84977205D01*
X145699080Y-85025280D01*
X145452652Y-85025280D01*
X145210963Y-84977205D01*
X144983297Y-84882903D01*
X144983296Y-84882903D01*
X144983295Y-84882902D01*
X144778400Y-84745995D01*
X144604151Y-84571746D01*
X144467244Y-84366851D01*
X144452571Y-84331426D01*
X144372941Y-84139183D01*
X144324866Y-83897494D01*
X144324866Y-83651066D01*
X144372941Y-83409377D01*
X144467243Y-83181711D01*
X144467244Y-83181709D01*
X144604151Y-82976814D01*
X144778400Y-82802565D01*
X144983295Y-82665658D01*
X145210963Y-82571355D01*
X145452652Y-82523280D01*
X145699080Y-82523280D01*
X145940769Y-82571355D01*
G37*
G36*
X186637195Y-82966506D02*
G01*
X186810266Y-83038194D01*
X186810267Y-83038195D01*
X186966027Y-83142270D01*
X187098490Y-83274733D01*
X187098491Y-83274735D01*
X187202566Y-83430494D01*
X187274254Y-83603565D01*
X187310800Y-83787293D01*
X187310800Y-83974627D01*
X187274254Y-84158355D01*
X187202566Y-84331426D01*
X187202565Y-84331427D01*
X187098490Y-84487187D01*
X186966027Y-84619650D01*
X186887618Y-84672041D01*
X186810266Y-84723726D01*
X186637195Y-84795414D01*
X186453467Y-84831960D01*
X186266133Y-84831960D01*
X186082405Y-84795414D01*
X185909334Y-84723726D01*
X185831982Y-84672041D01*
X185753573Y-84619650D01*
X185621110Y-84487187D01*
X185517035Y-84331427D01*
X185517034Y-84331426D01*
X185445346Y-84158355D01*
X185408800Y-83974627D01*
X185408800Y-83787293D01*
X185445346Y-83603565D01*
X185517034Y-83430494D01*
X185621109Y-83274735D01*
X185621110Y-83274733D01*
X185753573Y-83142270D01*
X185909333Y-83038195D01*
X185909334Y-83038194D01*
X186082405Y-82966506D01*
X186266133Y-82929960D01*
X186453467Y-82929960D01*
X186637195Y-82966506D01*
G37*
G36*
X191412395Y-82930946D02*
G01*
X191585466Y-83002634D01*
X191585467Y-83002635D01*
X191741227Y-83106710D01*
X191873690Y-83239173D01*
X191926081Y-83317582D01*
X191977766Y-83394934D01*
X192049454Y-83568005D01*
X192086000Y-83751733D01*
X192086000Y-83939067D01*
X192049454Y-84122795D01*
X191977766Y-84295866D01*
X191954005Y-84331427D01*
X191873690Y-84451627D01*
X191741227Y-84584090D01*
X191688007Y-84619650D01*
X191585466Y-84688166D01*
X191412395Y-84759854D01*
X191228667Y-84796400D01*
X191041333Y-84796400D01*
X190857605Y-84759854D01*
X190684534Y-84688166D01*
X190581993Y-84619650D01*
X190528773Y-84584090D01*
X190396310Y-84451627D01*
X190315995Y-84331427D01*
X190292234Y-84295866D01*
X190220546Y-84122795D01*
X190184000Y-83939067D01*
X190184000Y-83751733D01*
X190220546Y-83568005D01*
X190292234Y-83394934D01*
X190343919Y-83317582D01*
X190396310Y-83239173D01*
X190528773Y-83106710D01*
X190684533Y-83002635D01*
X190684534Y-83002634D01*
X190857605Y-82930946D01*
X191041333Y-82894400D01*
X191228667Y-82894400D01*
X191412395Y-82930946D01*
G37*
G36*
X115484739Y-77339373D02*
G01*
X115618385Y-77379914D01*
X115741544Y-77445744D01*
X115849500Y-77534340D01*
X115938096Y-77642296D01*
X116003926Y-77765455D01*
X116044467Y-77899101D01*
X116058760Y-78044220D01*
X116058760Y-80207940D01*
X116044467Y-80353059D01*
X116003926Y-80486705D01*
X115938096Y-80609864D01*
X115849500Y-80717820D01*
X115741544Y-80806416D01*
X115618385Y-80872246D01*
X115484739Y-80912787D01*
X115339620Y-80927080D01*
X113675900Y-80927080D01*
X113530781Y-80912787D01*
X113397135Y-80872246D01*
X113273976Y-80806416D01*
X113166020Y-80717820D01*
X113077424Y-80609864D01*
X113011594Y-80486705D01*
X112971053Y-80353059D01*
X112956760Y-80207940D01*
X112956760Y-78044220D01*
X112971053Y-77899101D01*
X113011594Y-77765455D01*
X113077424Y-77642296D01*
X113166020Y-77534340D01*
X113273976Y-77445744D01*
X113397135Y-77379914D01*
X113530781Y-77339373D01*
X113675900Y-77325080D01*
X115339620Y-77325080D01*
X115484739Y-77339373D01*
G37*
G36*
X122308760Y-80927080D02*
G01*
X118706760Y-80927080D01*
X118706760Y-77325080D01*
X122308760Y-77325080D01*
X122308760Y-80927080D01*
G37*
G36*
X186663908Y-78963103D02*
G01*
X186818780Y-79027253D01*
X186958161Y-79120385D01*
X187076695Y-79238919D01*
X187169827Y-79378300D01*
X187233977Y-79533172D01*
X187266680Y-79697584D01*
X187266680Y-79865216D01*
X187233977Y-80029628D01*
X187169827Y-80184500D01*
X187076695Y-80323881D01*
X186958161Y-80442415D01*
X186818780Y-80535547D01*
X186663908Y-80599697D01*
X186499496Y-80632400D01*
X186331864Y-80632400D01*
X186167452Y-80599697D01*
X186012580Y-80535547D01*
X185873199Y-80442415D01*
X185754665Y-80323881D01*
X185661533Y-80184500D01*
X185597383Y-80029628D01*
X185564680Y-79865216D01*
X185564680Y-79697584D01*
X185597383Y-79533172D01*
X185661533Y-79378300D01*
X185754665Y-79238919D01*
X185873199Y-79120385D01*
X186012580Y-79027253D01*
X186167452Y-78963103D01*
X186331864Y-78930400D01*
X186499496Y-78930400D01*
X186663908Y-78963103D01*
G37*
G36*
X189775408Y-78963103D02*
G01*
X189930280Y-79027253D01*
X190069661Y-79120385D01*
X190188195Y-79238919D01*
X190281327Y-79378300D01*
X190345477Y-79533172D01*
X190378180Y-79697584D01*
X190378180Y-79865216D01*
X190345477Y-80029628D01*
X190281327Y-80184500D01*
X190188195Y-80323881D01*
X190069661Y-80442415D01*
X189930280Y-80535547D01*
X189775408Y-80599697D01*
X189610996Y-80632400D01*
X189443364Y-80632400D01*
X189278952Y-80599697D01*
X189124080Y-80535547D01*
X188984699Y-80442415D01*
X188866165Y-80323881D01*
X188773033Y-80184500D01*
X188708883Y-80029628D01*
X188676180Y-79865216D01*
X188676180Y-79697584D01*
X188708883Y-79533172D01*
X188773033Y-79378300D01*
X188866165Y-79238919D01*
X188984699Y-79120385D01*
X189124080Y-79027253D01*
X189278952Y-78963103D01*
X189443364Y-78930400D01*
X189610996Y-78930400D01*
X189775408Y-78963103D01*
G37*
G36*
X195998408Y-78963103D02*
G01*
X196153280Y-79027253D01*
X196292661Y-79120385D01*
X196411195Y-79238919D01*
X196504327Y-79378300D01*
X196568477Y-79533172D01*
X196601180Y-79697584D01*
X196601180Y-79865216D01*
X196568477Y-80029628D01*
X196504327Y-80184500D01*
X196411195Y-80323881D01*
X196292661Y-80442415D01*
X196153280Y-80535547D01*
X195998408Y-80599697D01*
X195833996Y-80632400D01*
X195666364Y-80632400D01*
X195501952Y-80599697D01*
X195347080Y-80535547D01*
X195207699Y-80442415D01*
X195089165Y-80323881D01*
X194996033Y-80184500D01*
X194931883Y-80029628D01*
X194899180Y-79865216D01*
X194899180Y-79697584D01*
X194931883Y-79533172D01*
X194996033Y-79378300D01*
X195089165Y-79238919D01*
X195207699Y-79120385D01*
X195347080Y-79027253D01*
X195501952Y-78963103D01*
X195666364Y-78930400D01*
X195833996Y-78930400D01*
X195998408Y-78963103D01*
G37*
G36*
X199109908Y-78963103D02*
G01*
X199264780Y-79027253D01*
X199404161Y-79120385D01*
X199522695Y-79238919D01*
X199615827Y-79378300D01*
X199679977Y-79533172D01*
X199712680Y-79697584D01*
X199712680Y-79865216D01*
X199679977Y-80029628D01*
X199615827Y-80184500D01*
X199522695Y-80323881D01*
X199404161Y-80442415D01*
X199264780Y-80535547D01*
X199109908Y-80599697D01*
X198945496Y-80632400D01*
X198777864Y-80632400D01*
X198613452Y-80599697D01*
X198458580Y-80535547D01*
X198319199Y-80442415D01*
X198200665Y-80323881D01*
X198107533Y-80184500D01*
X198043383Y-80029628D01*
X198010680Y-79865216D01*
X198010680Y-79697584D01*
X198043383Y-79533172D01*
X198107533Y-79378300D01*
X198200665Y-79238919D01*
X198319199Y-79120385D01*
X198458580Y-79027253D01*
X198613452Y-78963103D01*
X198777864Y-78930400D01*
X198945496Y-78930400D01*
X199109908Y-78963103D01*
G37*
G36*
X192886908Y-78963103D02*
G01*
X193041780Y-79027253D01*
X193181161Y-79120385D01*
X193299695Y-79238919D01*
X193392827Y-79378300D01*
X193456977Y-79533172D01*
X193489680Y-79697584D01*
X193489680Y-79865216D01*
X193456977Y-80029628D01*
X193392827Y-80184500D01*
X193299695Y-80323881D01*
X193181161Y-80442415D01*
X193041780Y-80535547D01*
X192886908Y-80599697D01*
X192722496Y-80632400D01*
X192554864Y-80632400D01*
X192390452Y-80599697D01*
X192235580Y-80535547D01*
X192096199Y-80442415D01*
X191977665Y-80323881D01*
X191884533Y-80184500D01*
X191820383Y-80029628D01*
X191787680Y-79865216D01*
X191787680Y-79697584D01*
X191820383Y-79533172D01*
X191884533Y-79378300D01*
X191977665Y-79238919D01*
X192096199Y-79120385D01*
X192235580Y-79027253D01*
X192390452Y-78963103D01*
X192554864Y-78930400D01*
X192722496Y-78930400D01*
X192886908Y-78963103D01*
G37*
G36*
X166907788Y-75915103D02*
G01*
X167062660Y-75979253D01*
X167202041Y-76072385D01*
X167320575Y-76190919D01*
X167413707Y-76330300D01*
X167477857Y-76485172D01*
X167510560Y-76649584D01*
X167510560Y-76817216D01*
X167477857Y-76981628D01*
X167413707Y-77136500D01*
X167320575Y-77275881D01*
X167202041Y-77394415D01*
X167062660Y-77487547D01*
X166907788Y-77551697D01*
X166743376Y-77584400D01*
X166575744Y-77584400D01*
X166411332Y-77551697D01*
X166256460Y-77487547D01*
X166117079Y-77394415D01*
X165998545Y-77275881D01*
X165905413Y-77136500D01*
X165841263Y-76981628D01*
X165808560Y-76817216D01*
X165808560Y-76649584D01*
X165841263Y-76485172D01*
X165905413Y-76330300D01*
X165998545Y-76190919D01*
X166117079Y-76072385D01*
X166256460Y-75979253D01*
X166411332Y-75915103D01*
X166575744Y-75882400D01*
X166743376Y-75882400D01*
X166907788Y-75915103D01*
G37*
G36*
X182750560Y-77584400D02*
G01*
X181048560Y-77584400D01*
X181048560Y-75882400D01*
X182750560Y-75882400D01*
X182750560Y-77584400D01*
G37*
G36*
X166907788Y-73375103D02*
G01*
X167062660Y-73439253D01*
X167202041Y-73532385D01*
X167320575Y-73650919D01*
X167413707Y-73790300D01*
X167477857Y-73945172D01*
X167510560Y-74109584D01*
X167510560Y-74277216D01*
X167477857Y-74441628D01*
X167413707Y-74596500D01*
X167320575Y-74735881D01*
X167202041Y-74854415D01*
X167062660Y-74947547D01*
X166907788Y-75011697D01*
X166743376Y-75044400D01*
X166575744Y-75044400D01*
X166411332Y-75011697D01*
X166256460Y-74947547D01*
X166117079Y-74854415D01*
X165998545Y-74735881D01*
X165905413Y-74596500D01*
X165841263Y-74441628D01*
X165808560Y-74277216D01*
X165808560Y-74109584D01*
X165841263Y-73945172D01*
X165905413Y-73790300D01*
X165998545Y-73650919D01*
X166117079Y-73532385D01*
X166256460Y-73439253D01*
X166411332Y-73375103D01*
X166575744Y-73342400D01*
X166743376Y-73342400D01*
X166907788Y-73375103D01*
G37*
G36*
X182147788Y-73375103D02*
G01*
X182302660Y-73439253D01*
X182442041Y-73532385D01*
X182560575Y-73650919D01*
X182653707Y-73790300D01*
X182717857Y-73945172D01*
X182750560Y-74109584D01*
X182750560Y-74277216D01*
X182717857Y-74441628D01*
X182653707Y-74596500D01*
X182560575Y-74735881D01*
X182442041Y-74854415D01*
X182302660Y-74947547D01*
X182147788Y-75011697D01*
X181983376Y-75044400D01*
X181815744Y-75044400D01*
X181651332Y-75011697D01*
X181496460Y-74947547D01*
X181357079Y-74854415D01*
X181238545Y-74735881D01*
X181145413Y-74596500D01*
X181081263Y-74441628D01*
X181048560Y-74277216D01*
X181048560Y-74109584D01*
X181081263Y-73945172D01*
X181145413Y-73790300D01*
X181238545Y-73650919D01*
X181357079Y-73532385D01*
X181496460Y-73439253D01*
X181651332Y-73375103D01*
X181815744Y-73342400D01*
X181983376Y-73342400D01*
X182147788Y-73375103D01*
G37*
G36*
X163787521Y-73653414D02*
G01*
X163887795Y-73694949D01*
X163887796Y-73694950D01*
X163978042Y-73755250D01*
X164054790Y-73831998D01*
X164054791Y-73832000D01*
X164115091Y-73922245D01*
X164156626Y-74022519D01*
X164177800Y-74128970D01*
X164177800Y-74237510D01*
X164156626Y-74343961D01*
X164115091Y-74444235D01*
X164115090Y-74444236D01*
X164054790Y-74534482D01*
X163978042Y-74611230D01*
X163932612Y-74641585D01*
X163887795Y-74671531D01*
X163787521Y-74713066D01*
X163681070Y-74734240D01*
X163572530Y-74734240D01*
X163466079Y-74713066D01*
X163365805Y-74671531D01*
X163320988Y-74641585D01*
X163275558Y-74611230D01*
X163198810Y-74534482D01*
X163138510Y-74444236D01*
X163138509Y-74444235D01*
X163096974Y-74343961D01*
X163075800Y-74237510D01*
X163075800Y-74128970D01*
X163096974Y-74022519D01*
X163138509Y-73922245D01*
X163198809Y-73832000D01*
X163198810Y-73831998D01*
X163275558Y-73755250D01*
X163365804Y-73694950D01*
X163365805Y-73694949D01*
X163466079Y-73653414D01*
X163572530Y-73632240D01*
X163681070Y-73632240D01*
X163787521Y-73653414D01*
G37*
G36*
X120962800Y-73241280D02*
G01*
X118660800Y-73241280D01*
X118660800Y-70939280D01*
X120962800Y-70939280D01*
X120962800Y-73241280D01*
G37*
G36*
X186663908Y-71343103D02*
G01*
X186818780Y-71407253D01*
X186958161Y-71500385D01*
X187076695Y-71618919D01*
X187169827Y-71758300D01*
X187233977Y-71913172D01*
X187266680Y-72077584D01*
X187266680Y-72245216D01*
X187233977Y-72409628D01*
X187169827Y-72564500D01*
X187076695Y-72703881D01*
X186958161Y-72822415D01*
X186818780Y-72915547D01*
X186663908Y-72979697D01*
X186499496Y-73012400D01*
X186331864Y-73012400D01*
X186167452Y-72979697D01*
X186012580Y-72915547D01*
X185873199Y-72822415D01*
X185754665Y-72703881D01*
X185661533Y-72564500D01*
X185597383Y-72409628D01*
X185564680Y-72245216D01*
X185564680Y-72077584D01*
X185597383Y-71913172D01*
X185661533Y-71758300D01*
X185754665Y-71618919D01*
X185873199Y-71500385D01*
X186012580Y-71407253D01*
X186167452Y-71343103D01*
X186331864Y-71310400D01*
X186499496Y-71310400D01*
X186663908Y-71343103D01*
G37*
G36*
X189775408Y-71343103D02*
G01*
X189930280Y-71407253D01*
X190069661Y-71500385D01*
X190188195Y-71618919D01*
X190281327Y-71758300D01*
X190345477Y-71913172D01*
X190378180Y-72077584D01*
X190378180Y-72245216D01*
X190345477Y-72409628D01*
X190281327Y-72564500D01*
X190188195Y-72703881D01*
X190069661Y-72822415D01*
X189930280Y-72915547D01*
X189775408Y-72979697D01*
X189610996Y-73012400D01*
X189443364Y-73012400D01*
X189278952Y-72979697D01*
X189124080Y-72915547D01*
X188984699Y-72822415D01*
X188866165Y-72703881D01*
X188773033Y-72564500D01*
X188708883Y-72409628D01*
X188676180Y-72245216D01*
X188676180Y-72077584D01*
X188708883Y-71913172D01*
X188773033Y-71758300D01*
X188866165Y-71618919D01*
X188984699Y-71500385D01*
X189124080Y-71407253D01*
X189278952Y-71343103D01*
X189443364Y-71310400D01*
X189610996Y-71310400D01*
X189775408Y-71343103D01*
G37*
G36*
X199109908Y-71343103D02*
G01*
X199264780Y-71407253D01*
X199404161Y-71500385D01*
X199522695Y-71618919D01*
X199615827Y-71758300D01*
X199679977Y-71913172D01*
X199712680Y-72077584D01*
X199712680Y-72245216D01*
X199679977Y-72409628D01*
X199615827Y-72564500D01*
X199522695Y-72703881D01*
X199404161Y-72822415D01*
X199264780Y-72915547D01*
X199109908Y-72979697D01*
X198945496Y-73012400D01*
X198777864Y-73012400D01*
X198613452Y-72979697D01*
X198458580Y-72915547D01*
X198319199Y-72822415D01*
X198200665Y-72703881D01*
X198107533Y-72564500D01*
X198043383Y-72409628D01*
X198010680Y-72245216D01*
X198010680Y-72077584D01*
X198043383Y-71913172D01*
X198107533Y-71758300D01*
X198200665Y-71618919D01*
X198319199Y-71500385D01*
X198458580Y-71407253D01*
X198613452Y-71343103D01*
X198777864Y-71310400D01*
X198945496Y-71310400D01*
X199109908Y-71343103D01*
G37*
G36*
X195998408Y-71343103D02*
G01*
X196153280Y-71407253D01*
X196292661Y-71500385D01*
X196411195Y-71618919D01*
X196504327Y-71758300D01*
X196568477Y-71913172D01*
X196601180Y-72077584D01*
X196601180Y-72245216D01*
X196568477Y-72409628D01*
X196504327Y-72564500D01*
X196411195Y-72703881D01*
X196292661Y-72822415D01*
X196153280Y-72915547D01*
X195998408Y-72979697D01*
X195833996Y-73012400D01*
X195666364Y-73012400D01*
X195501952Y-72979697D01*
X195347080Y-72915547D01*
X195207699Y-72822415D01*
X195089165Y-72703881D01*
X194996033Y-72564500D01*
X194931883Y-72409628D01*
X194899180Y-72245216D01*
X194899180Y-72077584D01*
X194931883Y-71913172D01*
X194996033Y-71758300D01*
X195089165Y-71618919D01*
X195207699Y-71500385D01*
X195347080Y-71407253D01*
X195501952Y-71343103D01*
X195666364Y-71310400D01*
X195833996Y-71310400D01*
X195998408Y-71343103D01*
G37*
G36*
X192886908Y-71343103D02*
G01*
X193041780Y-71407253D01*
X193181161Y-71500385D01*
X193299695Y-71618919D01*
X193392827Y-71758300D01*
X193456977Y-71913172D01*
X193489680Y-72077584D01*
X193489680Y-72245216D01*
X193456977Y-72409628D01*
X193392827Y-72564500D01*
X193299695Y-72703881D01*
X193181161Y-72822415D01*
X193041780Y-72915547D01*
X192886908Y-72979697D01*
X192722496Y-73012400D01*
X192554864Y-73012400D01*
X192390452Y-72979697D01*
X192235580Y-72915547D01*
X192096199Y-72822415D01*
X191977665Y-72703881D01*
X191884533Y-72564500D01*
X191820383Y-72409628D01*
X191787680Y-72245216D01*
X191787680Y-72077584D01*
X191820383Y-71913172D01*
X191884533Y-71758300D01*
X191977665Y-71618919D01*
X192096199Y-71500385D01*
X192235580Y-71407253D01*
X192390452Y-71343103D01*
X192554864Y-71310400D01*
X192722496Y-71310400D01*
X192886908Y-71343103D01*
G37*
G36*
X115885548Y-71271983D02*
G01*
X116040420Y-71336133D01*
X116179801Y-71429265D01*
X116298335Y-71547799D01*
X116391467Y-71687180D01*
X116455617Y-71842052D01*
X116488320Y-72006464D01*
X116488320Y-72174096D01*
X116455617Y-72338508D01*
X116391467Y-72493380D01*
X116298335Y-72632761D01*
X116179801Y-72751295D01*
X116040420Y-72844427D01*
X115885548Y-72908577D01*
X115721136Y-72941280D01*
X115553504Y-72941280D01*
X115389092Y-72908577D01*
X115234220Y-72844427D01*
X115094839Y-72751295D01*
X114976305Y-72632761D01*
X114883173Y-72493380D01*
X114819023Y-72338508D01*
X114786320Y-72174096D01*
X114786320Y-72006464D01*
X114819023Y-71842052D01*
X114883173Y-71687180D01*
X114976305Y-71547799D01*
X115094839Y-71429265D01*
X115234220Y-71336133D01*
X115389092Y-71271983D01*
X115553504Y-71239280D01*
X115721136Y-71239280D01*
X115885548Y-71271983D01*
G37*
G36*
X110885548Y-71271983D02*
G01*
X111040420Y-71336133D01*
X111179801Y-71429265D01*
X111298335Y-71547799D01*
X111391467Y-71687180D01*
X111455617Y-71842052D01*
X111488320Y-72006464D01*
X111488320Y-72174096D01*
X111455617Y-72338508D01*
X111391467Y-72493380D01*
X111298335Y-72632761D01*
X111179801Y-72751295D01*
X111040420Y-72844427D01*
X110885548Y-72908577D01*
X110721136Y-72941280D01*
X110553504Y-72941280D01*
X110389092Y-72908577D01*
X110234220Y-72844427D01*
X110094839Y-72751295D01*
X109976305Y-72632761D01*
X109883173Y-72493380D01*
X109819023Y-72338508D01*
X109786320Y-72174096D01*
X109786320Y-72006464D01*
X109819023Y-71842052D01*
X109883173Y-71687180D01*
X109976305Y-71547799D01*
X110094839Y-71429265D01*
X110234220Y-71336133D01*
X110389092Y-71271983D01*
X110553504Y-71239280D01*
X110721136Y-71239280D01*
X110885548Y-71271983D01*
G37*
G36*
X166907788Y-70835103D02*
G01*
X167062660Y-70899253D01*
X167202041Y-70992385D01*
X167320575Y-71110919D01*
X167413707Y-71250300D01*
X167477857Y-71405172D01*
X167510560Y-71569584D01*
X167510560Y-71737216D01*
X167477857Y-71901628D01*
X167413707Y-72056500D01*
X167320575Y-72195881D01*
X167202041Y-72314415D01*
X167062660Y-72407547D01*
X166907788Y-72471697D01*
X166743376Y-72504400D01*
X166575744Y-72504400D01*
X166411332Y-72471697D01*
X166256460Y-72407547D01*
X166117079Y-72314415D01*
X165998545Y-72195881D01*
X165905413Y-72056500D01*
X165841263Y-71901628D01*
X165808560Y-71737216D01*
X165808560Y-71569584D01*
X165841263Y-71405172D01*
X165905413Y-71250300D01*
X165998545Y-71110919D01*
X166117079Y-70992385D01*
X166256460Y-70899253D01*
X166411332Y-70835103D01*
X166575744Y-70802400D01*
X166743376Y-70802400D01*
X166907788Y-70835103D01*
G37*
G36*
X182147788Y-70835103D02*
G01*
X182302660Y-70899253D01*
X182442041Y-70992385D01*
X182560575Y-71110919D01*
X182653707Y-71250300D01*
X182717857Y-71405172D01*
X182750560Y-71569584D01*
X182750560Y-71737216D01*
X182717857Y-71901628D01*
X182653707Y-72056500D01*
X182560575Y-72195881D01*
X182442041Y-72314415D01*
X182302660Y-72407547D01*
X182147788Y-72471697D01*
X181983376Y-72504400D01*
X181815744Y-72504400D01*
X181651332Y-72471697D01*
X181496460Y-72407547D01*
X181357079Y-72314415D01*
X181238545Y-72195881D01*
X181145413Y-72056500D01*
X181081263Y-71901628D01*
X181048560Y-71737216D01*
X181048560Y-71569584D01*
X181081263Y-71405172D01*
X181145413Y-71250300D01*
X181238545Y-71110919D01*
X181357079Y-70992385D01*
X181496460Y-70899253D01*
X181651332Y-70835103D01*
X181815744Y-70802400D01*
X181983376Y-70802400D01*
X182147788Y-70835103D01*
G37*
G36*
X182147788Y-68295103D02*
G01*
X182302660Y-68359253D01*
X182442041Y-68452385D01*
X182560575Y-68570919D01*
X182653707Y-68710300D01*
X182717857Y-68865172D01*
X182750560Y-69029584D01*
X182750560Y-69197216D01*
X182717857Y-69361628D01*
X182653707Y-69516500D01*
X182560575Y-69655881D01*
X182442041Y-69774415D01*
X182302660Y-69867547D01*
X182147788Y-69931697D01*
X181983376Y-69964400D01*
X181815744Y-69964400D01*
X181651332Y-69931697D01*
X181496460Y-69867547D01*
X181357079Y-69774415D01*
X181238545Y-69655881D01*
X181145413Y-69516500D01*
X181081263Y-69361628D01*
X181048560Y-69197216D01*
X181048560Y-69029584D01*
X181081263Y-68865172D01*
X181145413Y-68710300D01*
X181238545Y-68570919D01*
X181357079Y-68452385D01*
X181496460Y-68359253D01*
X181651332Y-68295103D01*
X181815744Y-68262400D01*
X181983376Y-68262400D01*
X182147788Y-68295103D01*
G37*
G36*
X166907788Y-68295103D02*
G01*
X167062660Y-68359253D01*
X167202041Y-68452385D01*
X167320575Y-68570919D01*
X167413707Y-68710300D01*
X167477857Y-68865172D01*
X167510560Y-69029584D01*
X167510560Y-69197216D01*
X167477857Y-69361628D01*
X167413707Y-69516500D01*
X167320575Y-69655881D01*
X167202041Y-69774415D01*
X167062660Y-69867547D01*
X166907788Y-69931697D01*
X166743376Y-69964400D01*
X166575744Y-69964400D01*
X166411332Y-69931697D01*
X166256460Y-69867547D01*
X166117079Y-69774415D01*
X165998545Y-69655881D01*
X165905413Y-69516500D01*
X165841263Y-69361628D01*
X165808560Y-69197216D01*
X165808560Y-69029584D01*
X165841263Y-68865172D01*
X165905413Y-68710300D01*
X165998545Y-68570919D01*
X166117079Y-68452385D01*
X166256460Y-68359253D01*
X166411332Y-68295103D01*
X166575744Y-68262400D01*
X166743376Y-68262400D01*
X166907788Y-68295103D01*
G37*
G36*
X163812921Y-68573414D02*
G01*
X163913195Y-68614949D01*
X163913196Y-68614950D01*
X164003442Y-68675250D01*
X164080190Y-68751998D01*
X164080191Y-68752000D01*
X164140491Y-68842245D01*
X164182026Y-68942519D01*
X164203200Y-69048970D01*
X164203200Y-69157510D01*
X164182026Y-69263961D01*
X164140491Y-69364235D01*
X164140490Y-69364236D01*
X164080190Y-69454482D01*
X164003442Y-69531230D01*
X163958012Y-69561585D01*
X163913195Y-69591531D01*
X163812921Y-69633066D01*
X163706470Y-69654240D01*
X163597930Y-69654240D01*
X163491479Y-69633066D01*
X163391205Y-69591531D01*
X163346388Y-69561585D01*
X163300958Y-69531230D01*
X163224210Y-69454482D01*
X163163910Y-69364236D01*
X163163909Y-69364235D01*
X163122374Y-69263961D01*
X163101200Y-69157510D01*
X163101200Y-69048970D01*
X163122374Y-68942519D01*
X163163909Y-68842245D01*
X163224209Y-68752000D01*
X163224210Y-68751998D01*
X163300958Y-68675250D01*
X163391204Y-68614950D01*
X163391205Y-68614949D01*
X163491479Y-68573414D01*
X163597930Y-68552240D01*
X163706470Y-68552240D01*
X163812921Y-68573414D01*
G37*
G36*
X190936188Y-66501863D02*
G01*
X191091060Y-66566013D01*
X191230441Y-66659145D01*
X191348975Y-66777679D01*
X191442107Y-66917060D01*
X191506257Y-67071932D01*
X191538960Y-67236344D01*
X191538960Y-67403976D01*
X191506257Y-67568388D01*
X191442107Y-67723260D01*
X191348975Y-67862641D01*
X191230441Y-67981175D01*
X191091060Y-68074307D01*
X190936188Y-68138457D01*
X190771776Y-68171160D01*
X190604144Y-68171160D01*
X190439732Y-68138457D01*
X190284860Y-68074307D01*
X190145479Y-67981175D01*
X190026945Y-67862641D01*
X189933813Y-67723260D01*
X189869663Y-67568388D01*
X189836960Y-67403976D01*
X189836960Y-67236344D01*
X189869663Y-67071932D01*
X189933813Y-66917060D01*
X190026945Y-66777679D01*
X190145479Y-66659145D01*
X190284860Y-66566013D01*
X190439732Y-66501863D01*
X190604144Y-66469160D01*
X190771776Y-66469160D01*
X190936188Y-66501863D01*
G37*
G36*
X193994348Y-66481543D02*
G01*
X194149220Y-66545693D01*
X194288601Y-66638825D01*
X194407135Y-66757359D01*
X194500267Y-66896740D01*
X194564417Y-67051612D01*
X194597120Y-67216024D01*
X194597120Y-67383656D01*
X194564417Y-67548068D01*
X194500267Y-67702940D01*
X194407135Y-67842321D01*
X194288601Y-67960855D01*
X194149220Y-68053987D01*
X193994348Y-68118137D01*
X193829936Y-68150840D01*
X193662304Y-68150840D01*
X193497892Y-68118137D01*
X193343020Y-68053987D01*
X193203639Y-67960855D01*
X193085105Y-67842321D01*
X192991973Y-67702940D01*
X192927823Y-67548068D01*
X192895120Y-67383656D01*
X192895120Y-67216024D01*
X192927823Y-67051612D01*
X192991973Y-66896740D01*
X193085105Y-66757359D01*
X193203639Y-66638825D01*
X193343020Y-66545693D01*
X193497892Y-66481543D01*
X193662304Y-66448840D01*
X193829936Y-66448840D01*
X193994348Y-66481543D01*
G37*
G36*
X198994348Y-66481543D02*
G01*
X199149220Y-66545693D01*
X199288601Y-66638825D01*
X199407135Y-66757359D01*
X199500267Y-66896740D01*
X199564417Y-67051612D01*
X199597120Y-67216024D01*
X199597120Y-67383656D01*
X199564417Y-67548068D01*
X199500267Y-67702940D01*
X199407135Y-67842321D01*
X199288601Y-67960855D01*
X199149220Y-68053987D01*
X198994348Y-68118137D01*
X198829936Y-68150840D01*
X198662304Y-68150840D01*
X198497892Y-68118137D01*
X198343020Y-68053987D01*
X198203639Y-67960855D01*
X198085105Y-67842321D01*
X197991973Y-67702940D01*
X197927823Y-67548068D01*
X197895120Y-67383656D01*
X197895120Y-67216024D01*
X197927823Y-67051612D01*
X197991973Y-66896740D01*
X198085105Y-66757359D01*
X198203639Y-66638825D01*
X198343020Y-66545693D01*
X198497892Y-66481543D01*
X198662304Y-66448840D01*
X198829936Y-66448840D01*
X198994348Y-66481543D01*
G37*
G36*
X166907788Y-65755103D02*
G01*
X167062660Y-65819253D01*
X167202041Y-65912385D01*
X167320575Y-66030919D01*
X167413707Y-66170300D01*
X167477857Y-66325172D01*
X167510560Y-66489584D01*
X167510560Y-66657216D01*
X167477857Y-66821628D01*
X167413707Y-66976500D01*
X167320575Y-67115881D01*
X167202041Y-67234415D01*
X167062660Y-67327547D01*
X166907788Y-67391697D01*
X166743376Y-67424400D01*
X166575744Y-67424400D01*
X166411332Y-67391697D01*
X166256460Y-67327547D01*
X166117079Y-67234415D01*
X165998545Y-67115881D01*
X165905413Y-66976500D01*
X165841263Y-66821628D01*
X165808560Y-66657216D01*
X165808560Y-66489584D01*
X165841263Y-66325172D01*
X165905413Y-66170300D01*
X165998545Y-66030919D01*
X166117079Y-65912385D01*
X166256460Y-65819253D01*
X166411332Y-65755103D01*
X166575744Y-65722400D01*
X166743376Y-65722400D01*
X166907788Y-65755103D01*
G37*
G36*
X182147788Y-65755103D02*
G01*
X182302660Y-65819253D01*
X182442041Y-65912385D01*
X182560575Y-66030919D01*
X182653707Y-66170300D01*
X182717857Y-66325172D01*
X182750560Y-66489584D01*
X182750560Y-66657216D01*
X182717857Y-66821628D01*
X182653707Y-66976500D01*
X182560575Y-67115881D01*
X182442041Y-67234415D01*
X182302660Y-67327547D01*
X182147788Y-67391697D01*
X181983376Y-67424400D01*
X181815744Y-67424400D01*
X181651332Y-67391697D01*
X181496460Y-67327547D01*
X181357079Y-67234415D01*
X181238545Y-67115881D01*
X181145413Y-66976500D01*
X181081263Y-66821628D01*
X181048560Y-66657216D01*
X181048560Y-66489584D01*
X181081263Y-66325172D01*
X181145413Y-66170300D01*
X181238545Y-66030919D01*
X181357079Y-65912385D01*
X181496460Y-65819253D01*
X181651332Y-65755103D01*
X181815744Y-65722400D01*
X181983376Y-65722400D01*
X182147788Y-65755103D01*
G37*
G36*
X112306200Y-66703040D02*
G01*
X110604200Y-66703040D01*
X110604200Y-65001040D01*
X112306200Y-65001040D01*
X112306200Y-66703040D01*
G37*
G36*
X115203428Y-65033743D02*
G01*
X115358300Y-65097893D01*
X115497681Y-65191025D01*
X115616215Y-65309559D01*
X115709347Y-65448940D01*
X115773497Y-65603812D01*
X115806200Y-65768224D01*
X115806200Y-65935856D01*
X115773497Y-66100268D01*
X115709347Y-66255140D01*
X115616215Y-66394521D01*
X115497681Y-66513055D01*
X115358300Y-66606187D01*
X115203428Y-66670337D01*
X115039016Y-66703040D01*
X114871384Y-66703040D01*
X114706972Y-66670337D01*
X114552100Y-66606187D01*
X114412719Y-66513055D01*
X114294185Y-66394521D01*
X114201053Y-66255140D01*
X114136903Y-66100268D01*
X114104200Y-65935856D01*
X114104200Y-65768224D01*
X114136903Y-65603812D01*
X114201053Y-65448940D01*
X114294185Y-65309559D01*
X114412719Y-65191025D01*
X114552100Y-65097893D01*
X114706972Y-65033743D01*
X114871384Y-65001040D01*
X115039016Y-65001040D01*
X115203428Y-65033743D01*
G37*
G36*
X182147788Y-63215103D02*
G01*
X182302660Y-63279253D01*
X182442041Y-63372385D01*
X182560575Y-63490919D01*
X182653707Y-63630300D01*
X182717857Y-63785172D01*
X182750560Y-63949584D01*
X182750560Y-64117216D01*
X182717857Y-64281628D01*
X182653707Y-64436500D01*
X182560575Y-64575881D01*
X182442041Y-64694415D01*
X182302660Y-64787547D01*
X182147788Y-64851697D01*
X181983376Y-64884400D01*
X181815744Y-64884400D01*
X181651332Y-64851697D01*
X181496460Y-64787547D01*
X181357079Y-64694415D01*
X181238545Y-64575881D01*
X181145413Y-64436500D01*
X181081263Y-64281628D01*
X181048560Y-64117216D01*
X181048560Y-63949584D01*
X181081263Y-63785172D01*
X181145413Y-63630300D01*
X181238545Y-63490919D01*
X181357079Y-63372385D01*
X181496460Y-63279253D01*
X181651332Y-63215103D01*
X181815744Y-63182400D01*
X181983376Y-63182400D01*
X182147788Y-63215103D01*
G37*
G36*
X166907788Y-63215103D02*
G01*
X167062660Y-63279253D01*
X167202041Y-63372385D01*
X167320575Y-63490919D01*
X167413707Y-63630300D01*
X167477857Y-63785172D01*
X167510560Y-63949584D01*
X167510560Y-64117216D01*
X167477857Y-64281628D01*
X167413707Y-64436500D01*
X167320575Y-64575881D01*
X167202041Y-64694415D01*
X167062660Y-64787547D01*
X166907788Y-64851697D01*
X166743376Y-64884400D01*
X166575744Y-64884400D01*
X166411332Y-64851697D01*
X166256460Y-64787547D01*
X166117079Y-64694415D01*
X165998545Y-64575881D01*
X165905413Y-64436500D01*
X165841263Y-64281628D01*
X165808560Y-64117216D01*
X165808560Y-63949584D01*
X165841263Y-63785172D01*
X165905413Y-63630300D01*
X165998545Y-63490919D01*
X166117079Y-63372385D01*
X166256460Y-63279253D01*
X166411332Y-63215103D01*
X166575744Y-63182400D01*
X166743376Y-63182400D01*
X166907788Y-63215103D01*
G37*
G36*
X145921625Y-62247547D02*
G01*
X145940769Y-62251355D01*
X146168437Y-62345658D01*
X146373332Y-62482565D01*
X146547581Y-62656814D01*
X146659505Y-62824320D01*
X146684489Y-62861711D01*
X146778791Y-63089377D01*
X146826866Y-63331066D01*
X146826866Y-63577494D01*
X146816152Y-63631358D01*
X146778791Y-63819183D01*
X146684488Y-64046851D01*
X146547581Y-64251746D01*
X146373332Y-64425995D01*
X146168437Y-64562902D01*
X146168436Y-64562903D01*
X146168435Y-64562903D01*
X145940769Y-64657205D01*
X145699080Y-64705280D01*
X145452652Y-64705280D01*
X145210963Y-64657205D01*
X144983297Y-64562903D01*
X144983296Y-64562903D01*
X144983295Y-64562902D01*
X144778400Y-64425995D01*
X144604151Y-64251746D01*
X144467244Y-64046851D01*
X144372941Y-63819183D01*
X144335580Y-63631358D01*
X144324866Y-63577494D01*
X144324866Y-63331066D01*
X144372941Y-63089377D01*
X144467243Y-62861711D01*
X144492227Y-62824320D01*
X144604151Y-62656814D01*
X144778400Y-62482565D01*
X144983295Y-62345658D01*
X145210963Y-62251355D01*
X145230107Y-62247547D01*
X145452652Y-62203280D01*
X145699080Y-62203280D01*
X145921625Y-62247547D01*
G37*
G36*
X132374959Y-62247547D02*
G01*
X132394103Y-62251355D01*
X132621771Y-62345658D01*
X132826666Y-62482565D01*
X133000915Y-62656814D01*
X133112839Y-62824320D01*
X133137823Y-62861711D01*
X133232125Y-63089377D01*
X133280200Y-63331066D01*
X133280200Y-63577494D01*
X133269486Y-63631358D01*
X133232125Y-63819183D01*
X133137822Y-64046851D01*
X133000915Y-64251746D01*
X132826666Y-64425995D01*
X132621771Y-64562902D01*
X132621770Y-64562903D01*
X132621769Y-64562903D01*
X132394103Y-64657205D01*
X132152414Y-64705280D01*
X131905986Y-64705280D01*
X131664297Y-64657205D01*
X131436631Y-64562903D01*
X131436630Y-64562903D01*
X131436629Y-64562902D01*
X131231734Y-64425995D01*
X131057485Y-64251746D01*
X130920578Y-64046851D01*
X130826275Y-63819183D01*
X130788914Y-63631358D01*
X130778200Y-63577494D01*
X130778200Y-63331066D01*
X130826275Y-63089377D01*
X130920577Y-62861711D01*
X130945561Y-62824320D01*
X131057485Y-62656814D01*
X131231734Y-62482565D01*
X131436629Y-62345658D01*
X131664297Y-62251355D01*
X131683441Y-62247547D01*
X131905986Y-62203280D01*
X132152414Y-62203280D01*
X132374959Y-62247547D01*
G37*
G36*
X152694959Y-62247547D02*
G01*
X152714103Y-62251355D01*
X152941771Y-62345658D01*
X153146666Y-62482565D01*
X153320915Y-62656814D01*
X153432839Y-62824320D01*
X153457823Y-62861711D01*
X153552125Y-63089377D01*
X153600200Y-63331066D01*
X153600200Y-63577494D01*
X153589486Y-63631358D01*
X153552125Y-63819183D01*
X153457822Y-64046851D01*
X153320915Y-64251746D01*
X153146666Y-64425995D01*
X152941771Y-64562902D01*
X152941770Y-64562903D01*
X152941769Y-64562903D01*
X152714103Y-64657205D01*
X152472414Y-64705280D01*
X152225986Y-64705280D01*
X151984297Y-64657205D01*
X151756631Y-64562903D01*
X151756630Y-64562903D01*
X151756629Y-64562902D01*
X151551734Y-64425995D01*
X151377485Y-64251746D01*
X151240578Y-64046851D01*
X151146275Y-63819183D01*
X151108914Y-63631358D01*
X151098200Y-63577494D01*
X151098200Y-63331066D01*
X151146275Y-63089377D01*
X151240577Y-62861711D01*
X151265561Y-62824320D01*
X151377485Y-62656814D01*
X151551734Y-62482565D01*
X151756629Y-62345658D01*
X151984297Y-62251355D01*
X152003441Y-62247547D01*
X152225986Y-62203280D01*
X152472414Y-62203280D01*
X152694959Y-62247547D01*
G37*
G36*
X139148292Y-62247547D02*
G01*
X139167436Y-62251355D01*
X139395104Y-62345658D01*
X139599999Y-62482565D01*
X139774248Y-62656814D01*
X139886172Y-62824320D01*
X139911156Y-62861711D01*
X140005458Y-63089377D01*
X140053533Y-63331066D01*
X140053533Y-63577494D01*
X140042819Y-63631358D01*
X140005458Y-63819183D01*
X139911155Y-64046851D01*
X139774248Y-64251746D01*
X139599999Y-64425995D01*
X139395104Y-64562902D01*
X139395103Y-64562903D01*
X139395102Y-64562903D01*
X139167436Y-64657205D01*
X138925747Y-64705280D01*
X138679319Y-64705280D01*
X138437630Y-64657205D01*
X138209964Y-64562903D01*
X138209963Y-64562903D01*
X138209962Y-64562902D01*
X138005067Y-64425995D01*
X137830818Y-64251746D01*
X137693911Y-64046851D01*
X137599608Y-63819183D01*
X137562247Y-63631358D01*
X137551533Y-63577494D01*
X137551533Y-63331066D01*
X137599608Y-63089377D01*
X137693910Y-62861711D01*
X137718894Y-62824320D01*
X137830818Y-62656814D01*
X138005067Y-62482565D01*
X138209962Y-62345658D01*
X138437630Y-62251355D01*
X138456774Y-62247547D01*
X138679319Y-62203280D01*
X138925747Y-62203280D01*
X139148292Y-62247547D01*
G37*
G36*
X184925401Y-63452774D02*
G01*
X185025675Y-63494309D01*
X185025676Y-63494310D01*
X185115922Y-63554610D01*
X185192670Y-63631358D01*
X185192671Y-63631360D01*
X185252971Y-63721605D01*
X185294506Y-63821879D01*
X185315680Y-63928330D01*
X185315680Y-64036870D01*
X185294506Y-64143321D01*
X185252971Y-64243595D01*
X185227558Y-64281628D01*
X185192670Y-64333842D01*
X185115922Y-64410590D01*
X185092865Y-64425996D01*
X185025675Y-64470891D01*
X184925401Y-64512426D01*
X184818950Y-64533600D01*
X184710410Y-64533600D01*
X184603959Y-64512426D01*
X184503685Y-64470891D01*
X184436495Y-64425996D01*
X184413438Y-64410590D01*
X184336690Y-64333842D01*
X184301802Y-64281628D01*
X184276389Y-64243595D01*
X184234854Y-64143321D01*
X184213680Y-64036870D01*
X184213680Y-63928330D01*
X184234854Y-63821879D01*
X184276389Y-63721605D01*
X184336689Y-63631360D01*
X184336690Y-63631358D01*
X184413438Y-63554610D01*
X184503684Y-63494310D01*
X184503685Y-63494309D01*
X184603959Y-63452774D01*
X184710410Y-63431600D01*
X184818950Y-63431600D01*
X184925401Y-63452774D01*
G37*
G36*
X120036349Y-60801396D02*
G01*
X120147534Y-60823512D01*
X120357003Y-60910277D01*
X120545520Y-61036240D01*
X120705840Y-61196560D01*
X120831803Y-61385077D01*
X120918568Y-61594546D01*
X120962800Y-61816916D01*
X120962800Y-62043644D01*
X120918568Y-62266014D01*
X120831803Y-62475483D01*
X120705840Y-62664000D01*
X120545520Y-62824320D01*
X120357003Y-62950283D01*
X120147534Y-63037048D01*
X120036349Y-63059164D01*
X119925165Y-63081280D01*
X119698435Y-63081280D01*
X119587251Y-63059164D01*
X119476066Y-63037048D01*
X119266597Y-62950283D01*
X119078080Y-62824320D01*
X118917760Y-62664000D01*
X118791797Y-62475483D01*
X118705032Y-62266014D01*
X118660800Y-62043644D01*
X118660800Y-61816916D01*
X118705032Y-61594546D01*
X118791797Y-61385077D01*
X118917760Y-61196560D01*
X119078080Y-61036240D01*
X119266597Y-60910277D01*
X119476066Y-60823512D01*
X119587251Y-60801396D01*
X119698435Y-60779280D01*
X119925165Y-60779280D01*
X120036349Y-60801396D01*
G37*
G36*
X182147788Y-60675103D02*
G01*
X182302660Y-60739253D01*
X182442041Y-60832385D01*
X182560575Y-60950919D01*
X182653707Y-61090300D01*
X182717857Y-61245172D01*
X182750560Y-61409584D01*
X182750560Y-61577216D01*
X182717857Y-61741628D01*
X182653707Y-61896500D01*
X182560575Y-62035881D01*
X182442041Y-62154415D01*
X182302660Y-62247547D01*
X182147788Y-62311697D01*
X181983376Y-62344400D01*
X181815744Y-62344400D01*
X181651332Y-62311697D01*
X181496460Y-62247547D01*
X181357079Y-62154415D01*
X181238545Y-62035881D01*
X181145413Y-61896500D01*
X181081263Y-61741628D01*
X181048560Y-61577216D01*
X181048560Y-61409584D01*
X181081263Y-61245172D01*
X181145413Y-61090300D01*
X181238545Y-60950919D01*
X181357079Y-60832385D01*
X181496460Y-60739253D01*
X181651332Y-60675103D01*
X181815744Y-60642400D01*
X181983376Y-60642400D01*
X182147788Y-60675103D01*
G37*
G36*
X166907788Y-60675103D02*
G01*
X167062660Y-60739253D01*
X167202041Y-60832385D01*
X167320575Y-60950919D01*
X167413707Y-61090300D01*
X167477857Y-61245172D01*
X167510560Y-61409584D01*
X167510560Y-61577216D01*
X167477857Y-61741628D01*
X167413707Y-61896500D01*
X167320575Y-62035881D01*
X167202041Y-62154415D01*
X167062660Y-62247547D01*
X166907788Y-62311697D01*
X166743376Y-62344400D01*
X166575744Y-62344400D01*
X166411332Y-62311697D01*
X166256460Y-62247547D01*
X166117079Y-62154415D01*
X165998545Y-62035881D01*
X165905413Y-61896500D01*
X165841263Y-61741628D01*
X165808560Y-61577216D01*
X165808560Y-61409584D01*
X165841263Y-61245172D01*
X165905413Y-61090300D01*
X165998545Y-60950919D01*
X166117079Y-60832385D01*
X166256460Y-60739253D01*
X166411332Y-60675103D01*
X166575744Y-60642400D01*
X166743376Y-60642400D01*
X166907788Y-60675103D01*
G37*
G36*
X196861316Y-60030174D02*
G01*
X196969892Y-60063111D01*
X196969895Y-60063112D01*
X197006001Y-60082411D01*
X197069957Y-60116596D01*
X197157664Y-60188576D01*
X197220783Y-60265486D01*
X197238102Y-60282805D01*
X197258477Y-60296419D01*
X197281116Y-60305797D01*
X197305149Y-60310577D01*
X197329653Y-60310577D01*
X197353686Y-60305797D01*
X197376325Y-60296419D01*
X197396699Y-60282806D01*
X197414026Y-60265479D01*
X197427640Y-60245104D01*
X197437018Y-60222465D01*
X197441798Y-60198432D01*
X197442400Y-60186180D01*
X197442400Y-60021840D01*
X198594400Y-60021840D01*
X198594400Y-61623840D01*
X197442400Y-61623840D01*
X197442400Y-61459500D01*
X197439998Y-61435114D01*
X197432885Y-61411665D01*
X197421334Y-61390054D01*
X197405789Y-61371112D01*
X197386847Y-61355567D01*
X197365236Y-61344016D01*
X197341787Y-61336903D01*
X197317401Y-61334501D01*
X197293015Y-61336903D01*
X197269566Y-61344016D01*
X197247955Y-61355567D01*
X197220781Y-61380196D01*
X197157664Y-61457104D01*
X197069956Y-61529084D01*
X197006000Y-61563269D01*
X196969894Y-61582568D01*
X196969891Y-61582569D01*
X196861315Y-61615506D01*
X196748400Y-61626627D01*
X196635484Y-61615506D01*
X196526908Y-61582569D01*
X196526905Y-61582568D01*
X196490799Y-61563269D01*
X196426843Y-61529084D01*
X196339136Y-61457104D01*
X196267156Y-61369396D01*
X196223639Y-61287980D01*
X196210025Y-61267606D01*
X196192698Y-61250279D01*
X196172324Y-61236665D01*
X196149685Y-61227288D01*
X196125651Y-61222508D01*
X196101147Y-61222508D01*
X196077114Y-61227289D01*
X196054475Y-61236666D01*
X196034101Y-61250280D01*
X196016774Y-61267607D01*
X196003162Y-61287980D01*
X195959644Y-61369397D01*
X195887664Y-61457104D01*
X195799956Y-61529084D01*
X195736000Y-61563269D01*
X195699894Y-61582568D01*
X195699891Y-61582569D01*
X195591315Y-61615506D01*
X195478400Y-61626627D01*
X195365484Y-61615506D01*
X195256908Y-61582569D01*
X195256905Y-61582568D01*
X195220799Y-61563269D01*
X195156843Y-61529084D01*
X195069136Y-61457104D01*
X194997156Y-61369396D01*
X194953639Y-61287980D01*
X194943672Y-61269334D01*
X194937892Y-61250280D01*
X194910734Y-61160755D01*
X194902400Y-61076137D01*
X194902400Y-60569542D01*
X194910734Y-60484924D01*
X194943671Y-60376348D01*
X194943672Y-60376345D01*
X194997156Y-60276285D01*
X194997157Y-60276283D01*
X195069137Y-60188576D01*
X195156844Y-60116596D01*
X195220800Y-60082411D01*
X195256906Y-60063112D01*
X195256909Y-60063111D01*
X195365485Y-60030174D01*
X195478400Y-60019053D01*
X195591316Y-60030174D01*
X195699892Y-60063111D01*
X195699895Y-60063112D01*
X195736001Y-60082411D01*
X195799957Y-60116596D01*
X195887664Y-60188576D01*
X195959644Y-60276283D01*
X195975419Y-60305797D01*
X196003161Y-60357699D01*
X196016775Y-60378074D01*
X196034102Y-60395401D01*
X196054476Y-60409014D01*
X196077115Y-60418392D01*
X196101148Y-60423172D01*
X196125652Y-60423172D01*
X196149685Y-60418392D01*
X196172324Y-60409014D01*
X196192699Y-60395400D01*
X196210026Y-60378073D01*
X196223639Y-60357699D01*
X196267156Y-60276285D01*
X196267157Y-60276283D01*
X196339137Y-60188576D01*
X196426844Y-60116596D01*
X196490800Y-60082411D01*
X196526906Y-60063112D01*
X196526909Y-60063111D01*
X196635485Y-60030174D01*
X196748400Y-60019053D01*
X196861316Y-60030174D01*
G37*
G36*
X190936188Y-58881863D02*
G01*
X191091060Y-58946013D01*
X191230441Y-59039145D01*
X191348975Y-59157679D01*
X191442107Y-59297060D01*
X191506257Y-59451932D01*
X191538960Y-59616344D01*
X191538960Y-59783976D01*
X191506257Y-59948388D01*
X191442107Y-60103260D01*
X191348975Y-60242641D01*
X191230441Y-60361175D01*
X191091060Y-60454307D01*
X190936188Y-60518457D01*
X190771776Y-60551160D01*
X190604144Y-60551160D01*
X190439732Y-60518457D01*
X190284860Y-60454307D01*
X190145479Y-60361175D01*
X190026945Y-60242641D01*
X189933813Y-60103260D01*
X189869663Y-59948388D01*
X189836960Y-59783976D01*
X189836960Y-59616344D01*
X189869663Y-59451932D01*
X189933813Y-59297060D01*
X190026945Y-59157679D01*
X190145479Y-59039145D01*
X190284860Y-58946013D01*
X190439732Y-58881863D01*
X190604144Y-58849160D01*
X190771776Y-58849160D01*
X190936188Y-58881863D01*
G37*
G36*
X166907788Y-58135103D02*
G01*
X167062660Y-58199253D01*
X167202041Y-58292385D01*
X167320575Y-58410919D01*
X167413707Y-58550300D01*
X167477857Y-58705172D01*
X167510560Y-58869584D01*
X167510560Y-59037216D01*
X167477857Y-59201628D01*
X167413707Y-59356500D01*
X167320575Y-59495881D01*
X167202041Y-59614415D01*
X167062660Y-59707547D01*
X166907788Y-59771697D01*
X166743376Y-59804400D01*
X166575744Y-59804400D01*
X166411332Y-59771697D01*
X166256460Y-59707547D01*
X166117079Y-59614415D01*
X165998545Y-59495881D01*
X165905413Y-59356500D01*
X165841263Y-59201628D01*
X165808560Y-59037216D01*
X165808560Y-58869584D01*
X165841263Y-58705172D01*
X165905413Y-58550300D01*
X165998545Y-58410919D01*
X166117079Y-58292385D01*
X166256460Y-58199253D01*
X166411332Y-58135103D01*
X166575744Y-58102400D01*
X166743376Y-58102400D01*
X166907788Y-58135103D01*
G37*
G36*
X182147788Y-58135103D02*
G01*
X182302660Y-58199253D01*
X182442041Y-58292385D01*
X182560575Y-58410919D01*
X182653707Y-58550300D01*
X182717857Y-58705172D01*
X182750560Y-58869584D01*
X182750560Y-59037216D01*
X182717857Y-59201628D01*
X182653707Y-59356500D01*
X182560575Y-59495881D01*
X182442041Y-59614415D01*
X182302660Y-59707547D01*
X182147788Y-59771697D01*
X181983376Y-59804400D01*
X181815744Y-59804400D01*
X181651332Y-59771697D01*
X181496460Y-59707547D01*
X181357079Y-59614415D01*
X181238545Y-59495881D01*
X181145413Y-59356500D01*
X181081263Y-59201628D01*
X181048560Y-59037216D01*
X181048560Y-58869584D01*
X181081263Y-58705172D01*
X181145413Y-58550300D01*
X181238545Y-58410919D01*
X181357079Y-58292385D01*
X181496460Y-58199253D01*
X181651332Y-58135103D01*
X181815744Y-58102400D01*
X181983376Y-58102400D01*
X182147788Y-58135103D01*
G37*
G36*
X184925401Y-58428654D02*
G01*
X185025675Y-58470189D01*
X185070492Y-58500135D01*
X185115922Y-58530490D01*
X185192670Y-58607238D01*
X185192671Y-58607240D01*
X185252971Y-58697485D01*
X185294506Y-58797759D01*
X185315680Y-58904210D01*
X185315680Y-59012750D01*
X185294506Y-59119201D01*
X185252971Y-59219475D01*
X185252970Y-59219476D01*
X185192670Y-59309722D01*
X185115922Y-59386470D01*
X185070492Y-59416825D01*
X185025675Y-59446771D01*
X184925401Y-59488306D01*
X184818950Y-59509480D01*
X184710410Y-59509480D01*
X184603959Y-59488306D01*
X184503685Y-59446771D01*
X184458868Y-59416825D01*
X184413438Y-59386470D01*
X184336690Y-59309722D01*
X184276390Y-59219476D01*
X184276389Y-59219475D01*
X184234854Y-59119201D01*
X184213680Y-59012750D01*
X184213680Y-58904210D01*
X184234854Y-58797759D01*
X184276389Y-58697485D01*
X184336689Y-58607240D01*
X184336690Y-58607238D01*
X184413438Y-58530490D01*
X184458868Y-58500135D01*
X184503685Y-58470189D01*
X184603959Y-58428654D01*
X184710410Y-58407480D01*
X184818950Y-58407480D01*
X184925401Y-58428654D01*
G37*
G36*
X110645265Y-55588162D02*
G01*
X110795090Y-55617964D01*
X111077354Y-55734881D01*
X111331385Y-55904619D01*
X111547421Y-56120655D01*
X111717159Y-56374686D01*
X111834076Y-56656950D01*
X111835007Y-56661629D01*
X111893680Y-56956599D01*
X111893680Y-57262121D01*
X111863878Y-57411945D01*
X111834076Y-57561770D01*
X111717159Y-57844034D01*
X111547421Y-58098065D01*
X111331385Y-58314101D01*
X111077354Y-58483839D01*
X110795090Y-58600756D01*
X110645265Y-58630558D01*
X110495441Y-58660360D01*
X110189919Y-58660360D01*
X110040095Y-58630558D01*
X109890270Y-58600756D01*
X109608006Y-58483839D01*
X109353975Y-58314101D01*
X109137939Y-58098065D01*
X108968201Y-57844034D01*
X108851284Y-57561770D01*
X108821482Y-57411945D01*
X108791680Y-57262121D01*
X108791680Y-56956599D01*
X108850353Y-56661629D01*
X108851284Y-56656950D01*
X108968201Y-56374686D01*
X109137939Y-56120655D01*
X109353975Y-55904619D01*
X109608006Y-55734881D01*
X109890270Y-55617964D01*
X110040095Y-55588162D01*
X110189919Y-55558360D01*
X110495441Y-55558360D01*
X110645265Y-55588162D01*
G37*
G36*
X182147788Y-55595103D02*
G01*
X182302660Y-55659253D01*
X182442041Y-55752385D01*
X182560575Y-55870919D01*
X182653707Y-56010300D01*
X182717857Y-56165172D01*
X182750560Y-56329584D01*
X182750560Y-56497216D01*
X182717857Y-56661628D01*
X182653707Y-56816500D01*
X182560575Y-56955881D01*
X182442041Y-57074415D01*
X182302660Y-57167547D01*
X182147788Y-57231697D01*
X181983376Y-57264400D01*
X181815744Y-57264400D01*
X181651332Y-57231697D01*
X181496460Y-57167547D01*
X181357079Y-57074415D01*
X181238545Y-56955881D01*
X181145413Y-56816500D01*
X181081263Y-56661628D01*
X181048560Y-56497216D01*
X181048560Y-56329584D01*
X181081263Y-56165172D01*
X181145413Y-56010300D01*
X181238545Y-55870919D01*
X181357079Y-55752385D01*
X181496460Y-55659253D01*
X181651332Y-55595103D01*
X181815744Y-55562400D01*
X181983376Y-55562400D01*
X182147788Y-55595103D01*
G37*
G36*
X166907788Y-55595103D02*
G01*
X167062660Y-55659253D01*
X167202041Y-55752385D01*
X167320575Y-55870919D01*
X167413707Y-56010300D01*
X167477857Y-56165172D01*
X167510560Y-56329584D01*
X167510560Y-56497216D01*
X167477857Y-56661628D01*
X167413707Y-56816500D01*
X167320575Y-56955881D01*
X167202041Y-57074415D01*
X167062660Y-57167547D01*
X166907788Y-57231697D01*
X166743376Y-57264400D01*
X166575744Y-57264400D01*
X166411332Y-57231697D01*
X166256460Y-57167547D01*
X166117079Y-57074415D01*
X165998545Y-56955881D01*
X165905413Y-56816500D01*
X165841263Y-56661628D01*
X165808560Y-56497216D01*
X165808560Y-56329584D01*
X165841263Y-56165172D01*
X165905413Y-56010300D01*
X165998545Y-55870919D01*
X166117079Y-55752385D01*
X166256460Y-55659253D01*
X166411332Y-55595103D01*
X166575744Y-55562400D01*
X166743376Y-55562400D01*
X166907788Y-55595103D01*
G37*
G36*
X184925401Y-55853094D02*
G01*
X185025675Y-55894629D01*
X185070492Y-55924575D01*
X185115922Y-55954930D01*
X185192670Y-56031678D01*
X185192671Y-56031680D01*
X185252971Y-56121925D01*
X185294506Y-56222199D01*
X185315680Y-56328650D01*
X185315680Y-56437190D01*
X185294506Y-56543641D01*
X185252971Y-56643915D01*
X185241135Y-56661629D01*
X185192670Y-56734162D01*
X185115922Y-56810910D01*
X185107560Y-56816497D01*
X185025675Y-56871211D01*
X184925401Y-56912746D01*
X184818950Y-56933920D01*
X184710410Y-56933920D01*
X184603959Y-56912746D01*
X184503685Y-56871211D01*
X184421800Y-56816497D01*
X184413438Y-56810910D01*
X184336690Y-56734162D01*
X184288225Y-56661629D01*
X184276389Y-56643915D01*
X184234854Y-56543641D01*
X184213680Y-56437190D01*
X184213680Y-56328650D01*
X184234854Y-56222199D01*
X184276389Y-56121925D01*
X184336689Y-56031680D01*
X184336690Y-56031678D01*
X184413438Y-55954930D01*
X184458868Y-55924575D01*
X184503685Y-55894629D01*
X184603959Y-55853094D01*
X184710410Y-55831920D01*
X184818950Y-55831920D01*
X184925401Y-55853094D01*
G37*
G36*
X182147788Y-53055103D02*
G01*
X182302660Y-53119253D01*
X182442041Y-53212385D01*
X182560575Y-53330919D01*
X182653707Y-53470300D01*
X182717857Y-53625172D01*
X182750560Y-53789584D01*
X182750560Y-53957216D01*
X182717857Y-54121628D01*
X182653707Y-54276500D01*
X182560575Y-54415881D01*
X182442041Y-54534415D01*
X182302660Y-54627547D01*
X182147788Y-54691697D01*
X181983376Y-54724400D01*
X181815744Y-54724400D01*
X181651332Y-54691697D01*
X181496460Y-54627547D01*
X181357079Y-54534415D01*
X181238545Y-54415881D01*
X181145413Y-54276500D01*
X181081263Y-54121628D01*
X181048560Y-53957216D01*
X181048560Y-53789584D01*
X181081263Y-53625172D01*
X181145413Y-53470300D01*
X181238545Y-53330919D01*
X181357079Y-53212385D01*
X181496460Y-53119253D01*
X181651332Y-53055103D01*
X181815744Y-53022400D01*
X181983376Y-53022400D01*
X182147788Y-53055103D01*
G37*
G36*
X166907788Y-53055103D02*
G01*
X167062660Y-53119253D01*
X167202041Y-53212385D01*
X167320575Y-53330919D01*
X167413707Y-53470300D01*
X167477857Y-53625172D01*
X167510560Y-53789584D01*
X167510560Y-53957216D01*
X167477857Y-54121628D01*
X167413707Y-54276500D01*
X167320575Y-54415881D01*
X167202041Y-54534415D01*
X167062660Y-54627547D01*
X166907788Y-54691697D01*
X166743376Y-54724400D01*
X166575744Y-54724400D01*
X166411332Y-54691697D01*
X166256460Y-54627547D01*
X166117079Y-54534415D01*
X165998545Y-54415881D01*
X165905413Y-54276500D01*
X165841263Y-54121628D01*
X165808560Y-53957216D01*
X165808560Y-53789584D01*
X165841263Y-53625172D01*
X165905413Y-53470300D01*
X165998545Y-53330919D01*
X166117079Y-53212385D01*
X166256460Y-53119253D01*
X166411332Y-53055103D01*
X166575744Y-53022400D01*
X166743376Y-53022400D01*
X166907788Y-53055103D01*
G37*
G36*
X184925401Y-53328334D02*
G01*
X185025675Y-53369869D01*
X185025676Y-53369870D01*
X185115922Y-53430170D01*
X185192670Y-53506918D01*
X185192671Y-53506920D01*
X185252971Y-53597165D01*
X185294506Y-53697439D01*
X185315680Y-53803890D01*
X185315680Y-53912430D01*
X185294506Y-54018881D01*
X185252971Y-54119155D01*
X185251318Y-54121629D01*
X185192670Y-54209402D01*
X185115922Y-54286150D01*
X185070492Y-54316505D01*
X185025675Y-54346451D01*
X184925401Y-54387986D01*
X184818950Y-54409160D01*
X184710410Y-54409160D01*
X184603959Y-54387986D01*
X184503685Y-54346451D01*
X184458868Y-54316505D01*
X184413438Y-54286150D01*
X184336690Y-54209402D01*
X184278042Y-54121629D01*
X184276389Y-54119155D01*
X184234854Y-54018881D01*
X184213680Y-53912430D01*
X184213680Y-53803890D01*
X184234854Y-53697439D01*
X184276389Y-53597165D01*
X184336689Y-53506920D01*
X184336690Y-53506918D01*
X184413438Y-53430170D01*
X184503684Y-53369870D01*
X184503685Y-53369869D01*
X184603959Y-53328334D01*
X184710410Y-53307160D01*
X184818950Y-53307160D01*
X184925401Y-53328334D01*
G37*
G36*
X111893680Y-53580360D02*
G01*
X108791680Y-53580360D01*
X108791680Y-50478360D01*
X111893680Y-50478360D01*
X111893680Y-53580360D01*
G37*
G36*
X182147788Y-50515103D02*
G01*
X182302660Y-50579253D01*
X182442041Y-50672385D01*
X182560575Y-50790919D01*
X182653707Y-50930300D01*
X182717857Y-51085172D01*
X182750560Y-51249584D01*
X182750560Y-51417216D01*
X182717857Y-51581628D01*
X182653707Y-51736500D01*
X182560575Y-51875881D01*
X182442041Y-51994415D01*
X182302660Y-52087547D01*
X182147788Y-52151697D01*
X181983376Y-52184400D01*
X181815744Y-52184400D01*
X181651332Y-52151697D01*
X181496460Y-52087547D01*
X181357079Y-51994415D01*
X181238545Y-51875881D01*
X181145413Y-51736500D01*
X181081263Y-51581628D01*
X181048560Y-51417216D01*
X181048560Y-51249584D01*
X181081263Y-51085172D01*
X181145413Y-50930300D01*
X181238545Y-50790919D01*
X181357079Y-50672385D01*
X181496460Y-50579253D01*
X181651332Y-50515103D01*
X181815744Y-50482400D01*
X181983376Y-50482400D01*
X182147788Y-50515103D01*
G37*
G36*
X166907788Y-50515103D02*
G01*
X167062660Y-50579253D01*
X167202041Y-50672385D01*
X167320575Y-50790919D01*
X167413707Y-50930300D01*
X167477857Y-51085172D01*
X167510560Y-51249584D01*
X167510560Y-51417216D01*
X167477857Y-51581628D01*
X167413707Y-51736500D01*
X167320575Y-51875881D01*
X167202041Y-51994415D01*
X167062660Y-52087547D01*
X166907788Y-52151697D01*
X166743376Y-52184400D01*
X166575744Y-52184400D01*
X166411332Y-52151697D01*
X166256460Y-52087547D01*
X166117079Y-51994415D01*
X165998545Y-51875881D01*
X165905413Y-51736500D01*
X165841263Y-51581628D01*
X165808560Y-51417216D01*
X165808560Y-51249584D01*
X165841263Y-51085172D01*
X165905413Y-50930300D01*
X165998545Y-50790919D01*
X166117079Y-50672385D01*
X166256460Y-50579253D01*
X166411332Y-50515103D01*
X166575744Y-50482400D01*
X166743376Y-50482400D01*
X166907788Y-50515103D01*
G37*
G36*
X184925401Y-50834054D02*
G01*
X185025675Y-50875589D01*
X185025676Y-50875590D01*
X185115922Y-50935890D01*
X185192670Y-51012638D01*
X185192671Y-51012640D01*
X185252971Y-51102885D01*
X185294506Y-51203159D01*
X185315680Y-51309610D01*
X185315680Y-51418150D01*
X185294506Y-51524601D01*
X185252971Y-51624875D01*
X185252970Y-51624876D01*
X185192670Y-51715122D01*
X185115922Y-51791870D01*
X185070492Y-51822225D01*
X185025675Y-51852171D01*
X184925401Y-51893706D01*
X184818950Y-51914880D01*
X184710410Y-51914880D01*
X184603959Y-51893706D01*
X184503685Y-51852171D01*
X184458868Y-51822225D01*
X184413438Y-51791870D01*
X184336690Y-51715122D01*
X184276390Y-51624876D01*
X184276389Y-51624875D01*
X184234854Y-51524601D01*
X184213680Y-51418150D01*
X184213680Y-51309610D01*
X184234854Y-51203159D01*
X184276389Y-51102885D01*
X184336689Y-51012640D01*
X184336690Y-51012638D01*
X184413438Y-50935890D01*
X184503684Y-50875590D01*
X184503685Y-50875589D01*
X184603959Y-50834054D01*
X184710410Y-50812880D01*
X184818950Y-50812880D01*
X184925401Y-50834054D01*
G37*
G36*
X182147788Y-47975103D02*
G01*
X182302660Y-48039253D01*
X182442041Y-48132385D01*
X182560575Y-48250919D01*
X182653707Y-48390300D01*
X182717857Y-48545172D01*
X182750560Y-48709584D01*
X182750560Y-48877216D01*
X182717857Y-49041628D01*
X182653707Y-49196500D01*
X182560575Y-49335881D01*
X182442041Y-49454415D01*
X182302660Y-49547547D01*
X182147788Y-49611697D01*
X181983376Y-49644400D01*
X181815744Y-49644400D01*
X181651332Y-49611697D01*
X181496460Y-49547547D01*
X181357079Y-49454415D01*
X181238545Y-49335881D01*
X181145413Y-49196500D01*
X181081263Y-49041628D01*
X181048560Y-48877216D01*
X181048560Y-48709584D01*
X181081263Y-48545172D01*
X181145413Y-48390300D01*
X181238545Y-48250919D01*
X181357079Y-48132385D01*
X181496460Y-48039253D01*
X181651332Y-47975103D01*
X181815744Y-47942400D01*
X181983376Y-47942400D01*
X182147788Y-47975103D01*
G37*
G36*
X166907788Y-47975103D02*
G01*
X167062660Y-48039253D01*
X167202041Y-48132385D01*
X167320575Y-48250919D01*
X167413707Y-48390300D01*
X167477857Y-48545172D01*
X167510560Y-48709584D01*
X167510560Y-48877216D01*
X167477857Y-49041628D01*
X167413707Y-49196500D01*
X167320575Y-49335881D01*
X167202041Y-49454415D01*
X167062660Y-49547547D01*
X166907788Y-49611697D01*
X166743376Y-49644400D01*
X166575744Y-49644400D01*
X166411332Y-49611697D01*
X166256460Y-49547547D01*
X166117079Y-49454415D01*
X165998545Y-49335881D01*
X165905413Y-49196500D01*
X165841263Y-49041628D01*
X165808560Y-48877216D01*
X165808560Y-48709584D01*
X165841263Y-48545172D01*
X165905413Y-48390300D01*
X165998545Y-48250919D01*
X166117079Y-48132385D01*
X166256460Y-48039253D01*
X166411332Y-47975103D01*
X166575744Y-47942400D01*
X166743376Y-47942400D01*
X166907788Y-47975103D01*
G37*
G36*
X184986361Y-48238174D02*
G01*
X185086635Y-48279709D01*
X185086636Y-48279710D01*
X185176882Y-48340010D01*
X185253630Y-48416758D01*
X185253631Y-48416760D01*
X185313931Y-48507005D01*
X185355466Y-48607279D01*
X185376640Y-48713730D01*
X185376640Y-48822270D01*
X185355466Y-48928721D01*
X185313931Y-49028995D01*
X185313930Y-49028996D01*
X185253630Y-49119242D01*
X185176882Y-49195990D01*
X185155353Y-49210375D01*
X185086635Y-49256291D01*
X184986361Y-49297826D01*
X184879910Y-49319000D01*
X184771370Y-49319000D01*
X184664919Y-49297826D01*
X184564645Y-49256291D01*
X184495927Y-49210375D01*
X184474398Y-49195990D01*
X184397650Y-49119242D01*
X184337350Y-49028996D01*
X184337349Y-49028995D01*
X184295814Y-48928721D01*
X184274640Y-48822270D01*
X184274640Y-48713730D01*
X184295814Y-48607279D01*
X184337349Y-48507005D01*
X184397649Y-48416760D01*
X184397650Y-48416758D01*
X184474398Y-48340010D01*
X184564644Y-48279710D01*
X184564645Y-48279709D01*
X184664919Y-48238174D01*
X184771370Y-48217000D01*
X184879910Y-48217000D01*
X184986361Y-48238174D01*
G37*
G36*
X120888068Y-47573783D02*
G01*
X121042940Y-47637933D01*
X121182321Y-47731065D01*
X121300855Y-47849599D01*
X121393987Y-47988980D01*
X121458137Y-48143852D01*
X121490840Y-48308264D01*
X121490840Y-48475896D01*
X121458137Y-48640308D01*
X121393987Y-48795180D01*
X121300855Y-48934561D01*
X121182321Y-49053095D01*
X121042940Y-49146227D01*
X120888068Y-49210377D01*
X120723656Y-49243080D01*
X120556024Y-49243080D01*
X120391612Y-49210377D01*
X120236740Y-49146227D01*
X120097359Y-49053095D01*
X119978825Y-48934561D01*
X119885693Y-48795180D01*
X119821543Y-48640308D01*
X119788840Y-48475896D01*
X119788840Y-48308264D01*
X119821543Y-48143852D01*
X119885693Y-47988980D01*
X119978825Y-47849599D01*
X120097359Y-47731065D01*
X120236740Y-47637933D01*
X120391612Y-47573783D01*
X120556024Y-47541080D01*
X120723656Y-47541080D01*
X120888068Y-47573783D01*
G37*
G36*
X162290068Y-47573783D02*
G01*
X162444940Y-47637933D01*
X162584321Y-47731065D01*
X162702855Y-47849599D01*
X162795987Y-47988980D01*
X162860137Y-48143852D01*
X162892840Y-48308264D01*
X162892840Y-48475896D01*
X162860137Y-48640308D01*
X162795987Y-48795180D01*
X162702855Y-48934561D01*
X162584321Y-49053095D01*
X162444940Y-49146227D01*
X162290068Y-49210377D01*
X162125656Y-49243080D01*
X161958024Y-49243080D01*
X161793612Y-49210377D01*
X161638740Y-49146227D01*
X161499359Y-49053095D01*
X161380825Y-48934561D01*
X161287693Y-48795180D01*
X161223543Y-48640308D01*
X161190840Y-48475896D01*
X161190840Y-48308264D01*
X161223543Y-48143852D01*
X161287693Y-47988980D01*
X161380825Y-47849599D01*
X161499359Y-47731065D01*
X161638740Y-47637933D01*
X161793612Y-47573783D01*
X161958024Y-47541080D01*
X162125656Y-47541080D01*
X162290068Y-47573783D01*
G37*
G36*
X145566840Y-48252580D02*
G01*
X143464840Y-48252580D01*
X143464840Y-46245580D01*
X145566840Y-46245580D01*
X145566840Y-48252580D01*
G37*
G36*
X137803776Y-46250420D02*
G01*
X137902060Y-46260100D01*
X138091221Y-46317481D01*
X138265552Y-46410663D01*
X138418355Y-46536065D01*
X138543757Y-46688868D01*
X138636939Y-46863199D01*
X138694320Y-47052360D01*
X138713695Y-47249080D01*
X138694320Y-47445800D01*
X138636939Y-47634961D01*
X138543757Y-47809292D01*
X138418355Y-47962095D01*
X138265552Y-48087497D01*
X138091221Y-48180679D01*
X137902060Y-48238060D01*
X137803776Y-48247740D01*
X137754635Y-48252580D01*
X137561045Y-48252580D01*
X137511904Y-48247740D01*
X137413620Y-48238060D01*
X137224459Y-48180679D01*
X137050128Y-48087497D01*
X136897325Y-47962095D01*
X136771923Y-47809292D01*
X136678741Y-47634961D01*
X136621360Y-47445800D01*
X136601985Y-47249080D01*
X136621360Y-47052360D01*
X136678741Y-46863199D01*
X136771923Y-46688868D01*
X136897325Y-46536065D01*
X137050128Y-46410663D01*
X137224459Y-46317481D01*
X137413620Y-46260100D01*
X137511904Y-46250420D01*
X137561045Y-46245580D01*
X137754635Y-46245580D01*
X137803776Y-46250420D01*
G37*
G36*
X124952068Y-46223783D02*
G01*
X125106940Y-46287933D01*
X125246321Y-46381065D01*
X125364855Y-46499599D01*
X125457987Y-46638980D01*
X125522137Y-46793852D01*
X125554840Y-46958264D01*
X125554840Y-47125896D01*
X125522137Y-47290308D01*
X125457987Y-47445180D01*
X125364855Y-47584561D01*
X125246321Y-47703095D01*
X125106940Y-47796227D01*
X124952068Y-47860377D01*
X124787656Y-47893080D01*
X124620024Y-47893080D01*
X124455612Y-47860377D01*
X124300740Y-47796227D01*
X124161359Y-47703095D01*
X124042825Y-47584561D01*
X123949693Y-47445180D01*
X123885543Y-47290308D01*
X123852840Y-47125896D01*
X123852840Y-46958264D01*
X123885543Y-46793852D01*
X123949693Y-46638980D01*
X124042825Y-46499599D01*
X124161359Y-46381065D01*
X124300740Y-46287933D01*
X124455612Y-46223783D01*
X124620024Y-46191080D01*
X124787656Y-46191080D01*
X124952068Y-46223783D01*
G37*
G36*
X158358148Y-46051063D02*
G01*
X158513020Y-46115213D01*
X158652401Y-46208345D01*
X158770935Y-46326879D01*
X158864067Y-46466260D01*
X158928217Y-46621132D01*
X158960920Y-46785544D01*
X158960920Y-46953176D01*
X158928217Y-47117588D01*
X158864067Y-47272460D01*
X158770935Y-47411841D01*
X158652401Y-47530375D01*
X158513020Y-47623507D01*
X158358148Y-47687657D01*
X158193736Y-47720360D01*
X158026104Y-47720360D01*
X157861692Y-47687657D01*
X157706820Y-47623507D01*
X157567439Y-47530375D01*
X157448905Y-47411841D01*
X157355773Y-47272460D01*
X157291623Y-47117588D01*
X157258920Y-46953176D01*
X157258920Y-46785544D01*
X157291623Y-46621132D01*
X157355773Y-46466260D01*
X157448905Y-46326879D01*
X157567439Y-46208345D01*
X157706820Y-46115213D01*
X157861692Y-46051063D01*
X158026104Y-46018360D01*
X158193736Y-46018360D01*
X158358148Y-46051063D01*
G37*
G36*
X166907788Y-45435103D02*
G01*
X167062660Y-45499253D01*
X167202041Y-45592385D01*
X167320575Y-45710919D01*
X167413707Y-45850300D01*
X167477857Y-46005172D01*
X167510560Y-46169584D01*
X167510560Y-46337216D01*
X167477857Y-46501628D01*
X167413707Y-46656500D01*
X167320575Y-46795881D01*
X167202041Y-46914415D01*
X167062660Y-47007547D01*
X166907788Y-47071697D01*
X166743376Y-47104400D01*
X166575744Y-47104400D01*
X166411332Y-47071697D01*
X166256460Y-47007547D01*
X166117079Y-46914415D01*
X165998545Y-46795881D01*
X165905413Y-46656500D01*
X165841263Y-46501628D01*
X165808560Y-46337216D01*
X165808560Y-46169584D01*
X165841263Y-46005172D01*
X165905413Y-45850300D01*
X165998545Y-45710919D01*
X166117079Y-45592385D01*
X166256460Y-45499253D01*
X166411332Y-45435103D01*
X166575744Y-45402400D01*
X166743376Y-45402400D01*
X166907788Y-45435103D01*
G37*
G36*
X182147788Y-45435103D02*
G01*
X182302660Y-45499253D01*
X182442041Y-45592385D01*
X182560575Y-45710919D01*
X182653707Y-45850300D01*
X182717857Y-46005172D01*
X182750560Y-46169584D01*
X182750560Y-46337216D01*
X182717857Y-46501628D01*
X182653707Y-46656500D01*
X182560575Y-46795881D01*
X182442041Y-46914415D01*
X182302660Y-47007547D01*
X182147788Y-47071697D01*
X181983376Y-47104400D01*
X181815744Y-47104400D01*
X181651332Y-47071697D01*
X181496460Y-47007547D01*
X181357079Y-46914415D01*
X181238545Y-46795881D01*
X181145413Y-46656500D01*
X181081263Y-46501628D01*
X181048560Y-46337216D01*
X181048560Y-46169584D01*
X181081263Y-46005172D01*
X181145413Y-45850300D01*
X181238545Y-45710919D01*
X181357079Y-45592385D01*
X181496460Y-45499253D01*
X181651332Y-45435103D01*
X181815744Y-45402400D01*
X181983376Y-45402400D01*
X182147788Y-45435103D01*
G37*
G36*
X134439756Y-42744414D02*
G01*
X134548332Y-42777351D01*
X134548335Y-42777352D01*
X134583647Y-42796227D01*
X134648397Y-42830836D01*
X134736104Y-42902816D01*
X134808084Y-42990523D01*
X134841149Y-43052385D01*
X134861568Y-43090585D01*
X134861569Y-43090588D01*
X134894506Y-43199164D01*
X134905627Y-43312080D01*
X134894506Y-43424996D01*
X134861569Y-43533572D01*
X134861568Y-43533575D01*
X134842269Y-43569681D01*
X134808084Y-43633637D01*
X134736104Y-43721344D01*
X134648397Y-43793324D01*
X134566981Y-43836841D01*
X134546606Y-43850455D01*
X134529279Y-43867782D01*
X134515666Y-43888156D01*
X134506288Y-43910795D01*
X134501508Y-43934828D01*
X134501508Y-43959332D01*
X134506288Y-43983365D01*
X134515666Y-44006004D01*
X134529280Y-44026379D01*
X134546607Y-44043706D01*
X134566981Y-44057319D01*
X134648397Y-44100836D01*
X134736104Y-44172816D01*
X134808084Y-44260523D01*
X134841583Y-44323197D01*
X134861568Y-44360585D01*
X134861569Y-44360588D01*
X134894506Y-44469164D01*
X134905627Y-44582080D01*
X134894506Y-44694996D01*
X134861569Y-44803572D01*
X134861568Y-44803575D01*
X134842269Y-44839681D01*
X134808084Y-44903637D01*
X134736104Y-44991344D01*
X134659194Y-45054463D01*
X134641875Y-45071782D01*
X134628261Y-45092157D01*
X134618883Y-45114796D01*
X134614103Y-45138829D01*
X134614103Y-45163333D01*
X134618883Y-45187366D01*
X134628261Y-45210005D01*
X134641874Y-45230379D01*
X134659201Y-45247706D01*
X134679576Y-45261320D01*
X134702215Y-45270698D01*
X134726248Y-45275478D01*
X134738500Y-45276080D01*
X134902840Y-45276080D01*
X134902840Y-46428080D01*
X133300840Y-46428080D01*
X133300840Y-45276080D01*
X133465180Y-45276080D01*
X133489566Y-45273678D01*
X133513015Y-45266565D01*
X133534626Y-45255014D01*
X133553568Y-45239469D01*
X133569113Y-45220527D01*
X133580664Y-45198916D01*
X133587777Y-45175467D01*
X133590179Y-45151081D01*
X133587777Y-45126695D01*
X133580664Y-45103246D01*
X133569113Y-45081635D01*
X133553568Y-45062693D01*
X133544495Y-45054471D01*
X133467576Y-44991344D01*
X133395596Y-44903637D01*
X133361411Y-44839681D01*
X133342112Y-44803575D01*
X133342111Y-44803572D01*
X133309174Y-44694996D01*
X133298053Y-44582080D01*
X133309174Y-44469164D01*
X133342111Y-44360588D01*
X133342112Y-44360585D01*
X133362097Y-44323197D01*
X133395596Y-44260523D01*
X133467576Y-44172816D01*
X133555283Y-44100836D01*
X133636699Y-44057319D01*
X133657074Y-44043705D01*
X133674401Y-44026378D01*
X133688014Y-44006004D01*
X133697392Y-43983365D01*
X133702172Y-43959332D01*
X133702172Y-43934828D01*
X133697392Y-43910795D01*
X133688014Y-43888156D01*
X133674400Y-43867781D01*
X133657073Y-43850454D01*
X133636699Y-43836841D01*
X133555283Y-43793324D01*
X133467576Y-43721344D01*
X133395596Y-43633637D01*
X133361411Y-43569681D01*
X133342112Y-43533575D01*
X133342111Y-43533572D01*
X133309174Y-43424996D01*
X133298053Y-43312080D01*
X133309174Y-43199164D01*
X133342111Y-43090588D01*
X133342112Y-43090585D01*
X133362531Y-43052385D01*
X133395596Y-42990523D01*
X133467576Y-42902816D01*
X133555283Y-42830836D01*
X133620033Y-42796227D01*
X133655345Y-42777352D01*
X133655348Y-42777351D01*
X133763924Y-42744414D01*
X133848542Y-42736080D01*
X134355138Y-42736080D01*
X134439756Y-42744414D01*
G37*
G36*
X148872840Y-43888080D02*
G01*
X148708500Y-43888080D01*
X148684114Y-43890482D01*
X148660665Y-43897595D01*
X148639054Y-43909146D01*
X148620112Y-43924691D01*
X148604567Y-43943633D01*
X148593016Y-43965244D01*
X148585903Y-43988693D01*
X148583501Y-44013079D01*
X148585903Y-44037465D01*
X148593016Y-44060914D01*
X148604567Y-44082525D01*
X148620112Y-44101467D01*
X148629185Y-44109689D01*
X148706104Y-44172816D01*
X148778084Y-44260523D01*
X148811583Y-44323197D01*
X148831568Y-44360585D01*
X148831569Y-44360588D01*
X148864506Y-44469164D01*
X148875627Y-44582080D01*
X148864506Y-44694996D01*
X148831569Y-44803572D01*
X148831568Y-44803575D01*
X148812269Y-44839681D01*
X148778084Y-44903637D01*
X148706104Y-44991344D01*
X148618397Y-45063324D01*
X148543707Y-45103246D01*
X148536981Y-45106841D01*
X148516606Y-45120455D01*
X148499279Y-45137782D01*
X148485666Y-45158156D01*
X148476288Y-45180795D01*
X148471508Y-45204828D01*
X148471508Y-45229332D01*
X148476288Y-45253365D01*
X148485666Y-45276004D01*
X148499280Y-45296379D01*
X148516607Y-45313706D01*
X148536981Y-45327319D01*
X148618397Y-45370836D01*
X148706104Y-45442816D01*
X148778084Y-45530523D01*
X148811149Y-45592385D01*
X148831568Y-45630585D01*
X148831569Y-45630588D01*
X148864506Y-45739164D01*
X148875627Y-45852080D01*
X148864506Y-45964996D01*
X148831569Y-46073572D01*
X148831568Y-46073575D01*
X148812269Y-46109681D01*
X148778084Y-46173637D01*
X148706104Y-46261344D01*
X148618397Y-46333324D01*
X148554441Y-46367509D01*
X148518335Y-46386808D01*
X148518332Y-46386809D01*
X148409756Y-46419746D01*
X148325138Y-46428080D01*
X147818542Y-46428080D01*
X147733924Y-46419746D01*
X147625348Y-46386809D01*
X147625345Y-46386808D01*
X147589239Y-46367509D01*
X147525283Y-46333324D01*
X147437576Y-46261344D01*
X147365596Y-46173637D01*
X147331411Y-46109681D01*
X147312112Y-46073575D01*
X147312111Y-46073572D01*
X147279174Y-45964996D01*
X147268053Y-45852080D01*
X147279174Y-45739164D01*
X147312111Y-45630588D01*
X147312112Y-45630585D01*
X147332531Y-45592385D01*
X147365596Y-45530523D01*
X147437576Y-45442816D01*
X147525283Y-45370836D01*
X147606699Y-45327319D01*
X147627074Y-45313705D01*
X147644401Y-45296378D01*
X147658014Y-45276004D01*
X147667392Y-45253365D01*
X147672172Y-45229332D01*
X147672172Y-45204828D01*
X147667392Y-45180795D01*
X147658014Y-45158156D01*
X147644400Y-45137781D01*
X147627073Y-45120454D01*
X147606699Y-45106841D01*
X147599973Y-45103246D01*
X147525283Y-45063324D01*
X147437576Y-44991344D01*
X147365596Y-44903637D01*
X147331411Y-44839681D01*
X147312112Y-44803575D01*
X147312111Y-44803572D01*
X147279174Y-44694996D01*
X147268053Y-44582080D01*
X147279174Y-44469164D01*
X147312111Y-44360588D01*
X147312112Y-44360585D01*
X147332097Y-44323197D01*
X147365596Y-44260523D01*
X147437576Y-44172816D01*
X147514486Y-44109697D01*
X147531805Y-44092378D01*
X147545419Y-44072003D01*
X147554797Y-44049364D01*
X147559577Y-44025331D01*
X147559577Y-44000827D01*
X147554797Y-43976794D01*
X147545419Y-43954155D01*
X147531806Y-43933781D01*
X147514479Y-43916454D01*
X147494104Y-43902840D01*
X147471465Y-43893462D01*
X147447432Y-43888682D01*
X147435180Y-43888080D01*
X147270840Y-43888080D01*
X147270840Y-42736080D01*
X148872840Y-42736080D01*
X148872840Y-43888080D01*
G37*
G36*
X137803776Y-43710420D02*
G01*
X137902060Y-43720100D01*
X138091221Y-43777481D01*
X138265552Y-43870663D01*
X138418355Y-43996065D01*
X138543757Y-44148868D01*
X138636939Y-44323199D01*
X138694320Y-44512360D01*
X138713695Y-44709080D01*
X138694320Y-44905800D01*
X138636939Y-45094961D01*
X138543757Y-45269292D01*
X138418355Y-45422095D01*
X138265552Y-45547497D01*
X138091221Y-45640679D01*
X137902060Y-45698060D01*
X137803776Y-45707740D01*
X137754635Y-45712580D01*
X137561045Y-45712580D01*
X137511904Y-45707740D01*
X137413620Y-45698060D01*
X137224459Y-45640679D01*
X137050128Y-45547497D01*
X136897325Y-45422095D01*
X136771923Y-45269292D01*
X136678741Y-45094961D01*
X136621360Y-44905800D01*
X136601985Y-44709080D01*
X136621360Y-44512360D01*
X136678741Y-44323199D01*
X136771923Y-44148868D01*
X136897325Y-43996065D01*
X137050128Y-43870663D01*
X137224459Y-43777481D01*
X137413620Y-43720100D01*
X137511904Y-43710420D01*
X137561045Y-43705580D01*
X137754635Y-43705580D01*
X137803776Y-43710420D01*
G37*
G36*
X144661776Y-43710420D02*
G01*
X144760060Y-43720100D01*
X144949221Y-43777481D01*
X145123552Y-43870663D01*
X145276355Y-43996065D01*
X145401757Y-44148868D01*
X145494939Y-44323199D01*
X145552320Y-44512360D01*
X145571695Y-44709080D01*
X145552320Y-44905800D01*
X145494939Y-45094961D01*
X145401757Y-45269292D01*
X145276355Y-45422095D01*
X145123552Y-45547497D01*
X144949221Y-45640679D01*
X144760060Y-45698060D01*
X144661776Y-45707740D01*
X144612635Y-45712580D01*
X144419045Y-45712580D01*
X144369904Y-45707740D01*
X144271620Y-45698060D01*
X144082459Y-45640679D01*
X143908128Y-45547497D01*
X143755325Y-45422095D01*
X143629923Y-45269292D01*
X143536741Y-45094961D01*
X143479360Y-44905800D01*
X143459985Y-44709080D01*
X143479360Y-44512360D01*
X143536741Y-44323199D01*
X143629923Y-44148868D01*
X143755325Y-43996065D01*
X143908128Y-43870663D01*
X144082459Y-43777481D01*
X144271620Y-43720100D01*
X144369904Y-43710420D01*
X144419045Y-43705580D01*
X144612635Y-43705580D01*
X144661776Y-43710420D01*
G37*
G36*
X182147788Y-42895103D02*
G01*
X182302660Y-42959253D01*
X182442041Y-43052385D01*
X182560575Y-43170919D01*
X182653707Y-43310300D01*
X182717857Y-43465172D01*
X182750560Y-43629584D01*
X182750560Y-43797216D01*
X182717857Y-43961628D01*
X182653707Y-44116500D01*
X182560575Y-44255881D01*
X182442041Y-44374415D01*
X182302660Y-44467547D01*
X182147788Y-44531697D01*
X181983376Y-44564400D01*
X181815744Y-44564400D01*
X181651332Y-44531697D01*
X181496460Y-44467547D01*
X181357079Y-44374415D01*
X181238545Y-44255881D01*
X181145413Y-44116500D01*
X181081263Y-43961628D01*
X181048560Y-43797216D01*
X181048560Y-43629584D01*
X181081263Y-43465172D01*
X181145413Y-43310300D01*
X181238545Y-43170919D01*
X181357079Y-43052385D01*
X181496460Y-42959253D01*
X181651332Y-42895103D01*
X181815744Y-42862400D01*
X181983376Y-42862400D01*
X182147788Y-42895103D01*
G37*
G36*
X166907788Y-42895103D02*
G01*
X167062660Y-42959253D01*
X167202041Y-43052385D01*
X167320575Y-43170919D01*
X167413707Y-43310300D01*
X167477857Y-43465172D01*
X167510560Y-43629584D01*
X167510560Y-43797216D01*
X167477857Y-43961628D01*
X167413707Y-44116500D01*
X167320575Y-44255881D01*
X167202041Y-44374415D01*
X167062660Y-44467547D01*
X166907788Y-44531697D01*
X166743376Y-44564400D01*
X166575744Y-44564400D01*
X166411332Y-44531697D01*
X166256460Y-44467547D01*
X166117079Y-44374415D01*
X165998545Y-44255881D01*
X165905413Y-44116500D01*
X165841263Y-43961628D01*
X165808560Y-43797216D01*
X165808560Y-43629584D01*
X165841263Y-43465172D01*
X165905413Y-43310300D01*
X165998545Y-43170919D01*
X166117079Y-43052385D01*
X166256460Y-42959253D01*
X166411332Y-42895103D01*
X166575744Y-42862400D01*
X166743376Y-42862400D01*
X166907788Y-42895103D01*
G37*
G36*
X138708840Y-43172580D02*
G01*
X136606840Y-43172580D01*
X136606840Y-41165580D01*
X138708840Y-41165580D01*
X138708840Y-43172580D01*
G37*
G36*
X144661776Y-41170420D02*
G01*
X144760060Y-41180100D01*
X144949221Y-41237481D01*
X145123552Y-41330663D01*
X145276355Y-41456065D01*
X145401757Y-41608868D01*
X145494939Y-41783199D01*
X145552320Y-41972360D01*
X145571695Y-42169080D01*
X145552320Y-42365800D01*
X145494939Y-42554961D01*
X145401757Y-42729292D01*
X145276355Y-42882095D01*
X145123552Y-43007497D01*
X144949221Y-43100679D01*
X144760060Y-43158060D01*
X144661776Y-43167740D01*
X144612635Y-43172580D01*
X144419045Y-43172580D01*
X144369904Y-43167740D01*
X144271620Y-43158060D01*
X144082459Y-43100679D01*
X143908128Y-43007497D01*
X143755325Y-42882095D01*
X143629923Y-42729292D01*
X143536741Y-42554961D01*
X143479360Y-42365800D01*
X143459985Y-42169080D01*
X143479360Y-41972360D01*
X143536741Y-41783199D01*
X143629923Y-41608868D01*
X143755325Y-41456065D01*
X143908128Y-41330663D01*
X144082459Y-41237481D01*
X144271620Y-41180100D01*
X144369904Y-41170420D01*
X144419045Y-41165580D01*
X144612635Y-41165580D01*
X144661776Y-41170420D01*
G37*
G36*
X112909023Y-37025528D02*
G01*
X113464269Y-37255518D01*
X113464270Y-37255519D01*
X113963979Y-37589414D01*
X114388946Y-38014381D01*
X114388947Y-38014383D01*
X114722842Y-38514091D01*
X114952832Y-39069337D01*
X115070080Y-39658781D01*
X115070080Y-40259779D01*
X114952832Y-40849223D01*
X114722842Y-41404469D01*
X114681554Y-41466260D01*
X114388946Y-41904179D01*
X113963979Y-42329146D01*
X113840217Y-42411841D01*
X113464269Y-42663042D01*
X112909023Y-42893032D01*
X112319579Y-43010280D01*
X111718581Y-43010280D01*
X111129137Y-42893032D01*
X110573891Y-42663042D01*
X110197943Y-42411841D01*
X110074181Y-42329146D01*
X109649214Y-41904179D01*
X109356606Y-41466260D01*
X109315318Y-41404469D01*
X109085328Y-40849223D01*
X108968080Y-40259779D01*
X108968080Y-39658781D01*
X109085328Y-39069337D01*
X109315318Y-38514091D01*
X109649213Y-38014383D01*
X109649214Y-38014381D01*
X110074181Y-37589414D01*
X110573890Y-37255519D01*
X110573891Y-37255518D01*
X111129137Y-37025528D01*
X111718581Y-36908280D01*
X112319579Y-36908280D01*
X112909023Y-37025528D01*
G37*
G36*
X195484423Y-36984888D02*
G01*
X196039669Y-37214878D01*
X196039670Y-37214879D01*
X196539379Y-37548774D01*
X196964346Y-37973741D01*
X196964347Y-37973743D01*
X197298242Y-38473451D01*
X197528232Y-39028697D01*
X197645480Y-39618141D01*
X197645480Y-40219139D01*
X197528232Y-40808583D01*
X197298242Y-41363829D01*
X197189731Y-41526227D01*
X196964346Y-41863539D01*
X196539379Y-42288506D01*
X196478557Y-42329146D01*
X196039669Y-42622402D01*
X195484423Y-42852392D01*
X194894979Y-42969640D01*
X194293981Y-42969640D01*
X193704537Y-42852392D01*
X193149291Y-42622402D01*
X192710403Y-42329146D01*
X192649581Y-42288506D01*
X192224614Y-41863539D01*
X191999229Y-41526227D01*
X191890718Y-41363829D01*
X191660728Y-40808583D01*
X191543480Y-40219139D01*
X191543480Y-39618141D01*
X191660728Y-39028697D01*
X191890718Y-38473451D01*
X192224613Y-37973743D01*
X192224614Y-37973741D01*
X192649581Y-37548774D01*
X193149290Y-37214879D01*
X193149291Y-37214878D01*
X193704537Y-36984888D01*
X194293981Y-36867640D01*
X194894979Y-36867640D01*
X195484423Y-36984888D01*
G37*
G36*
X124952068Y-41223783D02*
G01*
X125106940Y-41287933D01*
X125246321Y-41381065D01*
X125364855Y-41499599D01*
X125457987Y-41638980D01*
X125522137Y-41793852D01*
X125554840Y-41958264D01*
X125554840Y-42125896D01*
X125522137Y-42290308D01*
X125457987Y-42445180D01*
X125364855Y-42584561D01*
X125246321Y-42703095D01*
X125106940Y-42796227D01*
X124952068Y-42860377D01*
X124787656Y-42893080D01*
X124620024Y-42893080D01*
X124455612Y-42860377D01*
X124300740Y-42796227D01*
X124161359Y-42703095D01*
X124042825Y-42584561D01*
X123949693Y-42445180D01*
X123885543Y-42290308D01*
X123852840Y-42125896D01*
X123852840Y-41958264D01*
X123885543Y-41793852D01*
X123949693Y-41638980D01*
X124042825Y-41499599D01*
X124161359Y-41381065D01*
X124300740Y-41287933D01*
X124455612Y-41223783D01*
X124620024Y-41191080D01*
X124787656Y-41191080D01*
X124952068Y-41223783D01*
G37*
G36*
X158358148Y-41051063D02*
G01*
X158513020Y-41115213D01*
X158652401Y-41208345D01*
X158770935Y-41326879D01*
X158864067Y-41466260D01*
X158928217Y-41621132D01*
X158960920Y-41785544D01*
X158960920Y-41953176D01*
X158928217Y-42117588D01*
X158864067Y-42272460D01*
X158770935Y-42411841D01*
X158652401Y-42530375D01*
X158513020Y-42623507D01*
X158358148Y-42687657D01*
X158193736Y-42720360D01*
X158026104Y-42720360D01*
X157861692Y-42687657D01*
X157706820Y-42623507D01*
X157567439Y-42530375D01*
X157448905Y-42411841D01*
X157355773Y-42272460D01*
X157291623Y-42117588D01*
X157258920Y-41953176D01*
X157258920Y-41785544D01*
X157291623Y-41621132D01*
X157355773Y-41466260D01*
X157448905Y-41326879D01*
X157567439Y-41208345D01*
X157706820Y-41115213D01*
X157861692Y-41051063D01*
X158026104Y-41018360D01*
X158193736Y-41018360D01*
X158358148Y-41051063D01*
G37*
G36*
X166907788Y-40355103D02*
G01*
X167062660Y-40419253D01*
X167202041Y-40512385D01*
X167320575Y-40630919D01*
X167413707Y-40770300D01*
X167477857Y-40925172D01*
X167510560Y-41089584D01*
X167510560Y-41257216D01*
X167477857Y-41421628D01*
X167413707Y-41576500D01*
X167320575Y-41715881D01*
X167202041Y-41834415D01*
X167062660Y-41927547D01*
X166907788Y-41991697D01*
X166743376Y-42024400D01*
X166575744Y-42024400D01*
X166411332Y-41991697D01*
X166256460Y-41927547D01*
X166117079Y-41834415D01*
X165998545Y-41715881D01*
X165905413Y-41576500D01*
X165841263Y-41421628D01*
X165808560Y-41257216D01*
X165808560Y-41089584D01*
X165841263Y-40925172D01*
X165905413Y-40770300D01*
X165998545Y-40630919D01*
X166117079Y-40512385D01*
X166256460Y-40419253D01*
X166411332Y-40355103D01*
X166575744Y-40322400D01*
X166743376Y-40322400D01*
X166907788Y-40355103D01*
G37*
G36*
X182147788Y-40355103D02*
G01*
X182302660Y-40419253D01*
X182442041Y-40512385D01*
X182560575Y-40630919D01*
X182653707Y-40770300D01*
X182717857Y-40925172D01*
X182750560Y-41089584D01*
X182750560Y-41257216D01*
X182717857Y-41421628D01*
X182653707Y-41576500D01*
X182560575Y-41715881D01*
X182442041Y-41834415D01*
X182302660Y-41927547D01*
X182147788Y-41991697D01*
X181983376Y-42024400D01*
X181815744Y-42024400D01*
X181651332Y-41991697D01*
X181496460Y-41927547D01*
X181357079Y-41834415D01*
X181238545Y-41715881D01*
X181145413Y-41576500D01*
X181081263Y-41421628D01*
X181048560Y-41257216D01*
X181048560Y-41089584D01*
X181081263Y-40925172D01*
X181145413Y-40770300D01*
X181238545Y-40630919D01*
X181357079Y-40512385D01*
X181496460Y-40419253D01*
X181651332Y-40355103D01*
X181815744Y-40322400D01*
X181983376Y-40322400D01*
X182147788Y-40355103D01*
G37*
G36*
X162290068Y-39953783D02*
G01*
X162444940Y-40017933D01*
X162584321Y-40111065D01*
X162702855Y-40229599D01*
X162795987Y-40368980D01*
X162860137Y-40523852D01*
X162892840Y-40688264D01*
X162892840Y-40855896D01*
X162860137Y-41020308D01*
X162795987Y-41175180D01*
X162702855Y-41314561D01*
X162584321Y-41433095D01*
X162444940Y-41526227D01*
X162290068Y-41590377D01*
X162125656Y-41623080D01*
X161958024Y-41623080D01*
X161793612Y-41590377D01*
X161638740Y-41526227D01*
X161499359Y-41433095D01*
X161380825Y-41314561D01*
X161287693Y-41175180D01*
X161223543Y-41020308D01*
X161190840Y-40855896D01*
X161190840Y-40688264D01*
X161223543Y-40523852D01*
X161287693Y-40368980D01*
X161380825Y-40229599D01*
X161499359Y-40111065D01*
X161638740Y-40017933D01*
X161793612Y-39953783D01*
X161958024Y-39921080D01*
X162125656Y-39921080D01*
X162290068Y-39953783D01*
G37*
G36*
X120888068Y-39953783D02*
G01*
X121042940Y-40017933D01*
X121182321Y-40111065D01*
X121300855Y-40229599D01*
X121393987Y-40368980D01*
X121458137Y-40523852D01*
X121490840Y-40688264D01*
X121490840Y-40855896D01*
X121458137Y-41020308D01*
X121393987Y-41175180D01*
X121300855Y-41314561D01*
X121182321Y-41433095D01*
X121042940Y-41526227D01*
X120888068Y-41590377D01*
X120723656Y-41623080D01*
X120556024Y-41623080D01*
X120391612Y-41590377D01*
X120236740Y-41526227D01*
X120097359Y-41433095D01*
X119978825Y-41314561D01*
X119885693Y-41175180D01*
X119821543Y-41020308D01*
X119788840Y-40855896D01*
X119788840Y-40688264D01*
X119821543Y-40523852D01*
X119885693Y-40368980D01*
X119978825Y-40229599D01*
X120097359Y-40111065D01*
X120236740Y-40017933D01*
X120391612Y-39953783D01*
X120556024Y-39921080D01*
X120723656Y-39921080D01*
X120888068Y-39953783D01*
G37*
M02*
