M48
; DRILL file {KiCad 8.0.8} date 2025-02-21T23:12:56-0300
; FORMAT={-:-/ absolute / inch / decimal}
; #@! TF.CreationDate,2025-02-21T23:12:56-03:00
; #@! TF.GenerationSoftware,Kicad,Pcbnew,8.0.8
; #@! TF.FileFunction,Plated,1,2,PTH
FMAT,2
INCH
; #@! TA.AperFunction,Plated,PTH,ComponentDrill
T1C0.0197
; #@! TA.AperFunction,Plated,PTH,ViaDrill
T2C0.0236
; #@! TA.AperFunction,Plated,PTH,ComponentDrill
T3C0.0295
; #@! TA.AperFunction,Plated,PTH,ComponentDrill
T4C0.0315
; #@! TA.AperFunction,Plated,PTH,ComponentDrill
T5C0.0354
; #@! TA.AperFunction,Plated,PTH,ComponentDrill
T6C0.0394
; #@! TA.AperFunction,Plated,PTH,ComponentDrill
T7C0.0433
; #@! TA.AperFunction,Plated,PTH,ComponentDrill
T8C0.0472
; #@! TA.AperFunction,Plated,PTH,ComponentDrill
T9C0.0598
%
G90
G05
T1
X6.442Y-2.9206
X6.443Y-2.7206
X7.2742Y-2.0222
X7.2742Y-2.1204
X7.2742Y-2.2198
X7.2742Y-2.3212
X7.2742Y-2.519
X7.2766Y-1.92
T2
X5.2108Y-1.561
X6.2248Y-2.0256
T3
X5.2795Y-1.7047
X5.2795Y-1.7547
X5.2795Y-1.8047
X5.8296Y-1.7052
X5.8296Y-1.7552
X5.8296Y-1.8052
X6.648Y-4.6306
X6.698Y-4.6306
X6.748Y-4.6306
X7.696Y-2.3946
X7.746Y-2.3946
X7.796Y-2.3946
T4
X4.3558Y-2.8382
X4.388Y-2.5926
X4.5258Y-2.5926
X4.5527Y-2.8382
X4.7496Y-1.6052
X4.7496Y-1.9052
X4.9096Y-1.6552
X4.9096Y-1.8521
X6.2248Y-1.6484
X6.2248Y-1.8453
X6.3796Y-1.6052
X6.3796Y-1.9052
X6.7916Y-3.571
X6.7916Y-3.7288
X6.7916Y-3.8867
X6.7916Y-4.0445
X6.7916Y-4.2024
X6.7916Y-4.3602
X7.0916Y-3.571
X7.0916Y-3.7288
X7.0916Y-3.8867
X7.0916Y-4.0445
X7.0916Y-4.2024
X7.0916Y-4.3602
X7.2742Y-3.6644
X7.2742Y-3.7644
X7.2742Y-3.9644
X7.2742Y-4.0644
X7.2742Y-4.2644
X7.2742Y-4.3644
X7.3392Y-2.841
X7.3392Y-3.141
X7.4617Y-2.841
X7.4617Y-3.141
X7.5074Y-2.3504
X7.5074Y-2.6504
X7.5742Y-3.6644
X7.5742Y-3.7644
X7.5742Y-3.9644
X7.5742Y-4.0644
X7.5742Y-4.2644
X7.5742Y-4.3644
X7.5842Y-2.841
X7.5842Y-3.141
X7.6278Y-2.6496
X7.7067Y-2.841
X7.7067Y-3.141
X7.8247Y-2.6496
X7.8292Y-2.841
X7.8292Y-3.141
T5
X7.337Y-3.3024
X7.337Y-3.4024
X7.525Y-3.301
X7.525Y-3.401
T6
X6.5614Y-1.621
X6.5614Y-1.721
X6.5614Y-1.821
X6.5614Y-1.921
X6.5614Y-2.021
X6.5614Y-2.121
X6.5614Y-2.221
X6.5614Y-2.321
X6.5614Y-2.421
X6.5614Y-2.521
X6.5614Y-2.621
X6.5614Y-2.721
X6.5614Y-2.821
X6.5614Y-2.921
X6.5614Y-3.021
X7.1614Y-1.621
X7.1614Y-1.721
X7.1614Y-1.821
X7.1614Y-1.921
X7.1614Y-2.021
X7.1614Y-2.121
X7.1614Y-2.221
X7.1614Y-2.321
X7.1614Y-2.421
X7.1614Y-2.521
X7.1614Y-2.621
X7.1614Y-2.721
X7.1614Y-2.821
X7.1614Y-2.921
X7.1614Y-3.021
T7
X4.717Y-2.4382
X4.717Y-2.8382
X5.4196Y-1.6602
X5.4196Y-1.7602
X5.4196Y-1.8602
X5.6896Y-1.6602
X5.6896Y-1.7602
X5.6896Y-1.8602
X6.928Y-4.5856
X7.328Y-4.5856
T8
X5.198Y-2.4982
X5.198Y-3.2982
X5.4647Y-2.4982
X5.4647Y-3.2982
X5.7313Y-2.4982
X5.7313Y-3.2982
X5.998Y-2.4982
X5.998Y-3.2982
T9
X4.3442Y-2.0484
X4.3442Y-2.2484
X7.018Y-4.8406
X7.218Y-4.8406
T6
G00X4.5082Y-3.0758
M15
G01X4.5082Y-3.1546
M16
G05
G00X4.5869Y-3.3002
M15
G01X4.6657Y-3.3002
M16
G05
G00X4.7444Y-3.0758
M15
G01X4.7444Y-3.1546
M16
G05
M30
