M48
INCH,TZ
T1C0.0197
T2C0.0236
T3C0.0295
T4C0.0315
T5C0.0354
T6C0.0394
T7C0.0433
T8C0.0472
T9C0.0598
%
G90
G05
T1
X64420Y-29206
X72742Y-23212
X72742Y-21204
X72742Y-20222
X72742Y-22198
X64430Y-27206
X72742Y-25190
X72766Y-19200
T2
X52108Y-15610
X62248Y-20256
T3
X76960Y-23946
X77460Y-23946
X77960Y-23946
X58296Y-17052
X58296Y-17552
X58296Y-18052
X66480Y-46306
X66980Y-46306
X67480Y-46306
X52796Y-17052
X52796Y-17552
X52796Y-18052
T4
X77067Y-28410
X77067Y-31410
X63796Y-16052
X63796Y-19052
X75074Y-23504
X75074Y-26504
X43880Y-25926
X45258Y-25926
X72742Y-42644
X72742Y-43644
X75742Y-42644
X75742Y-43644
X67916Y-43602
X70916Y-43602
X67916Y-40445
X70916Y-40445
X67916Y-42024
X70916Y-42024
X76278Y-26496
X78247Y-26496
X67916Y-35710
X70916Y-35710
X78292Y-28410
X78292Y-31410
X62248Y-16484
X62248Y-18453
X49096Y-16552
X49096Y-18521
X65614Y-16210
X65614Y-17210
X65614Y-18210
X65614Y-19210
X65614Y-20210
X65614Y-21210
X65614Y-22210
X65614Y-23210
X65614Y-24210
X65614Y-25210
X65614Y-26210
X65614Y-27210
X65614Y-28210
X65614Y-29210
X65614Y-30210
X71614Y-16210
X71614Y-17210
X71614Y-18210
X71614Y-19210
X71614Y-20210
X71614Y-21210
X71614Y-22210
X71614Y-23210
X71614Y-24210
X71614Y-25210
X71614Y-26210
X71614Y-27210
X71614Y-28210
X71614Y-29210
X71614Y-30210
X67916Y-37288
X70916Y-37288
X72742Y-39644
X72742Y-40644
X75742Y-39644
X75742Y-40644
X73392Y-28410
X73392Y-31410
X43558Y-28382
X45527Y-28382
X72742Y-36644
X72742Y-37644
X75742Y-36644
X75742Y-37644
X74617Y-28410
X74617Y-31410
X67916Y-38867
X70916Y-38867
X75842Y-28410
X75842Y-31410
X47496Y-16052
X47496Y-19052
T5
X73370Y-33024
X73370Y-34024
X75250Y-33010
X75250Y-34010
T7
X47170Y-24382
X47170Y-28382
X56896Y-16602
X56896Y-17602
X56896Y-18602
X69280Y-45856
X73280Y-45856
X54196Y-16602
X54196Y-17602
X54196Y-18602
T8
X51980Y-24982
X51980Y-32982
X59980Y-24982
X59980Y-32982
X54647Y-24982
X54647Y-32982
X57313Y-24982
X57313Y-32982
T9
X70180Y-48406
X72180Y-48406
X43442Y-20484
X43442Y-22484
T6
G00X45082Y-30758
M15
G01X45082Y-31546
M16
G05
G00X45869Y-33002
M15
G01X46657Y-33002
M16
G05
G00X47444Y-30758
M15
G01X47444Y-31546
M16
G05
T0
M30
