G04 #@! TF.GenerationSoftware,KiCad,Pcbnew,5.1.5+dfsg1-2build2*
G04 #@! TF.CreationDate,2023-08-26T17:55:10-03:00*
G04 #@! TF.ProjectId,TeCoLab_Board,5465436f-4c61-4625-9f42-6f6172642e6b,1.00*
G04 #@! TF.SameCoordinates,Original*
G04 #@! TF.FileFunction,Copper,L1,Top*
G04 #@! TF.FilePolarity,Positive*
%FSLAX46Y46*%
G04 Gerber Fmt 4.6, Leading zero omitted, Abs format (unit mm)*
G04 Created by KiCad (PCBNEW 5.1.5+dfsg1-2build2) date 2023-08-26 17:55:10*
%MOMM*%
%LPD*%
G04 APERTURE LIST*
%ADD10C,0.300000*%
%ADD11R,1.600000X1.600000*%
%ADD12O,1.600000X1.600000*%
%ADD13C,1.600000*%
%ADD14O,2.400000X2.400000*%
%ADD15C,2.400000*%
%ADD16R,1.800000X1.800000*%
%ADD17C,1.800000*%
%ADD18R,2.200000X2.200000*%
%ADD19O,2.200000X2.200000*%
%ADD20R,3.500000X3.500000*%
%ADD21C,0.150000*%
%ADD22R,3.000000X3.000000*%
%ADD23C,3.000000*%
%ADD24O,1.050000X1.500000*%
%ADD25R,1.050000X1.500000*%
%ADD26R,2.000000X1.905000*%
%ADD27O,2.000000X1.905000*%
%ADD28O,1.500000X1.050000*%
%ADD29R,1.500000X1.050000*%
%ADD30C,1.000000*%
%ADD31C,0.200000*%
%ADD32C,1.000000*%
%ADD33C,0.500000*%
G04 APERTURE END LIST*
D10*
X165078114Y-124189371D02*
X165435257Y-125189371D01*
X165792400Y-124189371D01*
X168292400Y-125189371D02*
X167435257Y-125189371D01*
X167863828Y-125189371D02*
X167863828Y-123689371D01*
X167720971Y-123903657D01*
X167578114Y-124046514D01*
X167435257Y-124117942D01*
X168935257Y-125046514D02*
X169006685Y-125117942D01*
X168935257Y-125189371D01*
X168863828Y-125117942D01*
X168935257Y-125046514D01*
X168935257Y-125189371D01*
X169935257Y-123689371D02*
X170078114Y-123689371D01*
X170220971Y-123760800D01*
X170292400Y-123832228D01*
X170363828Y-123975085D01*
X170435257Y-124260800D01*
X170435257Y-124617942D01*
X170363828Y-124903657D01*
X170292400Y-125046514D01*
X170220971Y-125117942D01*
X170078114Y-125189371D01*
X169935257Y-125189371D01*
X169792400Y-125117942D01*
X169720971Y-125046514D01*
X169649542Y-124903657D01*
X169578114Y-124617942D01*
X169578114Y-124260800D01*
X169649542Y-123975085D01*
X169720971Y-123832228D01*
X169792400Y-123760800D01*
X169935257Y-123689371D01*
D11*
X192384680Y-95615760D03*
D12*
X184764680Y-93075760D03*
X192384680Y-93075760D03*
X184764680Y-95615760D03*
D13*
X115637320Y-72090280D03*
X110637320Y-72090280D03*
D11*
X181899560Y-76733400D03*
D12*
X166659560Y-43713400D03*
X181899560Y-74193400D03*
X166659560Y-46253400D03*
X181899560Y-71653400D03*
X166659560Y-48793400D03*
X181899560Y-69113400D03*
X166659560Y-51333400D03*
X181899560Y-66573400D03*
X166659560Y-53873400D03*
X181899560Y-64033400D03*
X166659560Y-56413400D03*
X181899560Y-61493400D03*
X166659560Y-58953400D03*
X181899560Y-58953400D03*
X166659560Y-61493400D03*
X181899560Y-56413400D03*
X166659560Y-64033400D03*
X181899560Y-53873400D03*
X166659560Y-66573400D03*
X181899560Y-51333400D03*
X166659560Y-69113400D03*
X181899560Y-48793400D03*
X166659560Y-71653400D03*
X181899560Y-46253400D03*
X166659560Y-74193400D03*
X181899560Y-43713400D03*
X166659560Y-76733400D03*
X181899560Y-41173400D03*
X166659560Y-41173400D03*
D14*
X152349200Y-63454280D03*
D15*
X152349200Y-83774280D03*
X132029200Y-63454280D03*
D14*
X132029200Y-83774280D03*
D11*
X111455200Y-65852040D03*
D13*
X114955200Y-65852040D03*
X193746120Y-67299840D03*
X198746120Y-67299840D03*
X124703840Y-47042080D03*
X124703840Y-42042080D03*
X158109920Y-41869360D03*
X158109920Y-46869360D03*
D16*
X191135000Y-86385400D03*
D17*
X191135000Y-83845400D03*
X186359800Y-83880960D03*
D16*
X186359800Y-86420960D03*
D18*
X119811800Y-72090280D03*
D19*
X119811800Y-61930280D03*
X186131200Y-116474240D03*
D18*
X175971200Y-116474240D03*
D20*
X120507760Y-79126080D03*
G04 #@! TA.AperFunction,ComponentPad*
D21*
G36*
X115331273Y-77379691D02*
G01*
X115404078Y-77390491D01*
X115475474Y-77408375D01*
X115544773Y-77433170D01*
X115611308Y-77464639D01*
X115674438Y-77502478D01*
X115733555Y-77546322D01*
X115788090Y-77595750D01*
X115837518Y-77650285D01*
X115881362Y-77709402D01*
X115919201Y-77772532D01*
X115950670Y-77839067D01*
X115975465Y-77908366D01*
X115993349Y-77979762D01*
X116004149Y-78052567D01*
X116007760Y-78126080D01*
X116007760Y-80126080D01*
X116004149Y-80199593D01*
X115993349Y-80272398D01*
X115975465Y-80343794D01*
X115950670Y-80413093D01*
X115919201Y-80479628D01*
X115881362Y-80542758D01*
X115837518Y-80601875D01*
X115788090Y-80656410D01*
X115733555Y-80705838D01*
X115674438Y-80749682D01*
X115611308Y-80787521D01*
X115544773Y-80818990D01*
X115475474Y-80843785D01*
X115404078Y-80861669D01*
X115331273Y-80872469D01*
X115257760Y-80876080D01*
X113757760Y-80876080D01*
X113684247Y-80872469D01*
X113611442Y-80861669D01*
X113540046Y-80843785D01*
X113470747Y-80818990D01*
X113404212Y-80787521D01*
X113341082Y-80749682D01*
X113281965Y-80705838D01*
X113227430Y-80656410D01*
X113178002Y-80601875D01*
X113134158Y-80542758D01*
X113096319Y-80479628D01*
X113064850Y-80413093D01*
X113040055Y-80343794D01*
X113022171Y-80272398D01*
X113011371Y-80199593D01*
X113007760Y-80126080D01*
X113007760Y-78126080D01*
X113011371Y-78052567D01*
X113022171Y-77979762D01*
X113040055Y-77908366D01*
X113064850Y-77839067D01*
X113096319Y-77772532D01*
X113134158Y-77709402D01*
X113178002Y-77650285D01*
X113227430Y-77595750D01*
X113281965Y-77546322D01*
X113341082Y-77502478D01*
X113404212Y-77464639D01*
X113470747Y-77433170D01*
X113540046Y-77408375D01*
X113611442Y-77390491D01*
X113684247Y-77379691D01*
X113757760Y-77376080D01*
X115257760Y-77376080D01*
X115331273Y-77379691D01*
G37*
G04 #@! TD.AperFunction*
G04 #@! TA.AperFunction,ComponentPad*
G36*
X118468525Y-82080293D02*
G01*
X118553464Y-82092893D01*
X118636759Y-82113757D01*
X118717608Y-82142685D01*
X118795232Y-82179399D01*
X118868884Y-82223544D01*
X118937854Y-82274696D01*
X119001478Y-82332362D01*
X119059144Y-82395986D01*
X119110296Y-82464956D01*
X119154441Y-82538608D01*
X119191155Y-82616232D01*
X119220083Y-82697081D01*
X119240947Y-82780376D01*
X119253547Y-82865315D01*
X119257760Y-82951080D01*
X119257760Y-84701080D01*
X119253547Y-84786845D01*
X119240947Y-84871784D01*
X119220083Y-84955079D01*
X119191155Y-85035928D01*
X119154441Y-85113552D01*
X119110296Y-85187204D01*
X119059144Y-85256174D01*
X119001478Y-85319798D01*
X118937854Y-85377464D01*
X118868884Y-85428616D01*
X118795232Y-85472761D01*
X118717608Y-85509475D01*
X118636759Y-85538403D01*
X118553464Y-85559267D01*
X118468525Y-85571867D01*
X118382760Y-85576080D01*
X116632760Y-85576080D01*
X116546995Y-85571867D01*
X116462056Y-85559267D01*
X116378761Y-85538403D01*
X116297912Y-85509475D01*
X116220288Y-85472761D01*
X116146636Y-85428616D01*
X116077666Y-85377464D01*
X116014042Y-85319798D01*
X115956376Y-85256174D01*
X115905224Y-85187204D01*
X115861079Y-85113552D01*
X115824365Y-85035928D01*
X115795437Y-84955079D01*
X115774573Y-84871784D01*
X115761973Y-84786845D01*
X115757760Y-84701080D01*
X115757760Y-82951080D01*
X115761973Y-82865315D01*
X115774573Y-82780376D01*
X115795437Y-82697081D01*
X115824365Y-82616232D01*
X115861079Y-82538608D01*
X115905224Y-82464956D01*
X115956376Y-82395986D01*
X116014042Y-82332362D01*
X116077666Y-82274696D01*
X116146636Y-82223544D01*
X116220288Y-82179399D01*
X116297912Y-82142685D01*
X116378761Y-82113757D01*
X116462056Y-82092893D01*
X116546995Y-82080293D01*
X116632760Y-82076080D01*
X118382760Y-82076080D01*
X118468525Y-82080293D01*
G37*
G04 #@! TD.AperFunction*
D22*
X110342680Y-52029360D03*
D23*
X110342680Y-57109360D03*
X183337200Y-122951240D03*
D22*
X178257200Y-122951240D03*
D24*
X170129200Y-117617240D03*
X168859200Y-117617240D03*
D25*
X171399200Y-117617240D03*
D26*
X137657840Y-42169080D03*
D27*
X137657840Y-44709080D03*
X137657840Y-47249080D03*
X144515840Y-42169080D03*
X144515840Y-44709080D03*
D26*
X144515840Y-47249080D03*
D13*
X186415680Y-72161400D03*
D12*
X186415680Y-79781400D03*
X192638680Y-79781400D03*
D13*
X192638680Y-72161400D03*
D12*
X190687960Y-59700160D03*
D13*
X190687960Y-67320160D03*
X189527180Y-79781400D03*
D12*
X189527180Y-72161400D03*
X120639840Y-40772080D03*
D13*
X120639840Y-48392080D03*
D12*
X172506640Y-110749080D03*
D13*
X180126640Y-110749080D03*
X172506640Y-106739944D03*
D12*
X180126640Y-106739944D03*
D13*
X162041840Y-40772080D03*
D12*
X162041840Y-48392080D03*
D13*
X195750180Y-79781400D03*
D12*
X195750180Y-72161400D03*
X198861680Y-72161400D03*
D13*
X198861680Y-79781400D03*
X180126640Y-102730808D03*
D12*
X172506640Y-102730808D03*
X180126640Y-98721672D03*
D13*
X172506640Y-98721672D03*
D12*
X172506640Y-94712536D03*
D13*
X180126640Y-94712536D03*
X172506640Y-90703400D03*
D12*
X180126640Y-90703400D03*
D15*
X145575866Y-63454280D03*
D14*
X145575866Y-83774280D03*
X138802533Y-63454280D03*
D15*
X138802533Y-83774280D03*
D25*
X198018400Y-60822840D03*
D24*
X195478400Y-60822840D03*
X196748400Y-60822840D03*
D11*
X192384680Y-110855760D03*
D12*
X184764680Y-108315760D03*
X192384680Y-108315760D03*
X184764680Y-110855760D03*
D28*
X134101840Y-44582080D03*
X134101840Y-43312080D03*
D29*
X134101840Y-45852080D03*
X148071840Y-43312080D03*
D28*
X148071840Y-45852080D03*
X148071840Y-44582080D03*
D12*
X184764680Y-103235760D03*
X192384680Y-100695760D03*
X184764680Y-100695760D03*
D11*
X192384680Y-103235760D03*
D30*
X163626800Y-74183240D03*
X184764680Y-63982600D03*
X184764680Y-58958480D03*
X184764680Y-56382920D03*
X184764680Y-53858160D03*
X184764680Y-51363880D03*
X163652200Y-69103240D03*
X184825640Y-48768000D03*
X158109920Y-51450240D03*
X132354320Y-39649400D03*
D31*
X191201080Y-67320160D02*
X190687960Y-67320160D01*
X196748400Y-61772840D02*
X191201080Y-67320160D01*
X196748400Y-60822840D02*
X196748400Y-61772840D01*
X167949880Y-67823080D02*
X166659560Y-69113400D01*
X185770520Y-67823080D02*
X167949880Y-67823080D01*
X190687960Y-62905640D02*
X185770520Y-67823080D01*
X190687960Y-59700160D02*
X190687960Y-62905640D01*
X181899560Y-51333400D02*
X179054760Y-51333400D01*
X179054760Y-51333400D02*
X167345360Y-39624000D01*
X163189920Y-39624000D02*
X162041840Y-40772080D01*
X167345360Y-39624000D02*
X163189920Y-39624000D01*
X161241841Y-41572079D02*
X161221521Y-41572079D01*
X162041840Y-40772080D02*
X161241841Y-41572079D01*
X158211520Y-44582080D02*
X148071840Y-44582080D01*
X161221521Y-41572079D02*
X158211520Y-44582080D01*
X191099440Y-86420960D02*
X191135000Y-86385400D01*
X186359800Y-86420960D02*
X191099440Y-86420960D01*
X192384680Y-93075760D02*
X192384680Y-89209880D01*
X191135000Y-87960200D02*
X191135000Y-86385400D01*
X192384680Y-89209880D02*
X191135000Y-87960200D01*
X158109920Y-51450240D02*
X158109920Y-46869360D01*
D32*
X110637320Y-66669920D02*
X111455200Y-65852040D01*
X110637320Y-72090280D02*
X110637320Y-66669920D01*
X111455200Y-64052040D02*
X112510160Y-62997080D01*
X111455200Y-65852040D02*
X111455200Y-64052040D01*
X112510160Y-62997080D02*
X116362480Y-62997080D01*
X119811800Y-66446400D02*
X119811800Y-72090280D01*
X116362480Y-62997080D02*
X119811800Y-66446400D01*
X144468340Y-44709080D02*
X144427700Y-44749720D01*
X144515840Y-44709080D02*
X144468340Y-44709080D01*
X174879000Y-109508090D02*
X173638010Y-110749080D01*
X173638010Y-110749080D02*
X172506640Y-110749080D01*
X174275496Y-94712536D02*
X174879000Y-95316040D01*
X172506640Y-94712536D02*
X174275496Y-94712536D01*
X174879000Y-109508090D02*
X174879000Y-103505000D01*
X174104808Y-102730808D02*
X172506640Y-102730808D01*
X174879000Y-103505000D02*
X174104808Y-102730808D01*
X174879000Y-103505000D02*
X174879000Y-95316040D01*
X175971200Y-110600290D02*
X175971200Y-116474240D01*
X174879000Y-109508090D02*
X175971200Y-110600290D01*
X178257200Y-118760240D02*
X175971200Y-116474240D01*
X178257200Y-122951240D02*
X178257200Y-118760240D01*
X141122400Y-39065200D02*
X139898120Y-37840920D01*
X141122400Y-43315640D02*
X141122400Y-39065200D01*
X142515840Y-44709080D02*
X141122400Y-43315640D01*
X123093480Y-63164720D02*
X119811800Y-66446400D01*
X144515840Y-44709080D02*
X142515840Y-44709080D01*
X172506640Y-94712536D02*
X167646096Y-94712536D01*
X167646096Y-94712536D02*
X161935160Y-89001600D01*
X161935160Y-89001600D02*
X128031240Y-89001600D01*
X128031240Y-89001600D02*
X124211080Y-85181440D01*
X124211080Y-85181440D02*
X124211080Y-74178160D01*
X122123200Y-72090280D02*
X119811800Y-72090280D01*
X124211080Y-74178160D02*
X122123200Y-72090280D01*
X139898120Y-37840920D02*
X131074160Y-37840920D01*
X131074160Y-37840920D02*
X127060960Y-41854120D01*
X127060960Y-59197240D02*
X123093480Y-63164720D01*
X127060960Y-41854120D02*
X127060960Y-59197240D01*
X119811800Y-72090280D02*
X119811800Y-74777600D01*
X120507760Y-75473560D02*
X120507760Y-79126080D01*
X119811800Y-74777600D02*
X120507760Y-75473560D01*
X115637320Y-66534160D02*
X114955200Y-65852040D01*
X115637320Y-72090280D02*
X115637320Y-66534160D01*
X172506640Y-90703400D02*
X166339520Y-90703400D01*
X159410400Y-83774280D02*
X152349200Y-83774280D01*
X166339520Y-90703400D02*
X159410400Y-83774280D01*
X138802533Y-85471336D02*
X140097597Y-86766400D01*
X138802533Y-83774280D02*
X138802533Y-85471336D01*
X140097597Y-86766400D02*
X151206200Y-86766400D01*
X152349200Y-85623400D02*
X152349200Y-83774280D01*
X151206200Y-86766400D02*
X152349200Y-85623400D01*
X114507760Y-73219840D02*
X115637320Y-72090280D01*
X114507760Y-79126080D02*
X114507760Y-73219840D01*
X110342680Y-57109360D02*
X117088920Y-57109360D01*
X119811800Y-59832240D02*
X119811800Y-61930280D01*
X117088920Y-57109360D02*
X119811800Y-59832240D01*
X183337200Y-119268240D02*
X186131200Y-116474240D01*
X183337200Y-122951240D02*
X183337200Y-119268240D01*
D33*
X181702456Y-108315760D02*
X180126640Y-106739944D01*
X184764680Y-108315760D02*
X181702456Y-108315760D01*
X182790592Y-98721672D02*
X184764680Y-100695760D01*
X180126640Y-98721672D02*
X182790592Y-98721672D01*
X137705340Y-42169080D02*
X140182600Y-44646340D01*
X137657840Y-42169080D02*
X137705340Y-42169080D01*
X140182600Y-44646340D02*
X140182600Y-53456840D01*
X140182600Y-53456840D02*
X146446240Y-59720480D01*
X146446240Y-59720480D02*
X155788360Y-59720480D01*
X155788360Y-59720480D02*
X158023560Y-61955680D01*
X158023560Y-61955680D02*
X158023560Y-79629000D01*
X158023560Y-79629000D02*
X167157400Y-88762840D01*
X167157400Y-88762840D02*
X173573440Y-88762840D01*
X173573440Y-88762840D02*
X176215040Y-91404440D01*
X176215040Y-91404440D02*
X176215040Y-96662240D01*
X178274472Y-98721672D02*
X180126640Y-98721672D01*
X176215040Y-96662240D02*
X178274472Y-98721672D01*
D32*
X145575866Y-83774280D02*
X145575866Y-75410906D01*
X145575866Y-75410906D02*
X142052040Y-71887080D01*
X142052040Y-71887080D02*
X142052040Y-59100720D01*
X137657840Y-54706520D02*
X137657840Y-47249080D01*
X142052040Y-59100720D02*
X137657840Y-54706520D01*
X132029200Y-83774280D02*
X132029200Y-72369680D01*
X132029200Y-72369680D02*
X129011680Y-69352160D01*
X129011680Y-69352160D02*
X129011680Y-42992040D01*
X129011680Y-42992040D02*
X132354320Y-39649400D01*
D33*
X182392320Y-90703400D02*
X184764680Y-93075760D01*
X180126640Y-90703400D02*
X182392320Y-90703400D01*
X144515840Y-47249080D02*
X144515840Y-56118760D01*
X144515840Y-56118760D02*
X147030440Y-58633360D01*
X147030440Y-58633360D02*
X156326840Y-58633360D01*
X156326840Y-58633360D02*
X159293560Y-61600080D01*
X159293560Y-61600080D02*
X159293560Y-78912720D01*
X159293560Y-78912720D02*
X167807640Y-87426800D01*
X167807640Y-87426800D02*
X174299880Y-87426800D01*
X177576480Y-90703400D02*
X180126640Y-90703400D01*
X174299880Y-87426800D02*
X177576480Y-90703400D01*
X180233320Y-110855760D02*
X180126640Y-110749080D01*
X184764680Y-110855760D02*
X180233320Y-110855760D01*
X180631592Y-103235760D02*
X180126640Y-102730808D01*
X184764680Y-103235760D02*
X180631592Y-103235760D01*
X184383680Y-95996760D02*
X184764680Y-95615760D01*
X181029864Y-95615760D02*
X180126640Y-94712536D01*
X184764680Y-95615760D02*
X181029864Y-95615760D01*
D32*
X152349200Y-63454280D02*
X145575866Y-63454280D01*
X138802533Y-63454280D02*
X132029200Y-63454280D01*
M02*
